Hoogli-Bold.ufo
<glyph name="exclam" format="1">
  <advance width="323"/>
  <unicode hex="0021"/>
  <outline>
    <contour>
      <point x="183" y="224"/>
      <point x="208" y="243"/>
      <point x="209" y="265" type="curve" smooth="yes"/>
      <point x="216" y="540" type="line" smooth="yes"/>
      <point x="217" y="563"/>
      <point x="192" y="582"/>
      <point x="168" y="583" type="curve" smooth="yes"/>
      <point x="144" y="584"/>
      <point x="119" y="565"/>
      <point x="118" y="542" type="curve" smooth="yes"/>
      <point x="111" y="267" type="line" smooth="yes"/>
      <point x="110" y="245"/>
      <point x="135" y="226"/>
      <point x="159" y="225" type="curve" smooth="yes"/>
    </contour>
    <contour>
      <point x="198" y="-19"/>
      <point x="231" y="-5"/>
      <point x="231" y="51" type="curve" smooth="yes"/>
      <point x="231" y="97"/>
      <point x="196" y="122"/>
      <point x="160" y="122" type="curve" smooth="yes"/>
      <point x="121" y="122"/>
      <point x="90" y="98"/>
      <point x="90" y="51" type="curve"/>
      <point x="90" y="-3"/>
      <point x="131" y="-19"/>
      <point x="161" y="-19" type="curve" smooth="yes"/>
    </contour>
  </outline>
</glyph>
<glyph name="dollar" format="1">
  <advance width="583"/>
  <unicode hex="0024"/>
  <outline>
    <contour>
      <point x="434" y="453" type="curve" smooth="yes"/>
      <point x="382" y="472"/>
      <point x="344" y="483"/>
      <point x="268" y="483" type="curve" smooth="yes"/>
      <point x="206" y="483"/>
      <point x="153" y="456"/>
      <point x="153" y="417" type="curve" smooth="yes"/>
      <point x="153" y="377"/>
      <point x="190" y="341"/>
      <point x="300" y="322" type="curve" smooth="yes"/>
      <point x="491" y="286"/>
      <point x="539" y="212"/>
      <point x="539" y="130" type="curve" smooth="yes"/>
      <point x="539" y="46"/>
      <point x="477" y="-42"/>
      <point x="292" y="-42" type="curve" smooth="yes"/>
      <point x="213" y="-42"/>
      <point x="139" y="-27"/>
      <point x="70" y="7" type="curve" smooth="yes"/>
      <point x="48" y="18"/>
      <point x="39" y="45"/>
      <point x="50" y="66" type="curve" smooth="yes"/>
      <point x="60" y="88"/>
      <point x="87" y="97"/>
      <point x="108" y="87" type="curve" smooth="yes"/>
      <point x="165" y="59"/>
      <point x="227" y="46"/>
      <point x="292" y="46" type="curve" smooth="yes"/>
      <point x="383" y="46"/>
      <point x="441" y="80"/>
      <point x="441" y="130" type="curve" smooth="yes"/>
      <point x="441" y="182"/>
      <point x="389" y="216"/>
      <point x="286" y="236" type="curve" smooth="yes"/>
      <point x="74" y="271"/>
      <point x="55" y="353"/>
      <point x="55" y="417" type="curve"/>
      <point x="55" y="490"/>
      <point x="124" y="571"/>
      <point x="268" y="571" type="curve" smooth="yes"/>
      <point x="358" y="571"/>
      <point x="402" y="558"/>
      <point x="464" y="537" type="curve" smooth="yes"/>
      <point x="486" y="529"/>
      <point x="498" y="503"/>
      <point x="491" y="480" type="curve" smooth="yes"/>
      <point x="483" y="458"/>
      <point x="457" y="446"/>
    </contour>
    <contour>
      <point x="337" y="623" type="curve" smooth="yes"/>
      <point x="337" y="-101" type="line" smooth="yes"/>
      <point x="337" y="-125"/>
      <point x="312" y="-145"/>
      <point x="288" y="-145" type="curve" smooth="yes"/>
      <point x="264" y="-145"/>
      <point x="239" y="-125"/>
      <point x="239" y="-101" type="curve" smooth="yes"/>
      <point x="239" y="623" type="line" smooth="yes"/>
      <point x="239" y="647"/>
      <point x="264" y="667"/>
      <point x="288" y="667" type="curve" smooth="yes"/>
      <point x="312" y="667"/>
      <point x="337" y="647"/>
    </contour>
  </outline>
</glyph>
<glyph name="percent" format="1">
  <advance width="835"/>
  <unicode hex="0025"/>
  <outline>
    <contour>
      <point x="203" y="572" type="curve" smooth="yes"/>
      <point x="285" y="572"/>
      <point x="366" y="504"/>
      <point x="366" y="385" type="curve" smooth="yes"/>
      <point x="366" y="273"/>
      <point x="298" y="198"/>
      <point x="203" y="198" type="curve" smooth="yes"/>
      <point x="117" y="198"/>
      <point x="40" y="274"/>
      <point x="40" y="384" type="curve"/>
      <point x="40" y="504"/>
      <point x="116" y="572"/>
    </contour>
    <contour>
      <point x="633" y="330" type="curve" smooth="yes"/>
      <point x="715" y="330"/>
      <point x="795" y="262"/>
      <point x="795" y="143" type="curve" smooth="yes"/>
      <point x="795" y="33"/>
      <point x="727" y="-44"/>
      <point x="633" y="-44" type="curve" smooth="yes"/>
      <point x="545" y="-44"/>
      <point x="469" y="34"/>
      <point x="469" y="142" type="curve" smooth="yes"/>
      <point x="469" y="262"/>
      <point x="544" y="330"/>
    </contour>
    <contour>
      <point x="608" y="497" type="curve" smooth="yes"/>
      <point x="310" y="-12" type="line" smooth="yes"/>
      <point x="298" y="-33"/>
      <point x="268" y="-39"/>
      <point x="248" y="-27" type="curve" smooth="yes"/>
      <point x="227" y="-15"/>
      <point x="218" y="14"/>
      <point x="230" y="34" type="curve" smooth="yes"/>
      <point x="528" y="543" type="line" smooth="yes"/>
      <point x="540" y="564"/>
      <point x="570" y="570"/>
      <point x="590" y="558" type="curve" smooth="yes"/>
      <point x="611" y="546"/>
      <point x="620" y="517"/>
    </contour>
    <contour>
      <point x="203" y="484" type="curve" smooth="yes"/>
      <point x="156" y="484"/>
      <point x="138" y="432"/>
      <point x="138" y="384" type="curve" smooth="yes"/>
      <point x="138" y="340"/>
      <point x="157" y="286"/>
      <point x="203" y="286" type="curve" smooth="yes"/>
      <point x="254" y="286"/>
      <point x="268" y="341"/>
      <point x="268" y="385" type="curve" smooth="yes"/>
      <point x="268" y="432"/>
      <point x="247" y="484"/>
    </contour>
    <contour>
      <point x="633" y="242" type="curve" smooth="yes"/>
      <point x="586" y="242"/>
      <point x="567" y="190"/>
      <point x="567" y="142" type="curve" smooth="yes"/>
      <point x="567" y="98"/>
      <point x="587" y="44"/>
      <point x="633" y="44" type="curve" smooth="yes"/>
      <point x="683" y="44"/>
      <point x="697" y="99"/>
      <point x="697" y="143" type="curve" smooth="yes"/>
      <point x="697" y="190"/>
      <point x="677" y="242"/>
    </contour>
  </outline>
</glyph>
<glyph name="ampersand" format="1">
  <advance width="646"/>
  <unicode hex="0026"/>
  <outline>
    <contour>
      <point x="573" y="252" type="curve" smooth="yes"/>
      <point x="483" y="124" type="line" smooth="yes"/>
      <point x="392" y="-7"/>
      <point x="322" y="-41"/>
      <point x="235" y="-41" type="curve" smooth="yes"/>
      <point x="117" y="-41"/>
      <point x="38" y="33"/>
      <point x="38" y="126" type="curve" smooth="yes"/>
      <point x="38" y="208"/>
      <point x="71" y="275"/>
      <point x="259" y="352" type="curve" smooth="yes"/>
      <point x="302" y="370"/>
      <point x="323" y="394"/>
      <point x="323" y="427" type="curve" smooth="yes"/>
      <point x="323" y="458"/>
      <point x="297" y="484"/>
      <point x="261" y="484" type="curve" smooth="yes"/>
      <point x="225" y="484"/>
      <point x="202" y="457"/>
      <point x="202" y="423" type="curve" smooth="yes"/>
      <point x="202" y="378"/>
      <point x="238" y="345"/>
      <point x="287" y="301" type="curve" smooth="yes"/>
      <point x="581" y="45" type="line" smooth="yes"/>
      <point x="599" y="29"/>
      <point x="601" y="0"/>
      <point x="585" y="-18" type="curve" smooth="yes"/>
      <point x="570" y="-36"/>
      <point x="541" y="-38"/>
      <point x="523" y="-23" type="curve" smooth="yes"/>
      <point x="227" y="235" type="line" smooth="yes"/>
      <point x="152" y="301"/>
      <point x="104" y="354"/>
      <point x="104" y="423" type="curve"/>
      <point x="104" y="515"/>
      <point x="173" y="572"/>
      <point x="261" y="572" type="curve" smooth="yes"/>
      <point x="351" y="572"/>
      <point x="421" y="508"/>
      <point x="421" y="427" type="curve" smooth="yes"/>
      <point x="421" y="360"/>
      <point x="382" y="308"/>
      <point x="293" y="270" type="curve" smooth="yes"/>
      <point x="173" y="221"/>
      <point x="136" y="182"/>
      <point x="136" y="126" type="curve" smooth="yes"/>
      <point x="136" y="79"/>
      <point x="179" y="47"/>
      <point x="235" y="47" type="curve" smooth="yes"/>
      <point x="300" y="47"/>
      <point x="344" y="85"/>
      <point x="409" y="176" type="curve" smooth="yes"/>
      <point x="499" y="304" type="line" smooth="yes"/>
      <point x="512" y="324"/>
      <point x="542" y="328"/>
      <point x="561" y="314" type="curve" smooth="yes"/>
      <point x="581" y="300"/>
      <point x="587" y="271"/>
    </contour>
  </outline>
</glyph>
<glyph name="quotesingle" format="1">
  <advance width="237"/>
  <unicode hex="0027"/>
  <outline>
    <contour>
      <point x="182" y="561" type="curve" smooth="yes"/>
      <point x="140" y="377" type="line" smooth="yes"/>
      <point x="135" y="354"/>
      <point x="106" y="340"/>
      <point x="83" y="345" type="curve" smooth="yes"/>
      <point x="60" y="350"/>
      <point x="41" y="376"/>
      <point x="46" y="399" type="curve" smooth="yes"/>
      <point x="88" y="583" type="line" smooth="yes"/>
      <point x="93" y="606"/>
      <point x="122" y="620"/>
      <point x="145" y="615" type="curve" smooth="yes"/>
      <point x="168" y="610"/>
      <point x="187" y="584"/>
    </contour>
  </outline>
</glyph>
<glyph name="parenleft" format="1">
  <advance width="322"/>
  <unicode hex="0028"/>
  <outline>
    <contour>
      <point x="209" y="-82"/>
      <point x="221" y="-65"/>
      <point x="221" y="-46" type="curve" smooth="yes"/>
      <point x="221" y="17"/>
      <point x="141" y="77"/>
      <point x="141" y="289" type="curve" smooth="yes"/>
      <point x="141" y="475"/>
      <point x="224" y="592"/>
      <point x="224" y="643" type="curve" smooth="yes"/>
      <point x="224" y="656"/>
      <point x="217" y="680"/>
      <point x="187" y="680" type="curve" smooth="yes"/>
      <point x="161" y="680"/>
      <point x="142" y="658"/>
      <point x="128" y="624" type="curve" smooth="yes"/>
      <point x="85" y="524"/>
      <point x="46" y="430"/>
      <point x="46" y="297" type="curve" smooth="yes"/>
      <point x="46" y="145"/>
      <point x="95" y="34"/>
      <point x="123" y="-28" type="curve" smooth="yes"/>
      <point x="142" y="-70"/>
      <point x="165" y="-82"/>
      <point x="185" y="-82" type="curve" smooth="yes"/>
    </contour>
  </outline>
</glyph>
<glyph name="parenright" format="1">
  <advance width="332"/>
  <unicode hex="0029"/>
  <outline>
    <contour>
      <point x="130" y="650" type="curve" smooth="yes"/>
      <point x="216" y="556"/>
      <point x="289" y="412"/>
      <point x="289" y="259" type="curve" smooth="yes"/>
      <point x="289" y="107"/>
      <point x="220" y="-31"/>
      <point x="129" y="-124" type="curve" smooth="yes"/>
      <point x="113" y="-141"/>
      <point x="84" y="-141"/>
      <point x="66" y="-125" type="curve" smooth="yes"/>
      <point x="49" y="-108"/>
      <point x="48" y="-79"/>
      <point x="65" y="-62" type="curve" smooth="yes"/>
      <point x="140" y="17"/>
      <point x="191" y="133"/>
      <point x="191" y="259" type="curve" smooth="yes"/>
      <point x="191" y="386"/>
      <point x="136" y="510"/>
      <point x="64" y="590" type="curve" smooth="yes"/>
      <point x="48" y="607"/>
      <point x="50" y="637"/>
      <point x="67" y="653" type="curve" smooth="yes"/>
      <point x="85" y="669"/>
      <point x="114" y="668"/>
    </contour>
  </outline>
</glyph>
<glyph name="asterisk" format="1">
  <advance width="433"/>
  <unicode hex="002A"/>
  <outline>
    <contour>
      <point x="96" y="292"/>
      <point x="69" y="298"/>
      <point x="57" y="317" type="curve" smooth="yes"/>
      <point x="45" y="336"/>
      <point x="52" y="361"/>
      <point x="72" y="373" type="line" smooth="yes"/>
      <point x="317" y="507" type="line" smooth="yes"/>
      <point x="337" y="519"/>
      <point x="364" y="512"/>
      <point x="376" y="493" type="curve" smooth="yes"/>
      <point x="388" y="474"/>
      <point x="381" y="449"/>
      <point x="361" y="438" type="curve" smooth="yes"/>
      <point x="116" y="303" type="line" smooth="yes"/>
    </contour>
    <contour>
      <point x="72" y="438" type="line" smooth="yes"/>
      <point x="52" y="449"/>
      <point x="45" y="474"/>
      <point x="57" y="493" type="curve" smooth="yes"/>
      <point x="69" y="512"/>
      <point x="96" y="519"/>
      <point x="116" y="507" type="curve" smooth="yes"/>
      <point x="361" y="373" type="line" smooth="yes"/>
      <point x="381" y="361"/>
      <point x="388" y="336"/>
      <point x="376" y="317" type="curve" smooth="yes"/>
      <point x="364" y="298"/>
      <point x="337" y="292"/>
      <point x="317" y="303" type="curve" smooth="yes"/>
    </contour>
    <contour>
      <point x="239" y="245"/>
      <point x="259" y="263"/>
      <point x="259" y="285" type="curve" smooth="yes"/>
      <point x="259" y="530" type="line" smooth="yes"/>
      <point x="259" y="552"/>
      <point x="239" y="570"/>
      <point x="216" y="570" type="curve" smooth="yes"/>
      <point x="193" y="570"/>
      <point x="173" y="552"/>
      <point x="173" y="530" type="curve" smooth="yes"/>
      <point x="173" y="285" type="line" smooth="yes"/>
      <point x="173" y="263"/>
      <point x="193" y="245"/>
      <point x="216" y="245" type="curve" smooth="yes"/>
    </contour>
  </outline>
</glyph>
<glyph name="plus" format="1">
  <advance width="537"/>
  <unicode hex="002B"/>
  <outline>
    <contour>
      <point x="292" y="64"/>
      <point x="317" y="82"/>
      <point x="317" y="104" type="curve" smooth="yes"/>
      <point x="317" y="427" type="line" smooth="yes"/>
      <point x="317" y="450"/>
      <point x="292" y="469"/>
      <point x="268" y="469" type="curve" smooth="yes"/>
      <point x="244" y="469"/>
      <point x="219" y="450"/>
      <point x="219" y="427" type="curve" smooth="yes"/>
      <point x="219" y="104" type="line" smooth="yes"/>
      <point x="219" y="82"/>
      <point x="244" y="64"/>
      <point x="268" y="64" type="curve" smooth="yes"/>
    </contour>
    <contour>
      <point x="445" y="225" type="line" smooth="yes"/>
      <point x="469" y="225"/>
      <point x="489" y="244"/>
      <point x="489" y="266" type="curve" smooth="yes"/>
      <point x="489" y="289"/>
      <point x="469" y="308"/>
      <point x="445" y="308" type="curve" smooth="yes"/>
      <point x="91" y="308" type="line" smooth="yes"/>
      <point x="67" y="308"/>
      <point x="47" y="289"/>
      <point x="47" y="266" type="curve" smooth="yes"/>
      <point x="47" y="244"/>
      <point x="67" y="225"/>
      <point x="91" y="225" type="curve" smooth="yes"/>
    </contour>
  </outline>
</glyph>
<glyph name="comma" format="1">
  <advance width="222"/>
  <unicode hex="002C"/>
  <outline>
    <contour>
      <point x="151" y="96" type="curve" smooth="yes"/>
      <point x="157" y="81"/>
      <point x="161" y="56"/>
      <point x="161" y="30" type="curve" smooth="yes"/>
      <point x="161" y="-29"/>
      <point x="137" y="-87"/>
      <point x="105" y="-130" type="curve" smooth="yes"/>
      <point x="90" y="-149"/>
      <point x="61" y="-152"/>
      <point x="42" y="-138" type="curve" smooth="yes"/>
      <point x="23" y="-124"/>
      <point x="17" y="-95"/>
      <point x="31" y="-76" type="curve" smooth="yes"/>
      <point x="53" y="-47"/>
      <point x="63" y="-7"/>
      <point x="63" y="30" type="curve"/>
      <point x="63" y="44"/>
      <point x="63" y="57"/>
      <point x="61" y="66" type="curve" smooth="yes"/>
      <point x="53" y="88"/>
      <point x="70" y="115"/>
      <point x="92" y="123" type="curve" smooth="yes"/>
      <point x="115" y="130"/>
      <point x="144" y="119"/>
    </contour>
  </outline>
</glyph>
<glyph name="hyphen" format="1">
  <advance width="421"/>
  <unicode hex="002D"/>
  <outline>
    <contour>
      <point x="317" y="182" type="line" smooth="yes"/>
      <point x="341" y="182"/>
      <point x="361" y="200"/>
      <point x="361" y="223" type="curve" smooth="yes"/>
      <point x="361" y="246"/>
      <point x="341" y="264"/>
      <point x="317" y="264" type="curve" smooth="yes"/>
      <point x="104" y="264" type="line" smooth="yes"/>
      <point x="80" y="264"/>
      <point x="60" y="246"/>
      <point x="60" y="223" type="curve" smooth="yes"/>
      <point x="60" y="200"/>
      <point x="80" y="182"/>
      <point x="104" y="182" type="curve" smooth="yes"/>
    </contour>
  </outline>
</glyph>
<glyph name="period" format="1">
  <advance width="216"/>
  <unicode hex="002E"/>
  <outline>
    <contour>
      <point x="109" y="121" type="curve" smooth="yes"/>
      <point x="144" y="121"/>
      <point x="180" y="95"/>
      <point x="180" y="47" type="curve" smooth="yes"/>
      <point x="180" y="-13"/>
      <point x="145" y="-27"/>
      <point x="110" y="-27" type="curve" smooth="yes"/>
      <point x="78" y="-27"/>
      <point x="39" y="-11"/>
      <point x="39" y="47" type="curve"/>
      <point x="39" y="97"/>
      <point x="70" y="121"/>
    </contour>
  </outline>
</glyph>
<glyph name="slash" format="1">
  <advance width="395"/>
  <unicode hex="002F"/>
  <outline>
    <contour>
      <point x="71" y="-117"/>
      <point x="101" y="-107"/>
      <point x="109" y="-86" type="curve" smooth="yes"/>
      <point x="370" y="586" type="line" smooth="yes"/>
      <point x="378" y="607"/>
      <point x="362" y="632"/>
      <point x="340" y="640" type="curve" smooth="yes"/>
      <point x="318" y="648"/>
      <point x="288" y="638"/>
      <point x="280" y="616" type="curve" smooth="yes"/>
      <point x="19" y="-56" type="line" smooth="yes"/>
      <point x="11" y="-76"/>
      <point x="27" y="-101"/>
      <point x="49" y="-109" type="curve" smooth="yes"/>
    </contour>
  </outline>
</glyph>
<glyph name="zero" format="1">
  <advance width="574"/>
  <unicode hex="0030"/>
  <outline>
    <contour>
      <point x="443" y="-22"/>
      <point x="544" y="101"/>
      <point x="544" y="269" type="curve" smooth="yes"/>
      <point x="544" y="446"/>
      <point x="422" y="557"/>
      <point x="288" y="557" type="curve" smooth="yes"/>
      <point x="143" y="557"/>
      <point x="29" y="446"/>
      <point x="29" y="267" type="curve"/>
      <point x="29" y="102"/>
      <point x="146" y="-22"/>
      <point x="288" y="-22" type="curve" smooth="yes"/>
    </contour>
    <contour>
      <point x="186" y="62"/>
      <point x="127" y="164"/>
      <point x="127" y="267" type="curve" smooth="yes"/>
      <point x="127" y="379"/>
      <point x="185" y="474"/>
      <point x="288" y="474" type="curve" smooth="yes"/>
      <point x="384" y="474"/>
      <point x="446" y="379"/>
      <point x="446" y="269" type="curve" smooth="yes"/>
      <point x="446" y="165"/>
      <point x="399" y="62"/>
      <point x="288" y="62" type="curve" smooth="yes"/>
    </contour>
  </outline>
</glyph>
<glyph name="one" format="1">
  <advance width="324"/>
  <unicode hex="0031"/>
  <outline>
    <contour>
      <point x="254" y="513" type="curve" smooth="yes"/>
      <point x="254" y="11" type="line" smooth="yes"/>
      <point x="254" y="-13"/>
      <point x="229" y="-33"/>
      <point x="205" y="-33" type="curve" smooth="yes"/>
      <point x="181" y="-33"/>
      <point x="156" y="-13"/>
      <point x="156" y="11" type="curve" smooth="yes"/>
      <point x="156" y="513" type="line" smooth="yes"/>
      <point x="156" y="537"/>
      <point x="181" y="557"/>
      <point x="205" y="557" type="curve" smooth="yes"/>
      <point x="229" y="557"/>
      <point x="254" y="537"/>
    </contour>
    <contour>
      <point x="226" y="481" type="curve" smooth="yes"/>
      <point x="90" y="407" type="line" smooth="yes"/>
      <point x="69" y="396"/>
      <point x="42" y="404"/>
      <point x="30" y="425" type="curve" smooth="yes"/>
      <point x="19" y="446"/>
      <point x="27" y="473"/>
      <point x="48" y="485" type="curve" smooth="yes"/>
      <point x="184" y="559" type="line" smooth="yes"/>
      <point x="205" y="570"/>
      <point x="232" y="562"/>
      <point x="244" y="541" type="curve" smooth="yes"/>
      <point x="255" y="520"/>
      <point x="247" y="493"/>
    </contour>
  </outline>
</glyph>
<glyph name="three" format="1">
  <advance width="518"/>
  <unicode hex="0033"/>
  <outline>
    <contour>
      <point x="111" y="564" type="curve" smooth="yes"/>
      <point x="423" y="564" type="line" smooth="yes"/>
      <point x="447" y="564"/>
      <point x="467" y="544"/>
      <point x="467" y="520" type="curve" smooth="yes"/>
      <point x="467" y="496"/>
      <point x="447" y="476"/>
      <point x="423" y="476" type="curve" smooth="yes"/>
      <point x="111" y="476" type="line" smooth="yes"/>
      <point x="87" y="476"/>
      <point x="67" y="496"/>
      <point x="67" y="520" type="curve" smooth="yes"/>
      <point x="67" y="544"/>
      <point x="87" y="564"/>
    </contour>
    <contour>
      <point x="110" y="79" type="curve" smooth="yes"/>
      <point x="150" y="62"/>
      <point x="200" y="51"/>
      <point x="258" y="51" type="curve" smooth="yes"/>
      <point x="342" y="51"/>
      <point x="389" y="90"/>
      <point x="389" y="150" type="curve" smooth="yes"/>
      <point x="389" y="207"/>
      <point x="341" y="242"/>
      <point x="269" y="242" type="curve" smooth="yes"/>
      <point x="226" y="242"/>
      <point x="191" y="235"/>
      <point x="171" y="228" type="curve" smooth="yes"/>
      <point x="149" y="221"/>
      <point x="123" y="233"/>
      <point x="115" y="256" type="curve" smooth="yes"/>
      <point x="108" y="278"/>
      <point x="120" y="304"/>
      <point x="143" y="312" type="curve" smooth="yes"/>
      <point x="169" y="321"/>
      <point x="214" y="330"/>
      <point x="269" y="330" type="curve" smooth="yes"/>
      <point x="409" y="330"/>
      <point x="487" y="253"/>
      <point x="487" y="150" type="curve" smooth="yes"/>
      <point x="487" y="46"/>
      <point x="418" y="-37"/>
      <point x="258" y="-37" type="curve" smooth="yes"/>
      <point x="186" y="-37"/>
      <point x="124" y="-22"/>
      <point x="76" y="-1" type="curve" smooth="yes"/>
      <point x="54" y="8"/>
      <point x="43" y="35"/>
      <point x="53" y="56" type="curve" smooth="yes"/>
      <point x="62" y="78"/>
      <point x="89" y="89"/>
    </contour>
    <contour>
      <point x="444" y="479" type="curve" smooth="yes"/>
      <point x="193" y="242" type="line" smooth="yes"/>
      <point x="175" y="226"/>
      <point x="146" y="228"/>
      <point x="130" y="245" type="curve" smooth="yes"/>
      <point x="114" y="262"/>
      <point x="114" y="291"/>
      <point x="131" y="308" type="curve" smooth="yes"/>
      <point x="382" y="545" type="line" smooth="yes"/>
      <point x="400" y="561"/>
      <point x="429" y="559"/>
      <point x="445" y="542" type="curve" smooth="yes"/>
      <point x="461" y="525"/>
      <point x="461" y="496"/>
    </contour>
  </outline>
</glyph>
<glyph name="five" format="1">
  <advance width="527"/>
  <unicode hex="0035"/>
  <outline>
    <contour>
      <point x="423" y="-17"/>
      <point x="493" y="66"/>
      <point x="493" y="170" type="curve" smooth="yes"/>
      <point x="493" y="270"/>
      <point x="413" y="347"/>
      <point x="274" y="347" type="curve" smooth="yes"/>
      <point x="195" y="347"/>
      <point x="139" y="327"/>
      <point x="101" y="311" type="curve" smooth="yes"/>
      <point x="80" y="301"/>
      <point x="70" y="276"/>
      <point x="80" y="255" type="curve" smooth="yes"/>
      <point x="90" y="235"/>
      <point x="117" y="226"/>
      <point x="139" y="235" type="curve" smooth="yes"/>
      <point x="169" y="249"/>
      <point x="213" y="263"/>
      <point x="274" y="263" type="curve" smooth="yes"/>
      <point x="347" y="263"/>
      <point x="395" y="225"/>
      <point x="395" y="170" type="curve" smooth="yes"/>
      <point x="395" y="111"/>
      <point x="355" y="66"/>
      <point x="269" y="66" type="curve" smooth="yes"/>
      <point x="207" y="66"/>
      <point x="150" y="79"/>
      <point x="110" y="97" type="curve" smooth="yes"/>
      <point x="88" y="106"/>
      <point x="61" y="97"/>
      <point x="51" y="77" type="curve" smooth="yes"/>
      <point x="41" y="57"/>
      <point x="51" y="32"/>
      <point x="72" y="22" type="curve" smooth="yes"/>
      <point x="122" y="1"/>
      <point x="193" y="-17"/>
      <point x="269" y="-17" type="curve" smooth="yes"/>
    </contour>
    <contour>
      <point x="140" y="235"/>
      <point x="167" y="253"/>
      <point x="169" y="275" type="curve" smooth="yes"/>
      <point x="189" y="497" type="line" smooth="yes"/>
      <point x="191" y="519"/>
      <point x="167" y="540"/>
      <point x="144" y="542" type="curve" smooth="yes"/>
      <point x="120" y="544"/>
      <point x="93" y="527"/>
      <point x="91" y="504" type="curve" smooth="yes"/>
      <point x="71" y="283" type="line" smooth="yes"/>
      <point x="69" y="260"/>
      <point x="93" y="239"/>
      <point x="116" y="237" type="curve" smooth="yes"/>
    </contour>
    <contour>
      <point x="411" y="466" type="line" smooth="yes"/>
      <point x="435" y="466"/>
      <point x="455" y="485"/>
      <point x="455" y="507" type="curve" smooth="yes"/>
      <point x="455" y="530"/>
      <point x="435" y="549"/>
      <point x="411" y="549" type="curve" smooth="yes"/>
      <point x="141" y="549" type="line" smooth="yes"/>
      <point x="117" y="549"/>
      <point x="97" y="530"/>
      <point x="97" y="507" type="curve" smooth="yes"/>
      <point x="97" y="485"/>
      <point x="117" y="466"/>
      <point x="141" y="466" type="curve" smooth="yes"/>
    </contour>
  </outline>
</glyph>
<glyph name="six" format="1">
  <advance width="546"/>
  <unicode hex="0036"/>
  <outline>
    <contour>
      <point x="384" y="473" type="curve" smooth="yes"/>
      <point x="360" y="481"/>
      <point x="341" y="485"/>
      <point x="311" y="485" type="curve" smooth="yes"/>
      <point x="195" y="485"/>
      <point x="139" y="383"/>
      <point x="139" y="248" type="curve" smooth="yes"/>
      <point x="139" y="127"/>
      <point x="193" y="51"/>
      <point x="289" y="51" type="curve" smooth="yes"/>
      <point x="379" y="51"/>
      <point x="416" y="110"/>
      <point x="416" y="166" type="curve" smooth="yes"/>
      <point x="416" y="225"/>
      <point x="374" y="267"/>
      <point x="310" y="267" type="curve" smooth="yes"/>
      <point x="234" y="267"/>
      <point x="177" y="208"/>
      <point x="153" y="121" type="curve" smooth="yes"/>
      <point x="147" y="98"/>
      <point x="118" y="85"/>
      <point x="95" y="92" type="curve" smooth="yes"/>
      <point x="72" y="98"/>
      <point x="54" y="124"/>
      <point x="61" y="147" type="curve" smooth="yes"/>
      <point x="99" y="286"/>
      <point x="198" y="355"/>
      <point x="310" y="355" type="curve" smooth="yes"/>
      <point x="430" y="355"/>
      <point x="514" y="279"/>
      <point x="514" y="166" type="curve" smooth="yes"/>
      <point x="514" y="66"/>
      <point x="449" y="-37"/>
      <point x="289" y="-37" type="curve" smooth="yes"/>
      <point x="151" y="-37"/>
      <point x="41" y="47"/>
      <point x="41" y="248" type="curve"/>
      <point x="41" y="461"/>
      <point x="153" y="573"/>
      <point x="311" y="573" type="curve" smooth="yes"/>
      <point x="351" y="573"/>
      <point x="378" y="567"/>
      <point x="410" y="557" type="curve" smooth="yes"/>
      <point x="433" y="550"/>
      <point x="446" y="524"/>
      <point x="439" y="502" type="curve" smooth="yes"/>
      <point x="432" y="479"/>
      <point x="406" y="466"/>
    </contour>
  </outline>
</glyph>
<glyph name="seven" format="1">
  <advance width="469"/>
  <unicode hex="0037"/>
  <outline>
    <contour>
      <point x="216" y="-13"/>
      <point x="241" y="5"/>
      <point x="241" y="29" type="curve" smooth="yes"/>
      <point x="241" y="83" type="line" smooth="yes"/>
      <point x="241" y="133"/>
      <point x="259" y="186"/>
      <point x="283" y="227" type="curve" smooth="yes"/>
      <point x="314" y="278"/>
      <point x="423" y="416"/>
      <point x="463" y="486" type="curve" smooth="yes"/>
      <point x="474" y="505"/>
      <point x="464" y="532"/>
      <point x="443" y="543" type="curve" smooth="yes"/>
      <point x="422" y="553"/>
      <point x="392" y="547"/>
      <point x="381" y="527" type="curve" smooth="yes"/>
      <point x="341" y="457"/>
      <point x="234" y="321"/>
      <point x="203" y="270" type="curve" smooth="yes"/>
      <point x="171" y="216"/>
      <point x="143" y="149"/>
      <point x="143" y="83" type="curve" smooth="yes"/>
      <point x="143" y="29" type="line" smooth="yes"/>
      <point x="143" y="5"/>
      <point x="168" y="-13"/>
      <point x="192" y="-13" type="curve" smooth="yes"/>
    </contour>
    <contour>
      <point x="414" y="466" type="line" smooth="yes"/>
      <point x="438" y="466"/>
      <point x="458" y="485"/>
      <point x="458" y="507" type="curve" smooth="yes"/>
      <point x="458" y="530"/>
      <point x="438" y="549"/>
      <point x="414" y="549" type="curve" smooth="yes"/>
      <point x="54" y="549" type="line" smooth="yes"/>
      <point x="30" y="549"/>
      <point x="10" y="530"/>
      <point x="10" y="507" type="curve" smooth="yes"/>
      <point x="10" y="485"/>
      <point x="30" y="466"/>
      <point x="54" y="466" type="curve" smooth="yes"/>
    </contour>
  </outline>
</glyph>
<glyph name="eight" format="1">
  <advance width="566"/>
  <unicode hex="0038"/>
  <outline>
    <contour>
      <point x="284" y="330" type="curve" smooth="yes"/>
      <point x="437" y="330"/>
      <point x="525" y="251"/>
      <point x="525" y="144" type="curve" smooth="yes"/>
      <point x="525" y="47"/>
      <point x="466" y="-41"/>
      <point x="284" y="-41" type="curve" smooth="yes"/>
      <point x="113" y="-41"/>
      <point x="41" y="48"/>
      <point x="41" y="143" type="curve"/>
      <point x="41" y="251"/>
      <point x="122" y="330"/>
    </contour>
    <contour>
      <point x="284" y="572" type="curve" smooth="yes"/>
      <point x="422" y="572"/>
      <point x="498" y="502"/>
      <point x="498" y="409" type="curve" smooth="yes"/>
      <point x="498" y="321"/>
      <point x="433" y="242"/>
      <point x="284" y="242" type="curve" smooth="yes"/>
      <point x="128" y="242"/>
      <point x="68" y="321"/>
      <point x="68" y="409" type="curve"/>
      <point x="68" y="502"/>
      <point x="139" y="572"/>
    </contour>
    <contour>
      <point x="284" y="242" type="curve" smooth="yes"/>
      <point x="198" y="242"/>
      <point x="139" y="207"/>
      <point x="139" y="143" type="curve" smooth="yes"/>
      <point x="139" y="86"/>
      <point x="195" y="47"/>
      <point x="284" y="47" type="curve" smooth="yes"/>
      <point x="380" y="47"/>
      <point x="427" y="87"/>
      <point x="427" y="144" type="curve" smooth="yes"/>
      <point x="427" y="207"/>
      <point x="365" y="242"/>
    </contour>
    <contour>
      <point x="284" y="484" type="curve" smooth="yes"/>
      <point x="217" y="484"/>
      <point x="166" y="460"/>
      <point x="166" y="409" type="curve" smooth="yes"/>
      <point x="166" y="361"/>
      <point x="210" y="330"/>
      <point x="284" y="330" type="curve" smooth="yes"/>
      <point x="355" y="330"/>
      <point x="400" y="361"/>
      <point x="400" y="409" type="curve" smooth="yes"/>
      <point x="400" y="460"/>
      <point x="348" y="484"/>
    </contour>
  </outline>
</glyph>
<glyph name="colon" format="1">
  <advance width="244"/>
  <unicode hex="003A"/>
  <outline>
    <contour>
      <point x="121" y="115" type="curve" smooth="yes"/>
      <point x="157" y="115"/>
      <point x="192" y="88"/>
      <point x="192" y="40" type="curve" smooth="yes"/>
      <point x="192" y="-20"/>
      <point x="159" y="-34"/>
      <point x="122" y="-34" type="curve" smooth="yes"/>
      <point x="92" y="-34"/>
      <point x="51" y="-18"/>
      <point x="51" y="40" type="curve"/>
      <point x="51" y="90"/>
      <point x="85" y="115"/>
    </contour>
    <contour>
      <point x="121" y="398" type="curve" smooth="yes"/>
      <point x="158" y="398"/>
      <point x="192" y="369"/>
      <point x="192" y="324" type="curve" smooth="yes"/>
      <point x="192" y="264"/>
      <point x="158" y="249"/>
      <point x="122" y="249" type="curve" smooth="yes"/>
      <point x="93" y="249"/>
      <point x="51" y="266"/>
      <point x="51" y="324" type="curve"/>
      <point x="51" y="371"/>
      <point x="84" y="398"/>
    </contour>
  </outline>
</glyph>
<glyph name="semicolon" format="1">
  <advance width="222"/>
  <unicode hex="003B"/>
  <outline>
    <contour>
      <point x="109" y="401" type="curve" smooth="yes"/>
      <point x="144" y="401"/>
      <point x="180" y="372"/>
      <point x="180" y="327" type="curve" smooth="yes"/>
      <point x="180" y="267"/>
      <point x="144" y="252"/>
      <point x="110" y="252" type="curve" smooth="yes"/>
      <point x="79" y="252"/>
      <point x="39" y="269"/>
      <point x="39" y="327" type="curve" smooth="yes"/>
      <point x="39" y="374"/>
      <point x="70" y="401"/>
    </contour>
    <contour>
      <point x="152" y="89" type="curve" smooth="yes"/>
      <point x="157" y="73"/>
      <point x="161" y="49"/>
      <point x="161" y="23" type="curve" smooth="yes"/>
      <point x="161" y="-35"/>
      <point x="137" y="-92"/>
      <point x="105" y="-137" type="curve" smooth="yes"/>
      <point x="91" y="-156"/>
      <point x="61" y="-160"/>
      <point x="42" y="-146" type="curve" smooth="yes"/>
      <point x="23" y="-132"/>
      <point x="17" y="-102"/>
      <point x="31" y="-83" type="curve" smooth="yes"/>
      <point x="53" y="-54"/>
      <point x="63" y="-15"/>
      <point x="63" y="23" type="curve"/>
      <point x="63" y="37"/>
      <point x="63" y="51"/>
      <point x="60" y="61" type="curve" smooth="yes"/>
      <point x="53" y="84"/>
      <point x="70" y="110"/>
      <point x="93" y="117" type="curve" smooth="yes"/>
      <point x="116" y="124"/>
      <point x="145" y="112"/>
    </contour>
  </outline>
</glyph>
<glyph name="less" format="1">
  <advance width="537"/>
  <unicode hex="003C"/>
  <outline>
    <contour>
      <point x="434" y="74"/>
      <point x="461" y="84"/>
      <point x="471" y="104" type="curve" smooth="yes"/>
      <point x="481" y="126"/>
      <point x="471" y="150"/>
      <point x="449" y="160" type="curve" smooth="yes"/>
      <point x="111" y="303" type="line" smooth="yes"/>
      <point x="90" y="313"/>
      <point x="63" y="303"/>
      <point x="53" y="283" type="curve" smooth="yes"/>
      <point x="43" y="261"/>
      <point x="53" y="237"/>
      <point x="75" y="228" type="curve" smooth="yes"/>
      <point x="413" y="84" type="line" smooth="yes"/>
    </contour>
    <contour>
      <point x="443" y="370" type="line" smooth="yes"/>
      <point x="465" y="379"/>
      <point x="475" y="404"/>
      <point x="465" y="424" type="curve" smooth="yes"/>
      <point x="455" y="445"/>
      <point x="429" y="455"/>
      <point x="407" y="445" type="curve" smooth="yes"/>
      <point x="81" y="307" type="line" smooth="yes"/>
      <point x="59" y="297"/>
      <point x="49" y="273"/>
      <point x="59" y="253" type="curve" smooth="yes"/>
      <point x="69" y="231"/>
      <point x="95" y="222"/>
      <point x="117" y="231" type="curve" smooth="yes"/>
    </contour>
  </outline>
</glyph>
<glyph name="equal" format="1">
  <advance width="537"/>
  <unicode hex="003D"/>
  <outline>
    <contour>
      <point x="91" y="406" type="curve" smooth="yes"/>
      <point x="445" y="406" type="line" smooth="yes"/>
      <point x="469" y="406"/>
      <point x="489" y="386"/>
      <point x="489" y="362" type="curve" smooth="yes"/>
      <point x="489" y="338"/>
      <point x="469" y="318"/>
      <point x="445" y="318" type="curve" smooth="yes"/>
      <point x="91" y="318" type="line" smooth="yes"/>
      <point x="67" y="318"/>
      <point x="47" y="338"/>
      <point x="47" y="362" type="curve" smooth="yes"/>
      <point x="47" y="386"/>
      <point x="67" y="406"/>
    </contour>
    <contour>
      <point x="91" y="198" type="curve" smooth="yes"/>
      <point x="445" y="198" type="line" smooth="yes"/>
      <point x="469" y="198"/>
      <point x="489" y="178"/>
      <point x="489" y="154" type="curve" smooth="yes"/>
      <point x="489" y="130"/>
      <point x="469" y="110"/>
      <point x="445" y="110" type="curve" smooth="yes"/>
      <point x="91" y="110" type="line" smooth="yes"/>
      <point x="67" y="110"/>
      <point x="47" y="130"/>
      <point x="47" y="154" type="curve" smooth="yes"/>
      <point x="47" y="178"/>
      <point x="67" y="198"/>
    </contour>
  </outline>
</glyph>
<glyph name="question" format="1">
  <advance width="400"/>
  <unicode hex="003F"/>
  <outline>
    <contour>
      <point x="249" y="145"/>
      <point x="263" y="175"/>
      <point x="264" y="206" type="curve" smooth="yes"/>
      <point x="265" y="241" type="line" smooth="yes"/>
      <point x="267" y="263"/>
      <point x="273" y="291"/>
      <point x="317" y="327" type="curve" smooth="yes"/>
      <point x="358" y="360"/>
      <point x="403" y="391"/>
      <point x="403" y="461" type="curve" smooth="yes"/>
      <point x="403" y="541"/>
      <point x="343" y="607"/>
      <point x="243" y="607" type="curve" smooth="yes"/>
      <point x="147" y="607"/>
      <point x="76" y="547"/>
      <point x="76" y="470" type="curve" smooth="yes"/>
      <point x="76" y="419"/>
      <point x="122" y="376"/>
      <point x="172" y="376" type="curve" smooth="yes"/>
      <point x="196" y="376"/>
      <point x="220" y="389"/>
      <point x="220" y="417" type="curve" smooth="yes"/>
      <point x="220" y="434"/>
      <point x="211" y="441"/>
      <point x="201" y="447" type="curve" smooth="yes"/>
      <point x="188" y="454"/>
      <point x="175" y="460"/>
      <point x="175" y="482" type="curve" smooth="yes"/>
      <point x="175" y="513"/>
      <point x="211" y="527"/>
      <point x="246" y="527" type="curve" smooth="yes"/>
      <point x="279" y="527"/>
      <point x="317" y="507"/>
      <point x="317" y="468" type="curve" smooth="yes"/>
      <point x="317" y="428"/>
      <point x="276" y="403"/>
      <point x="237" y="370" type="curve" smooth="yes"/>
      <point x="173" y="322"/>
      <point x="163" y="289"/>
      <point x="163" y="240" type="curve" smooth="yes"/>
      <point x="163" y="207" type="line" smooth="yes"/>
      <point x="163" y="173"/>
      <point x="181" y="145"/>
      <point x="216" y="145" type="curve" smooth="yes"/>
    </contour>
    <contour>
      <point x="246" y="-11"/>
      <point x="279" y="7"/>
      <point x="279" y="45" type="curve" smooth="yes"/>
      <point x="279" y="79"/>
      <point x="254" y="110"/>
      <point x="217" y="110" type="curve" smooth="yes"/>
      <point x="185" y="110"/>
      <point x="158" y="86"/>
      <point x="158" y="51" type="curve" smooth="yes"/>
      <point x="158" y="15"/>
      <point x="188" y="-11"/>
      <point x="220" y="-11" type="curve" smooth="yes"/>
    </contour>
  </outline>
</glyph>
<glyph name="at" format="1">
  <advance width="678"/>
  <unicode hex="0040"/>
  <outline>
    <contour>
      <point x="418" y="-23"/>
      <point x="479" y="-6"/>
      <point x="524" y="12" type="curve" smooth="yes"/>
      <point x="546" y="21"/>
      <point x="556" y="45"/>
      <point x="546" y="66" type="curve" smooth="yes"/>
      <point x="537" y="86"/>
      <point x="511" y="96"/>
      <point x="490" y="86" type="curve" smooth="yes"/>
      <point x="453" y="70"/>
      <point x="404" y="59"/>
      <point x="346" y="59" type="curve" smooth="yes"/>
      <point x="209" y="59"/>
      <point x="113" y="147"/>
      <point x="113" y="263" type="curve"/>
      <point x="113" y="380"/>
      <point x="210" y="477"/>
      <point x="343" y="477" type="curve" smooth="yes"/>
      <point x="484" y="477"/>
      <point x="568" y="382"/>
      <point x="568" y="277" type="curve" smooth="yes"/>
      <point x="568" y="236"/>
      <point x="554" y="196"/>
      <point x="519" y="196" type="curve" smooth="yes"/>
      <point x="492" y="196"/>
      <point x="476" y="222"/>
      <point x="476" y="253" type="curve" smooth="yes"/>
      <point x="476" y="381" type="line" smooth="yes"/>
      <point x="476" y="403"/>
      <point x="456" y="422"/>
      <point x="433" y="422" type="curve" smooth="yes"/>
      <point x="410" y="422"/>
      <point x="390" y="403"/>
      <point x="390" y="381" type="curve" smooth="yes"/>
      <point x="390" y="253" type="line" smooth="yes"/>
      <point x="390" y="162"/>
      <point x="452" y="116"/>
      <point x="519" y="116" type="curve" smooth="yes"/>
      <point x="590" y="116"/>
      <point x="654" y="164"/>
      <point x="654" y="277" type="curve" smooth="yes"/>
      <point x="654" y="422"/>
      <point x="540" y="558"/>
      <point x="343" y="558" type="curve" smooth="yes"/>
      <point x="160" y="558"/>
      <point x="27" y="423"/>
      <point x="27" y="263" type="curve"/>
      <point x="27" y="103"/>
      <point x="155" y="-23"/>
      <point x="346" y="-23" type="curve" smooth="yes"/>
    </contour>
    <contour>
      <point x="374" y="117"/>
      <point x="431" y="145"/>
      <point x="469" y="207" type="curve" smooth="yes"/>
      <point x="481" y="227"/>
      <point x="474" y="253"/>
      <point x="454" y="262" type="curve" smooth="yes"/>
      <point x="433" y="274"/>
      <point x="406" y="267"/>
      <point x="395" y="249" type="curve" smooth="yes"/>
      <point x="375" y="217"/>
      <point x="348" y="197"/>
      <point x="319" y="197" type="curve" smooth="yes"/>
      <point x="288" y="197"/>
      <point x="264" y="223"/>
      <point x="264" y="260" type="curve" smooth="yes"/>
      <point x="264" y="308"/>
      <point x="296" y="341"/>
      <point x="338" y="341" type="curve" smooth="yes"/>
      <point x="366" y="341"/>
      <point x="389" y="333"/>
      <point x="409" y="320" type="curve" smooth="yes"/>
      <point x="428" y="308"/>
      <point x="456" y="314"/>
      <point x="469" y="331" type="curve" smooth="yes"/>
      <point x="482" y="349"/>
      <point x="476" y="376"/>
      <point x="457" y="388" type="curve" smooth="yes"/>
      <point x="423" y="409"/>
      <point x="386" y="422"/>
      <point x="338" y="422" type="curve" smooth="yes"/>
      <point x="254" y="422"/>
      <point x="178" y="362"/>
      <point x="178" y="260" type="curve" smooth="yes"/>
      <point x="178" y="166"/>
      <point x="248" y="117"/>
      <point x="319" y="117" type="curve" smooth="yes"/>
    </contour>
  </outline>
</glyph>
<glyph name="A" format="1">
  <advance width="589"/>
  <unicode hex="0041"/>
  <outline>
    <contour>
      <point x="558" y="17"/>
      <point x="573" y="42"/>
      <point x="564" y="64" type="curve" smooth="yes"/>
      <point x="514" y="186"/>
      <point x="410" y="401"/>
      <point x="334" y="553" type="curve" smooth="yes"/>
      <point x="323" y="574"/>
      <point x="294" y="582"/>
      <point x="272" y="572" type="curve" smooth="yes"/>
      <point x="251" y="563"/>
      <point x="238" y="536"/>
      <point x="248" y="516" type="curve" smooth="yes"/>
      <point x="324" y="365"/>
      <point x="426" y="152"/>
      <point x="476" y="32" type="curve" smooth="yes"/>
      <point x="484" y="10"/>
      <point x="514" y="1"/>
      <point x="536" y="8" type="curve" smooth="yes"/>
    </contour>
    <contour>
      <point x="75" y="2"/>
      <point x="104" y="11"/>
      <point x="112" y="33" type="curve" smooth="yes"/>
      <point x="159" y="156"/>
      <point x="258" y="367"/>
      <point x="328" y="517" type="curve" smooth="yes"/>
      <point x="338" y="537"/>
      <point x="325" y="564"/>
      <point x="303" y="572" type="curve" smooth="yes"/>
      <point x="281" y="582"/>
      <point x="252" y="573"/>
      <point x="242" y="552" type="curve" smooth="yes"/>
      <point x="170" y="401"/>
      <point x="69" y="188"/>
      <point x="22" y="63" type="curve" smooth="yes"/>
      <point x="14" y="41"/>
      <point x="30" y="16"/>
      <point x="52" y="8" type="curve" smooth="yes"/>
    </contour>
    <contour>
      <point x="445" y="149" type="line" smooth="yes"/>
      <point x="469" y="149"/>
      <point x="489" y="167"/>
      <point x="489" y="191" type="curve" smooth="yes"/>
      <point x="489" y="213"/>
      <point x="469" y="231"/>
      <point x="445" y="231" type="curve" smooth="yes"/>
      <point x="139" y="231" type="line" smooth="yes"/>
      <point x="115" y="231"/>
      <point x="95" y="213"/>
      <point x="95" y="191" type="curve" smooth="yes"/>
      <point x="95" y="167"/>
      <point x="115" y="149"/>
      <point x="139" y="149" type="curve" smooth="yes"/>
    </contour>
    <contour>
      <point x="524" y="63" type="move" name="ogonek"/>
    </contour>
    <contour>
      <point x="287" y="565" type="move" name="top"/>
    </contour>
  </outline>
</glyph>
<glyph name="B" format="1">
  <advance width="534"/>
  <unicode hex="0042"/>
  <outline>
    <contour>
      <point x="129" y="328" type="curve" smooth="yes"/>
      <point x="285" y="328" type="line" smooth="yes"/>
      <point x="353" y="328"/>
      <point x="414" y="304"/>
      <point x="450" y="268" type="curve" smooth="yes"/>
      <point x="486" y="231"/>
      <point x="506" y="192"/>
      <point x="506" y="144" type="curve" smooth="yes"/>
      <point x="506" y="101"/>
      <point x="486" y="58"/>
      <point x="454" y="25" type="curve" smooth="yes"/>
      <point x="419" y="-8"/>
      <point x="368" y="-33"/>
      <point x="282" y="-33" type="curve" smooth="yes"/>
      <point x="119" y="-33" type="line" smooth="yes"/>
      <point x="92" y="-33"/>
      <point x="70" y="-13"/>
      <point x="70" y="11" type="curve" smooth="yes"/>
      <point x="70" y="520" type="line" smooth="yes"/>
      <point x="70" y="544"/>
      <point x="92" y="564"/>
      <point x="119" y="564" type="curve" smooth="yes"/>
      <point x="265" y="564" type="line" smooth="yes"/>
      <point x="334" y="564"/>
      <point x="378" y="541"/>
      <point x="407" y="513" type="curve" smooth="yes"/>
      <point x="434" y="486"/>
      <point x="456" y="443"/>
      <point x="456" y="404" type="curve" smooth="yes"/>
      <point x="456" y="359"/>
      <point x="433" y="320"/>
      <point x="407" y="293" type="curve" smooth="yes"/>
      <point x="382" y="269"/>
      <point x="336" y="244"/>
      <point x="280" y="240" type="curve" smooth="yes"/>
      <point x="256" y="238"/>
      <point x="235" y="257"/>
      <point x="233" y="281" type="curve" smooth="yes"/>
      <point x="231" y="305"/>
      <point x="250" y="326"/>
      <point x="274" y="328" type="curve" smooth="yes"/>
      <point x="304" y="330"/>
      <point x="330" y="343"/>
      <point x="343" y="357" type="curve" smooth="yes"/>
      <point x="355" y="368"/>
      <point x="358" y="387"/>
      <point x="358" y="404" type="curve" smooth="yes"/>
      <point x="358" y="419"/>
      <point x="354" y="438"/>
      <point x="343" y="449" type="curve" smooth="yes"/>
      <point x="328" y="465"/>
      <point x="302" y="476"/>
      <point x="265" y="476" type="curve" smooth="yes"/>
      <point x="119" y="476" type="line"/>
      <point x="168" y="520" type="line"/>
      <point x="168" y="11" type="line"/>
      <point x="119" y="55" type="line"/>
      <point x="282" y="55" type="line" smooth="yes"/>
      <point x="336" y="55"/>
      <point x="369" y="68"/>
      <point x="390" y="89" type="curve" smooth="yes"/>
      <point x="406" y="104"/>
      <point x="408" y="125"/>
      <point x="408" y="144" type="curve" smooth="yes"/>
      <point x="408" y="166"/>
      <point x="404" y="187"/>
      <point x="386" y="204" type="curve" smooth="yes"/>
      <point x="364" y="226"/>
      <point x="327" y="240"/>
      <point x="285" y="240" type="curve" smooth="yes"/>
      <point x="129" y="240" type="line" smooth="yes"/>
      <point x="105" y="240"/>
      <point x="85" y="260"/>
      <point x="85" y="284" type="curve" smooth="yes"/>
      <point x="85" y="308"/>
      <point x="105" y="328"/>
    </contour>
  </outline>
</glyph>
<glyph name="D" format="1">
  <advance width="623"/>
  <unicode hex="0044"/>
  <outline>
    <contour>
      <point x="304" y="-13" type="line" smooth="yes"/>
      <point x="474" y="-13"/>
      <point x="591" y="107"/>
      <point x="591" y="268" type="curve" smooth="yes"/>
      <point x="591" y="438"/>
      <point x="452" y="549"/>
      <point x="304" y="549" type="curve" smooth="yes"/>
      <point x="119" y="549" type="line" smooth="yes"/>
      <point x="92" y="549"/>
      <point x="70" y="530"/>
      <point x="70" y="507" type="curve"/>
      <point x="70" y="29" type="line"/>
      <point x="70" y="5"/>
      <point x="92" y="-13"/>
      <point x="119" y="-13" type="curve" smooth="yes"/>
    </contour>
    <contour>
      <point x="168" y="507" type="line"/>
      <point x="119" y="466" type="line"/>
      <point x="304" y="466" type="line" smooth="yes"/>
      <point x="408" y="466"/>
      <point x="493" y="379"/>
      <point x="493" y="268" type="curve" smooth="yes"/>
      <point x="493" y="162"/>
      <point x="424" y="69"/>
      <point x="304" y="69" type="curve" smooth="yes"/>
      <point x="119" y="69" type="line"/>
      <point x="168" y="29" type="line"/>
    </contour>
    <contour>
      <point x="289" y="550" type="move" name="top"/>
    </contour>
  </outline>
</glyph>
<glyph name="E" format="1">
  <advance width="491"/>
  <unicode hex="0045"/>
  <outline>
    <contour>
      <point x="168" y="520" type="curve" smooth="yes"/>
      <point x="168" y="11" type="line" smooth="yes"/>
      <point x="168" y="-13"/>
      <point x="143" y="-33"/>
      <point x="119" y="-33" type="curve" smooth="yes"/>
      <point x="95" y="-33"/>
      <point x="70" y="-13"/>
      <point x="70" y="11" type="curve" smooth="yes"/>
      <point x="70" y="520" type="line" smooth="yes"/>
      <point x="70" y="544"/>
      <point x="95" y="564"/>
      <point x="119" y="564" type="curve" smooth="yes"/>
      <point x="143" y="564"/>
      <point x="168" y="544"/>
    </contour>
    <contour>
      <point x="128" y="55" type="curve" smooth="yes"/>
      <point x="412" y="55" type="line" smooth="yes"/>
      <point x="436" y="55"/>
      <point x="456" y="35"/>
      <point x="456" y="11" type="curve" smooth="yes"/>
      <point x="456" y="-13"/>
      <point x="436" y="-33"/>
      <point x="412" y="-33" type="curve" smooth="yes"/>
      <point x="128" y="-33" type="line" smooth="yes"/>
      <point x="104" y="-33"/>
      <point x="84" y="-13"/>
      <point x="84" y="11" type="curve" smooth="yes"/>
      <point x="84" y="35"/>
      <point x="104" y="55"/>
    </contour>
    <contour>
      <point x="128" y="564" type="curve" smooth="yes"/>
      <point x="410" y="564" type="line" smooth="yes"/>
      <point x="434" y="564"/>
      <point x="454" y="544"/>
      <point x="454" y="520" type="curve" smooth="yes"/>
      <point x="454" y="496"/>
      <point x="434" y="476"/>
      <point x="410" y="476" type="curve" smooth="yes"/>
      <point x="128" y="476" type="line" smooth="yes"/>
      <point x="104" y="476"/>
      <point x="84" y="496"/>
      <point x="84" y="520" type="curve" smooth="yes"/>
      <point x="84" y="544"/>
      <point x="104" y="564"/>
    </contour>
    <contour>
      <point x="128" y="329" type="curve" smooth="yes"/>
      <point x="365" y="329" type="line" smooth="yes"/>
      <point x="389" y="329"/>
      <point x="409" y="309"/>
      <point x="409" y="285" type="curve" smooth="yes"/>
      <point x="409" y="261"/>
      <point x="389" y="241"/>
      <point x="365" y="241" type="curve" smooth="yes"/>
      <point x="128" y="241" type="line" smooth="yes"/>
      <point x="104" y="241"/>
      <point x="84" y="261"/>
      <point x="84" y="285" type="curve" smooth="yes"/>
      <point x="84" y="309"/>
      <point x="104" y="329"/>
    </contour>
  </outline>
</glyph>
<glyph name="F" format="1">
  <advance width="479"/>
  <unicode hex="0046"/>
  <outline>
    <contour>
      <point x="143" y="-13"/>
      <point x="168" y="5"/>
      <point x="168" y="29" type="curve" smooth="yes"/>
      <point x="168" y="507" type="line" smooth="yes"/>
      <point x="168" y="530"/>
      <point x="143" y="549"/>
      <point x="119" y="549" type="curve" smooth="yes"/>
      <point x="95" y="549"/>
      <point x="70" y="530"/>
      <point x="70" y="507" type="curve" smooth="yes"/>
      <point x="70" y="29" type="line" smooth="yes"/>
      <point x="70" y="5"/>
      <point x="95" y="-13"/>
      <point x="119" y="-13" type="curve" smooth="yes"/>
    </contour>
    <contour>
      <point x="365" y="226" type="line" smooth="yes"/>
      <point x="389" y="226"/>
      <point x="409" y="245"/>
      <point x="409" y="267" type="curve" smooth="yes"/>
      <point x="409" y="290"/>
      <point x="389" y="309"/>
      <point x="365" y="309" type="curve" smooth="yes"/>
      <point x="128" y="309" type="line" smooth="yes"/>
      <point x="104" y="309"/>
      <point x="84" y="290"/>
      <point x="84" y="267" type="curve" smooth="yes"/>
      <point x="84" y="245"/>
      <point x="104" y="226"/>
      <point x="128" y="226" type="curve" smooth="yes"/>
    </contour>
    <contour>
      <point x="418" y="466" type="line" smooth="yes"/>
      <point x="442" y="466"/>
      <point x="462" y="485"/>
      <point x="462" y="507" type="curve" smooth="yes"/>
      <point x="462" y="530"/>
      <point x="442" y="549"/>
      <point x="418" y="549" type="curve" smooth="yes"/>
      <point x="128" y="549" type="line" smooth="yes"/>
      <point x="104" y="549"/>
      <point x="84" y="530"/>
      <point x="84" y="507" type="curve" smooth="yes"/>
      <point x="84" y="485"/>
      <point x="104" y="466"/>
      <point x="128" y="466" type="curve" smooth="yes"/>
    </contour>
  </outline>
</glyph>
<glyph name="G" format="1">
  <advance width="629"/>
  <unicode hex="0047"/>
  <outline>
    <contour>
      <point x="479" y="460" type="curve" smooth="yes"/>
      <point x="440" y="475"/>
      <point x="395" y="486"/>
      <point x="342" y="486" type="curve" smooth="yes"/>
      <point x="216" y="486"/>
      <point x="129" y="392"/>
      <point x="129" y="262" type="curve" smooth="yes"/>
      <point x="129" y="144"/>
      <point x="203" y="45"/>
      <point x="339" y="45" type="curve" smooth="yes"/>
      <point x="409" y="45"/>
      <point x="461" y="63"/>
      <point x="503" y="90" type="curve" smooth="yes"/>
      <point x="523" y="103"/>
      <point x="551" y="97"/>
      <point x="564" y="77" type="curve" smooth="yes"/>
      <point x="577" y="56"/>
      <point x="571" y="28"/>
      <point x="551" y="16" type="curve" smooth="yes"/>
      <point x="495" y="-19"/>
      <point x="429" y="-43"/>
      <point x="339" y="-43" type="curve" smooth="yes"/>
      <point x="147" y="-43"/>
      <point x="31" y="90"/>
      <point x="31" y="262" type="curve"/>
      <point x="31" y="452"/>
      <point x="166" y="574"/>
      <point x="342" y="574" type="curve" smooth="yes"/>
      <point x="407" y="574"/>
      <point x="462" y="561"/>
      <point x="511" y="542" type="curve" smooth="yes"/>
      <point x="533" y="534"/>
      <point x="545" y="507"/>
      <point x="536" y="485" type="curve" smooth="yes"/>
      <point x="527" y="463"/>
      <point x="501" y="451"/>
    </contour>
    <contour>
      <point x="479" y="63" type="curve" smooth="yes"/>
      <point x="479" y="246" type="line" smooth="yes"/>
      <point x="479" y="270"/>
      <point x="504" y="290"/>
      <point x="528" y="290" type="curve" smooth="yes"/>
      <point x="552" y="290"/>
      <point x="577" y="270"/>
      <point x="577" y="246" type="curve" smooth="yes"/>
      <point x="577" y="63" type="line" smooth="yes"/>
      <point x="577" y="39"/>
      <point x="552" y="19"/>
      <point x="528" y="19" type="curve" smooth="yes"/>
      <point x="504" y="19"/>
      <point x="479" y="39"/>
    </contour>
    <contour>
      <point x="516" y="202" type="curve" smooth="yes"/>
      <point x="355" y="202" type="line" smooth="yes"/>
      <point x="331" y="202"/>
      <point x="311" y="222"/>
      <point x="311" y="246" type="curve" smooth="yes"/>
      <point x="311" y="270"/>
      <point x="331" y="290"/>
      <point x="355" y="290" type="curve" smooth="yes"/>
      <point x="516" y="290" type="line" smooth="yes"/>
      <point x="540" y="290"/>
      <point x="560" y="270"/>
      <point x="560" y="246" type="curve" smooth="yes"/>
      <point x="560" y="222"/>
      <point x="540" y="202"/>
    </contour>
  </outline>
</glyph>
<glyph name="I" format="1">
  <advance width="249"/>
  <unicode hex="0049"/>
  <outline>
    <contour>
      <point x="173" y="520" type="curve" smooth="yes"/>
      <point x="173" y="11" type="line" smooth="yes"/>
      <point x="173" y="-13"/>
      <point x="148" y="-33"/>
      <point x="124" y="-33" type="curve" smooth="yes"/>
      <point x="100" y="-33"/>
      <point x="75" y="-13"/>
      <point x="75" y="11" type="curve" smooth="yes"/>
      <point x="75" y="520" type="line" smooth="yes"/>
      <point x="75" y="544"/>
      <point x="100" y="564"/>
      <point x="124" y="564" type="curve" smooth="yes"/>
      <point x="148" y="564"/>
      <point x="173" y="544"/>
    </contour>
  </outline>
</glyph>
<glyph name="J" format="1">
  <advance width="388"/>
  <unicode hex="004A"/>
  <outline>
    <contour>
      <point x="263" y="-22"/>
      <point x="331" y="32"/>
      <point x="331" y="168" type="curve" smooth="yes"/>
      <point x="331" y="507" type="line" smooth="yes"/>
      <point x="331" y="530"/>
      <point x="306" y="549"/>
      <point x="282" y="549" type="curve" smooth="yes"/>
      <point x="258" y="549"/>
      <point x="233" y="530"/>
      <point x="233" y="507" type="curve" smooth="yes"/>
      <point x="233" y="168" type="line" smooth="yes"/>
      <point x="233" y="108"/>
      <point x="217" y="62"/>
      <point x="158" y="62" type="curve" smooth="yes"/>
      <point x="133" y="62"/>
      <point x="108" y="66"/>
      <point x="84" y="76" type="curve" smooth="yes"/>
      <point x="62" y="86"/>
      <point x="35" y="76"/>
      <point x="25" y="57" type="curve" smooth="yes"/>
      <point x="15" y="35"/>
      <point x="25" y="10"/>
      <point x="46" y="2" type="curve" smooth="yes"/>
      <point x="82" y="-15"/>
      <point x="121" y="-22"/>
      <point x="158" y="-22" type="curve" smooth="yes"/>
    </contour>
  </outline>
</glyph>
<glyph name="K" format="1">
  <advance width="565"/>
  <unicode hex="004B"/>
  <outline>
    <contour>
      <point x="168" y="520" type="curve" smooth="yes"/>
      <point x="168" y="11" type="line" smooth="yes"/>
      <point x="168" y="-13"/>
      <point x="143" y="-33"/>
      <point x="119" y="-33" type="curve" smooth="yes"/>
      <point x="95" y="-33"/>
      <point x="70" y="-13"/>
      <point x="70" y="11" type="curve" smooth="yes"/>
      <point x="70" y="520" type="line" smooth="yes"/>
      <point x="70" y="544"/>
      <point x="95" y="564"/>
      <point x="119" y="564" type="curve" smooth="yes"/>
      <point x="143" y="564"/>
      <point x="168" y="544"/>
    </contour>
    <contour>
      <point x="284" y="332" type="curve" smooth="yes"/>
      <point x="344" y="259"/>
      <point x="469" y="107"/>
      <point x="527" y="41" type="curve" smooth="yes"/>
      <point x="543" y="23"/>
      <point x="540" y="-6"/>
      <point x="522" y="-22" type="curve" smooth="yes"/>
      <point x="504" y="-38"/>
      <point x="475" y="-37"/>
      <point x="459" y="-19" type="curve" smooth="yes"/>
      <point x="401" y="47"/>
      <point x="274" y="201"/>
      <point x="214" y="274" type="curve" smooth="yes"/>
      <point x="199" y="293"/>
      <point x="203" y="322"/>
      <point x="221" y="337" type="curve" smooth="yes"/>
      <point x="239" y="352"/>
      <point x="269" y="350"/>
    </contour>
    <contour>
      <point x="89" y="220" type="curve" smooth="yes"/>
      <point x="140" y="266"/>
      <point x="335" y="442"/>
      <point x="439" y="551" type="curve" smooth="yes"/>
      <point x="456" y="568"/>
      <point x="485" y="568"/>
      <point x="502" y="552" type="curve" smooth="yes"/>
      <point x="520" y="535"/>
      <point x="521" y="506"/>
      <point x="505" y="489" type="curve" smooth="yes"/>
      <point x="399" y="378"/>
      <point x="200" y="200"/>
      <point x="149" y="154" type="curve" smooth="yes"/>
      <point x="131" y="138"/>
      <point x="102" y="140"/>
      <point x="86" y="158" type="curve" smooth="yes"/>
      <point x="70" y="175"/>
      <point x="71" y="204"/>
    </contour>
  </outline>
</glyph>
<glyph name="L" format="1">
  <advance width="462"/>
  <unicode hex="004C"/>
  <outline>
    <contour>
      <point x="143" y="-13"/>
      <point x="168" y="5"/>
      <point x="168" y="29" type="curve" smooth="yes"/>
      <point x="168" y="507" type="line" smooth="yes"/>
      <point x="168" y="530"/>
      <point x="143" y="549"/>
      <point x="119" y="549" type="curve" smooth="yes"/>
      <point x="95" y="549"/>
      <point x="70" y="530"/>
      <point x="70" y="507" type="curve" smooth="yes"/>
      <point x="70" y="29" type="line" smooth="yes"/>
      <point x="70" y="5"/>
      <point x="95" y="-13"/>
      <point x="119" y="-13" type="curve" smooth="yes"/>
    </contour>
    <contour>
      <point x="404" y="-13" type="line" smooth="yes"/>
      <point x="428" y="-13"/>
      <point x="448" y="5"/>
      <point x="448" y="29" type="curve" smooth="yes"/>
      <point x="448" y="51"/>
      <point x="428" y="69"/>
      <point x="404" y="69" type="curve" smooth="yes"/>
      <point x="128" y="69" type="line" smooth="yes"/>
      <point x="104" y="69"/>
      <point x="84" y="51"/>
      <point x="84" y="29" type="curve" smooth="yes"/>
      <point x="84" y="5"/>
      <point x="104" y="-13"/>
      <point x="128" y="-13" type="curve" smooth="yes"/>
    </contour>
    <contour>
      <point x="118" y="547" type="move" name="top"/>
    </contour>
    <contour>
      <point x="266" y="-11" type="move" name="bottom"/>
    </contour>
  </outline>
</glyph>
<glyph name="N" format="1">
  <advance width="647"/>
  <unicode hex="004E"/>
  <outline>
    <contour>
      <point x="566" y="8"/>
      <point x="572" y="35"/>
      <point x="558" y="54" type="curve" smooth="yes"/>
      <point x="446" y="195"/>
      <point x="240" y="434"/>
      <point x="161" y="533" type="curve" smooth="yes"/>
      <point x="147" y="551"/>
      <point x="118" y="553"/>
      <point x="99" y="540" type="curve" smooth="yes"/>
      <point x="80" y="527"/>
      <point x="74" y="500"/>
      <point x="89" y="482" type="curve" smooth="yes"/>
      <point x="168" y="383"/>
      <point x="372" y="144"/>
      <point x="484" y="2" type="curve" smooth="yes"/>
      <point x="499" y="-15"/>
      <point x="528" y="-18"/>
      <point x="547" y="-4" type="curve" smooth="yes"/>
    </contour>
    <contour>
      <point x="143" y="-13"/>
      <point x="168" y="5"/>
      <point x="168" y="29" type="curve" smooth="yes"/>
      <point x="168" y="507" type="line" smooth="yes"/>
      <point x="168" y="530"/>
      <point x="143" y="549"/>
      <point x="119" y="549" type="curve" smooth="yes"/>
      <point x="95" y="549"/>
      <point x="70" y="530"/>
      <point x="70" y="507" type="curve" smooth="yes"/>
      <point x="70" y="29" type="line" smooth="yes"/>
      <point x="70" y="5"/>
      <point x="95" y="-13"/>
      <point x="119" y="-13" type="curve" smooth="yes"/>
    </contour>
    <contour>
      <point x="552" y="-13"/>
      <point x="577" y="5"/>
      <point x="577" y="29" type="curve" smooth="yes"/>
      <point x="577" y="507" type="line" smooth="yes"/>
      <point x="577" y="530"/>
      <point x="552" y="549"/>
      <point x="528" y="549" type="curve" smooth="yes"/>
      <point x="504" y="549"/>
      <point x="479" y="530"/>
      <point x="479" y="507" type="curve" smooth="yes"/>
      <point x="479" y="29" type="line" smooth="yes"/>
      <point x="479" y="5"/>
      <point x="504" y="-13"/>
      <point x="528" y="-13" type="curve" smooth="yes"/>
    </contour>
    <contour>
      <point x="329" y="523" type="move" name="top"/>
    </contour>
    <contour>
      <point x="307" y="38" type="move" name="bottom"/>
    </contour>
  </outline>
</glyph>
<glyph name="Q" format="1">
  <advance width="652"/>
  <unicode hex="0051"/>
  <outline>
    <contour>
      <point x="508" y="-19"/>
      <point x="621" y="102"/>
      <point x="621" y="270" type="curve" smooth="yes"/>
      <point x="621" y="446"/>
      <point x="487" y="561"/>
      <point x="328" y="561" type="curve" smooth="yes"/>
      <point x="156" y="561"/>
      <point x="31" y="446"/>
      <point x="31" y="267" type="curve"/>
      <point x="31" y="103"/>
      <point x="157" y="-19"/>
      <point x="328" y="-19" type="curve" smooth="yes"/>
    </contour>
    <contour>
      <point x="552" y="-152"/>
      <point x="572" y="-132"/>
      <point x="572" y="-110" type="curve" smooth="yes"/>
      <point x="572" y="-88"/>
      <point x="552" y="-68"/>
      <point x="528" y="-68" type="curve" smooth="yes"/>
      <point x="442" y="-68"/>
      <point x="386" y="-25"/>
      <point x="371" y="32" type="curve" smooth="yes"/>
      <point x="365" y="53"/>
      <point x="336" y="66"/>
      <point x="313" y="61" type="curve" smooth="yes"/>
      <point x="290" y="55"/>
      <point x="271" y="31"/>
      <point x="277" y="8" type="curve" smooth="yes"/>
      <point x="302" y="-81"/>
      <point x="390" y="-152"/>
      <point x="528" y="-152" type="curve" smooth="yes"/>
    </contour>
    <contour>
      <point x="207" y="65"/>
      <point x="129" y="159"/>
      <point x="129" y="267" type="curve" smooth="yes"/>
      <point x="129" y="388"/>
      <point x="204" y="478"/>
      <point x="328" y="478" type="curve" smooth="yes"/>
      <point x="441" y="478"/>
      <point x="523" y="388"/>
      <point x="523" y="270" type="curve" smooth="yes"/>
      <point x="523" y="160"/>
      <point x="456" y="65"/>
      <point x="328" y="65" type="curve" smooth="yes"/>
    </contour>
  </outline>
</glyph>
<glyph name="R" format="1">
  <advance width="548"/>
  <unicode hex="0052"/>
  <outline>
    <contour>
      <point x="136" y="264" type="curve" smooth="yes"/>
      <point x="274" y="264" type="line" smooth="yes"/>
      <point x="356" y="264"/>
      <point x="399" y="311"/>
      <point x="399" y="370" type="curve" smooth="yes"/>
      <point x="399" y="433"/>
      <point x="348" y="476"/>
      <point x="274" y="476" type="curve" smooth="yes"/>
      <point x="119" y="476" type="line"/>
      <point x="168" y="520" type="line"/>
      <point x="168" y="11" type="line" smooth="yes"/>
      <point x="168" y="-13"/>
      <point x="143" y="-33"/>
      <point x="119" y="-33" type="curve" smooth="yes"/>
      <point x="95" y="-33"/>
      <point x="70" y="-13"/>
      <point x="70" y="11" type="curve" smooth="yes"/>
      <point x="70" y="520" type="line"/>
      <point x="70" y="544"/>
      <point x="92" y="564"/>
      <point x="119" y="564" type="curve" smooth="yes"/>
      <point x="274" y="564" type="line" smooth="yes"/>
      <point x="410" y="564"/>
      <point x="497" y="483"/>
      <point x="497" y="370" type="curve" smooth="yes"/>
      <point x="497" y="265"/>
      <point x="424" y="176"/>
      <point x="274" y="176" type="curve" smooth="yes"/>
      <point x="136" y="176" type="line" smooth="yes"/>
      <point x="112" y="176"/>
      <point x="92" y="196"/>
      <point x="92" y="220" type="curve" smooth="yes"/>
      <point x="92" y="244"/>
      <point x="112" y="264"/>
    </contour>
    <contour>
      <point x="338" y="243" type="curve" smooth="yes"/>
      <point x="511" y="40" type="line" smooth="yes"/>
      <point x="527" y="22"/>
      <point x="524" y="-7"/>
      <point x="506" y="-22" type="curve" smooth="yes"/>
      <point x="487" y="-38"/>
      <point x="458" y="-36"/>
      <point x="443" y="-18" type="curve" smooth="yes"/>
      <point x="270" y="185" type="line" smooth="yes"/>
      <point x="254" y="203"/>
      <point x="257" y="232"/>
      <point x="275" y="247" type="curve" smooth="yes"/>
      <point x="294" y="263"/>
      <point x="323" y="261"/>
    </contour>
  </outline>
</glyph>
<glyph name="S" format="1">
  <advance width="531"/>
  <unicode hex="0053"/>
  <outline>
    <contour>
      <point x="387" y="454" type="curve" smooth="yes"/>
      <point x="342" y="472"/>
      <point x="310" y="483"/>
      <point x="245" y="483" type="curve" smooth="yes"/>
      <point x="192" y="483"/>
      <point x="151" y="454"/>
      <point x="151" y="417" type="curve" smooth="yes"/>
      <point x="151" y="378"/>
      <point x="179" y="341"/>
      <point x="275" y="322" type="curve" smooth="yes"/>
      <point x="442" y="285"/>
      <point x="487" y="213"/>
      <point x="487" y="130" type="curve" smooth="yes"/>
      <point x="487" y="43"/>
      <point x="427" y="-42"/>
      <point x="266" y="-42" type="curve" smooth="yes"/>
      <point x="195" y="-42"/>
      <point x="128" y="-26"/>
      <point x="67" y="9" type="curve" smooth="yes"/>
      <point x="46" y="21"/>
      <point x="39" y="48"/>
      <point x="51" y="69" type="curve" smooth="yes"/>
      <point x="63" y="90"/>
      <point x="90" y="97"/>
      <point x="111" y="85" type="curve" smooth="yes"/>
      <point x="158" y="58"/>
      <point x="211" y="46"/>
      <point x="266" y="46" type="curve" smooth="yes"/>
      <point x="345" y="46"/>
      <point x="389" y="81"/>
      <point x="389" y="130" type="curve" smooth="yes"/>
      <point x="389" y="181"/>
      <point x="348" y="215"/>
      <point x="259" y="236" type="curve" smooth="yes"/>
      <point x="75" y="271"/>
      <point x="53" y="352"/>
      <point x="53" y="417" type="curve"/>
      <point x="53" y="492"/>
      <point x="120" y="571"/>
      <point x="245" y="571" type="curve" smooth="yes"/>
      <point x="326" y="571"/>
      <point x="364" y="558"/>
      <point x="419" y="536" type="curve" smooth="yes"/>
      <point x="441" y="527"/>
      <point x="453" y="501"/>
      <point x="444" y="479" type="curve" smooth="yes"/>
      <point x="435" y="457"/>
      <point x="409" y="445"/>
    </contour>
  </outline>
</glyph>
<glyph name="T" format="1">
  <advance width="553"/>
  <unicode hex="0054"/>
  <outline>
    <contour>
      <point x="324" y="520" type="curve" smooth="yes"/>
      <point x="324" y="11" type="line" smooth="yes"/>
      <point x="324" y="-13"/>
      <point x="299" y="-33"/>
      <point x="275" y="-33" type="curve" smooth="yes"/>
      <point x="251" y="-33"/>
      <point x="226" y="-13"/>
      <point x="226" y="11" type="curve" smooth="yes"/>
      <point x="226" y="520" type="line" smooth="yes"/>
      <point x="226" y="544"/>
      <point x="251" y="564"/>
      <point x="275" y="564" type="curve" smooth="yes"/>
      <point x="299" y="564"/>
      <point x="324" y="544"/>
    </contour>
    <contour>
      <point x="52" y="564" type="curve" smooth="yes"/>
      <point x="501" y="564" type="line" smooth="yes"/>
      <point x="525" y="564"/>
      <point x="545" y="544"/>
      <point x="545" y="520" type="curve" smooth="yes"/>
      <point x="545" y="496"/>
      <point x="525" y="476"/>
      <point x="501" y="476" type="curve" smooth="yes"/>
      <point x="52" y="476" type="line" smooth="yes"/>
      <point x="28" y="476"/>
      <point x="8" y="496"/>
      <point x="8" y="520" type="curve" smooth="yes"/>
      <point x="8" y="544"/>
      <point x="28" y="564"/>
    </contour>
  </outline>
</glyph>
<glyph name="U" format="1">
  <advance width="627"/>
  <unicode hex="0055"/>
  <outline>
    <contour>
      <point x="473" y="-22"/>
      <point x="569" y="60"/>
      <point x="569" y="219" type="curve" smooth="yes"/>
      <point x="569" y="507" type="line" smooth="yes"/>
      <point x="569" y="530"/>
      <point x="544" y="549"/>
      <point x="520" y="549" type="curve" smooth="yes"/>
      <point x="496" y="549"/>
      <point x="471" y="530"/>
      <point x="471" y="507" type="curve" smooth="yes"/>
      <point x="471" y="219" type="line" smooth="yes"/>
      <point x="471" y="120"/>
      <point x="417" y="62"/>
      <point x="311" y="62" type="curve" smooth="yes"/>
      <point x="216" y="62"/>
      <point x="156" y="120"/>
      <point x="156" y="216" type="curve" smooth="yes"/>
      <point x="156" y="507" type="line" smooth="yes"/>
      <point x="156" y="530"/>
      <point x="131" y="549"/>
      <point x="107" y="549" type="curve" smooth="yes"/>
      <point x="83" y="549"/>
      <point x="58" y="530"/>
      <point x="58" y="507" type="curve" smooth="yes"/>
      <point x="58" y="216" type="line"/>
      <point x="58" y="60"/>
      <point x="166" y="-22"/>
      <point x="311" y="-22" type="curve" smooth="yes"/>
    </contour>
    <contour>
      <point x="364" y="6" type="move" name="ogonek"/>
    </contour>
    <contour>
      <point x="309" y="531" type="move" name="top"/>
    </contour>
  </outline>
</glyph>
<glyph name="V" format="1">
  <advance width="594"/>
  <unicode hex="0056"/>
  <outline>
    <contour>
      <point x="299" y="-29"/>
      <point x="328" y="-22"/>
      <point x="339" y="-1" type="curve" smooth="yes"/>
      <point x="386" y="82"/>
      <point x="518" y="349"/>
      <point x="571" y="492" type="curve" smooth="yes"/>
      <point x="579" y="514"/>
      <point x="563" y="539"/>
      <point x="540" y="547" type="curve" smooth="yes"/>
      <point x="518" y="553"/>
      <point x="489" y="543"/>
      <point x="481" y="522" type="curve" smooth="yes"/>
      <point x="430" y="383"/>
      <point x="302" y="122"/>
      <point x="257" y="39" type="curve" smooth="yes"/>
      <point x="246" y="20"/>
      <point x="257" y="-7"/>
      <point x="278" y="-18" type="curve" smooth="yes"/>
    </contour>
    <contour>
      <point x="337" y="0"/>
      <point x="347" y="26"/>
      <point x="336" y="45" type="curve" smooth="yes"/>
      <point x="295" y="118"/>
      <point x="156" y="402"/>
      <point x="115" y="522" type="curve" smooth="yes"/>
      <point x="107" y="543"/>
      <point x="78" y="554"/>
      <point x="55" y="548" type="curve" smooth="yes"/>
      <point x="33" y="541"/>
      <point x="16" y="516"/>
      <point x="23" y="494" type="curve" smooth="yes"/>
      <point x="66" y="370"/>
      <point x="211" y="78"/>
      <point x="254" y="3" type="curve" smooth="yes"/>
      <point x="265" y="-16"/>
      <point x="295" y="-23"/>
      <point x="316" y="-12" type="curve" smooth="yes"/>
    </contour>
  </outline>
</glyph>
<glyph name="W" format="1">
  <advance width="922"/>
  <unicode hex="0057"/>
  <outline>
    <contour>
      <point x="133" y="532" type="curve" smooth="yes"/>
      <point x="167" y="404"/>
      <point x="269" y="105"/>
      <point x="305" y="28" type="curve" smooth="yes"/>
      <point x="316" y="7"/>
      <point x="303" y="-22"/>
      <point x="282" y="-32" type="curve" smooth="yes"/>
      <point x="260" y="-42"/>
      <point x="231" y="-34"/>
      <point x="221" y="-12" type="curve" smooth="yes"/>
      <point x="183" y="67"/>
      <point x="75" y="374"/>
      <point x="39" y="506" type="curve" smooth="yes"/>
      <point x="33" y="529"/>
      <point x="52" y="555"/>
      <point x="75" y="561" type="curve" smooth="yes"/>
      <point x="98" y="568"/>
      <point x="126" y="554"/>
    </contour>
    <contour>
      <point x="224" y="21" type="curve" smooth="yes"/>
      <point x="262" y="108"/>
      <point x="371" y="384"/>
      <point x="415" y="530" type="curve" smooth="yes"/>
      <point x="422" y="553"/>
      <point x="451" y="565"/>
      <point x="474" y="558" type="curve" smooth="yes"/>
      <point x="497" y="551"/>
      <point x="514" y="525"/>
      <point x="507" y="502" type="curve" smooth="yes"/>
      <point x="461" y="352"/>
      <point x="350" y="72"/>
      <point x="310" y="-17" type="curve" smooth="yes"/>
      <point x="301" y="-39"/>
      <point x="271" y="-48"/>
      <point x="249" y="-38" type="curve" smooth="yes"/>
      <point x="227" y="-29"/>
      <point x="214" y="-1"/>
    </contour>
    <contour>
      <point x="512" y="518" type="curve" smooth="yes"/>
      <point x="551" y="392"/>
      <point x="657" y="105"/>
      <point x="694" y="28" type="curve" smooth="yes"/>
      <point x="705" y="6"/>
      <point x="693" y="-22"/>
      <point x="671" y="-33" type="curve" smooth="yes"/>
      <point x="650" y="-43"/>
      <point x="620" y="-35"/>
      <point x="610" y="-14" type="curve" smooth="yes"/>
      <point x="571" y="65"/>
      <point x="461" y="360"/>
      <point x="420" y="490" type="curve" smooth="yes"/>
      <point x="413" y="512"/>
      <point x="430" y="539"/>
      <point x="453" y="546" type="curve" smooth="yes"/>
      <point x="476" y="553"/>
      <point x="505" y="541"/>
    </contour>
    <contour>
      <point x="613" y="20" type="curve" smooth="yes"/>
      <point x="651" y="107"/>
      <point x="748" y="384"/>
      <point x="791" y="532" type="curve" smooth="yes"/>
      <point x="797" y="555"/>
      <point x="826" y="568"/>
      <point x="849" y="561" type="curve" smooth="yes"/>
      <point x="872" y="555"/>
      <point x="890" y="529"/>
      <point x="883" y="506" type="curve" smooth="yes"/>
      <point x="840" y="354"/>
      <point x="739" y="71"/>
      <point x="699" y="-18" type="curve" smooth="yes"/>
      <point x="690" y="-40"/>
      <point x="660" y="-49"/>
      <point x="638" y="-39" type="curve" smooth="yes"/>
      <point x="616" y="-30"/>
      <point x="603" y="-2"/>
    </contour>
  </outline>
</glyph>
<glyph name="X" format="1">
  <advance width="571"/>
  <unicode hex="0058"/>
  <outline>
    <contour>
      <point x="538" y="7"/>
      <point x="544" y="34"/>
      <point x="530" y="53" type="curve" smooth="yes"/>
      <point x="469" y="135"/>
      <point x="232" y="393"/>
      <point x="131" y="532" type="curve" smooth="yes"/>
      <point x="117" y="551"/>
      <point x="88" y="554"/>
      <point x="68" y="541" type="curve" smooth="yes"/>
      <point x="49" y="529"/>
      <point x="42" y="502"/>
      <point x="55" y="483" type="curve" smooth="yes"/>
      <point x="156" y="345"/>
      <point x="393" y="87"/>
      <point x="456" y="3" type="curve" smooth="yes"/>
      <point x="469" y="-15"/>
      <point x="499" y="-19"/>
      <point x="518" y="-5" type="curve" smooth="yes"/>
    </contour>
    <contour>
      <point x="72" y="-18"/>
      <point x="102" y="-15"/>
      <point x="116" y="2" type="curve" smooth="yes"/>
      <point x="199" y="108"/>
      <point x="420" y="351"/>
      <point x="511" y="484" type="curve" smooth="yes"/>
      <point x="524" y="503"/>
      <point x="516" y="530"/>
      <point x="496" y="542" type="curve" smooth="yes"/>
      <point x="476" y="554"/>
      <point x="446" y="550"/>
      <point x="433" y="531" type="curve" smooth="yes"/>
      <point x="344" y="400"/>
      <point x="125" y="160"/>
      <point x="42" y="54" type="curve" smooth="yes"/>
      <point x="28" y="35"/>
      <point x="34" y="8"/>
      <point x="53" y="-4" type="curve" smooth="yes"/>
    </contour>
  </outline>
</glyph>
<glyph name="Y" format="1">
  <advance width="568"/>
  <unicode hex="0059"/>
  <outline>
    <contour>
      <point x="335" y="187" type="curve" smooth="yes"/>
      <point x="335" y="11" type="line" smooth="yes"/>
      <point x="335" y="-13"/>
      <point x="310" y="-33"/>
      <point x="286" y="-33" type="curve" smooth="yes"/>
      <point x="262" y="-33"/>
      <point x="237" y="-13"/>
      <point x="237" y="11" type="curve" smooth="yes"/>
      <point x="237" y="187" type="line" smooth="yes"/>
      <point x="237" y="211"/>
      <point x="262" y="231"/>
      <point x="286" y="231" type="curve" smooth="yes"/>
      <point x="310" y="231"/>
      <point x="335" y="211"/>
    </contour>
    <contour>
      <point x="108" y="544" type="curve" smooth="yes"/>
      <point x="151" y="472"/>
      <point x="275" y="287"/>
      <point x="320" y="227" type="curve" smooth="yes"/>
      <point x="334" y="208"/>
      <point x="328" y="179"/>
      <point x="309" y="165" type="curve" smooth="yes"/>
      <point x="290" y="151"/>
      <point x="261" y="154"/>
      <point x="246" y="173" type="curve" smooth="yes"/>
      <point x="201" y="233"/>
      <point x="73" y="422"/>
      <point x="28" y="496" type="curve" smooth="yes"/>
      <point x="16" y="516"/>
      <point x="25" y="545"/>
      <point x="45" y="558" type="curve" smooth="yes"/>
      <point x="66" y="570"/>
      <point x="95" y="564"/>
    </contour>
    <contour>
      <point x="250" y="221" type="curve" smooth="yes"/>
      <point x="301" y="290"/>
      <point x="418" y="473"/>
      <point x="460" y="544" type="curve" smooth="yes"/>
      <point x="472" y="564"/>
      <point x="502" y="570"/>
      <point x="523" y="558" type="curve" smooth="yes"/>
      <point x="543" y="546"/>
      <point x="552" y="517"/>
      <point x="540" y="496" type="curve" smooth="yes"/>
      <point x="496" y="423"/>
      <point x="375" y="236"/>
      <point x="322" y="167" type="curve" smooth="yes"/>
      <point x="308" y="148"/>
      <point x="278" y="145"/>
      <point x="260" y="159" type="curve" smooth="yes"/>
      <point x="241" y="173"/>
      <point x="235" y="202"/>
    </contour>
  </outline>
</glyph>
<glyph name="Z" format="1">
  <advance width="571"/>
  <unicode hex="005A"/>
  <outline>
    <contour>
      <point x="513" y="495" type="curve" smooth="yes"/>
      <point x="447" y="395"/>
      <point x="182" y="80"/>
      <point x="127" y="-6" type="curve" smooth="yes"/>
      <point x="114" y="-26"/>
      <point x="84" y="-31"/>
      <point x="64" y="-18" type="curve" smooth="yes"/>
      <point x="44" y="-5"/>
      <point x="36" y="24"/>
      <point x="49" y="44" type="curve" smooth="yes"/>
      <point x="104" y="130"/>
      <point x="371" y="445"/>
      <point x="437" y="545" type="curve" smooth="yes"/>
      <point x="450" y="565"/>
      <point x="479" y="570"/>
      <point x="499" y="557" type="curve" smooth="yes"/>
      <point x="519" y="544"/>
      <point x="527" y="514"/>
    </contour>
    <contour>
      <point x="97" y="564" type="curve" smooth="yes"/>
      <point x="464" y="564" type="line" smooth="yes"/>
      <point x="488" y="564"/>
      <point x="508" y="544"/>
      <point x="508" y="520" type="curve" smooth="yes"/>
      <point x="508" y="496"/>
      <point x="488" y="476"/>
      <point x="464" y="476" type="curve" smooth="yes"/>
      <point x="97" y="476" type="line" smooth="yes"/>
      <point x="73" y="476"/>
      <point x="53" y="496"/>
      <point x="53" y="520" type="curve" smooth="yes"/>
      <point x="53" y="544"/>
      <point x="73" y="564"/>
    </contour>
    <contour>
      <point x="83" y="55" type="curve" smooth="yes"/>
      <point x="488" y="55" type="line" smooth="yes"/>
      <point x="512" y="55"/>
      <point x="532" y="35"/>
      <point x="532" y="11" type="curve" smooth="yes"/>
      <point x="532" y="-13"/>
      <point x="512" y="-33"/>
      <point x="488" y="-33" type="curve" smooth="yes"/>
      <point x="83" y="-33" type="line" smooth="yes"/>
      <point x="59" y="-33"/>
      <point x="39" y="-13"/>
      <point x="39" y="11" type="curve" smooth="yes"/>
      <point x="39" y="35"/>
      <point x="59" y="55"/>
    </contour>
  </outline>
</glyph>
<glyph name="bracketleft" format="1">
  <advance width="332"/>
  <unicode hex="005B"/>
  <outline>
    <contour>
      <point x="235" y="576" type="curve" smooth="yes"/>
      <point x="93" y="576" type="line"/>
      <point x="142" y="620" type="line"/>
      <point x="142" y="-93" type="line"/>
      <point x="93" y="-49" type="line"/>
      <point x="235" y="-49" type="line" smooth="yes"/>
      <point x="259" y="-49"/>
      <point x="279" y="-69"/>
      <point x="279" y="-93" type="curve" smooth="yes"/>
      <point x="279" y="-117"/>
      <point x="259" y="-137"/>
      <point x="235" y="-137" type="curve" smooth="yes"/>
      <point x="93" y="-137" type="line" smooth="yes"/>
      <point x="66" y="-137"/>
      <point x="44" y="-117"/>
      <point x="44" y="-93" type="curve"/>
      <point x="44" y="620" type="line"/>
      <point x="44" y="644"/>
      <point x="66" y="664"/>
      <point x="93" y="664" type="curve" smooth="yes"/>
      <point x="235" y="664" type="line" smooth="yes"/>
      <point x="259" y="664"/>
      <point x="279" y="644"/>
      <point x="279" y="620" type="curve" smooth="yes"/>
      <point x="279" y="596"/>
      <point x="259" y="576"/>
    </contour>
  </outline>
</glyph>
<glyph name="backslash" format="1">
  <advance width="395"/>
  <unicode hex="005C"/>
  <outline>
    <contour>
      <point x="368" y="-83"/>
      <point x="384" y="-58"/>
      <point x="376" y="-36" type="curve" smooth="yes"/>
      <point x="115" y="635" type="line" smooth="yes"/>
      <point x="107" y="657"/>
      <point x="77" y="666"/>
      <point x="55" y="659" type="curve" smooth="yes"/>
      <point x="33" y="651"/>
      <point x="17" y="626"/>
      <point x="25" y="605" type="curve" smooth="yes"/>
      <point x="286" y="-66" type="line" smooth="yes"/>
      <point x="294" y="-89"/>
      <point x="324" y="-97"/>
      <point x="346" y="-91" type="curve" smooth="yes"/>
    </contour>
  </outline>
</glyph>
<glyph name="bracketright" format="1">
  <advance width="332"/>
  <unicode hex="005D"/>
  <outline>
    <contour>
      <point x="239" y="-103" type="line" smooth="yes"/>
      <point x="266" y="-103"/>
      <point x="288" y="-85"/>
      <point x="288" y="-62" type="curve" smooth="yes"/>
      <point x="288" y="609" type="line" smooth="yes"/>
      <point x="288" y="631"/>
      <point x="266" y="650"/>
      <point x="239" y="650" type="curve" smooth="yes"/>
      <point x="97" y="650" type="line" smooth="yes"/>
      <point x="73" y="650"/>
      <point x="53" y="631"/>
      <point x="53" y="609" type="curve" smooth="yes"/>
      <point x="53" y="586"/>
      <point x="73" y="567"/>
      <point x="97" y="567" type="curve" smooth="yes"/>
      <point x="239" y="567" type="line"/>
      <point x="190" y="609" type="line"/>
      <point x="190" y="-62" type="line"/>
      <point x="239" y="-21" type="line"/>
      <point x="97" y="-21" type="line" smooth="yes"/>
      <point x="73" y="-21"/>
      <point x="53" y="-39"/>
      <point x="53" y="-62" type="curve" smooth="yes"/>
      <point x="53" y="-85"/>
      <point x="73" y="-103"/>
      <point x="97" y="-103" type="curve" smooth="yes"/>
    </contour>
  </outline>
</glyph>
<glyph name="underscore" format="1">
  <advance width="500"/>
  <unicode hex="005F"/>
  <outline>
    <contour>
      <point x="32" y="-57" type="curve" smooth="yes"/>
      <point x="468" y="-57" type="line" smooth="yes"/>
      <point x="492" y="-57"/>
      <point x="512" y="-77"/>
      <point x="512" y="-101" type="curve" smooth="yes"/>
      <point x="512" y="-125"/>
      <point x="492" y="-145"/>
      <point x="468" y="-145" type="curve" smooth="yes"/>
      <point x="32" y="-145" type="line" smooth="yes"/>
      <point x="8" y="-145"/>
      <point x="-12" y="-125"/>
      <point x="-12" y="-101" type="curve" smooth="yes"/>
      <point x="-12" y="-77"/>
      <point x="8" y="-57"/>
    </contour>
  </outline>
</glyph>
<glyph name="a" format="1">
  <advance width="456"/>
  <unicode hex="0061"/>
  <outline>
    <contour>
      <point x="108" y="399" type="curve" smooth="yes"/>
      <point x="133" y="407"/>
      <point x="179" y="418"/>
      <point x="219" y="418" type="curve" smooth="yes"/>
      <point x="344" y="418"/>
      <point x="408" y="345"/>
      <point x="408" y="230" type="curve" smooth="yes"/>
      <point x="408" y="134" type="line" smooth="yes"/>
      <point x="408" y="92"/>
      <point x="413" y="66"/>
      <point x="432" y="45" type="curve" smooth="yes"/>
      <point x="448" y="27"/>
      <point x="445" y="-2"/>
      <point x="427" y="-18" type="curve" smooth="yes"/>
      <point x="410" y="-34"/>
      <point x="380" y="-33"/>
      <point x="364" y="-15" type="curve" smooth="yes"/>
      <point x="333" y="20"/>
      <point x="310" y="60"/>
      <point x="310" y="134" type="curve" smooth="yes"/>
      <point x="310" y="230" type="line" smooth="yes"/>
      <point x="310" y="285"/>
      <point x="286" y="330"/>
      <point x="219" y="330" type="curve" smooth="yes"/>
      <point x="189" y="330"/>
      <point x="153" y="321"/>
      <point x="134" y="315" type="curve" smooth="yes"/>
      <point x="112" y="308"/>
      <point x="86" y="321"/>
      <point x="79" y="344" type="curve" smooth="yes"/>
      <point x="72" y="366"/>
      <point x="85" y="392"/>
    </contour>
    <contour>
      <point x="357" y="174" type="curve" smooth="yes"/>
      <point x="322" y="175"/>
      <point x="291" y="177"/>
      <point x="261" y="177" type="curve" smooth="yes"/>
      <point x="200" y="177"/>
      <point x="158" y="164"/>
      <point x="132" y="139" type="curve" smooth="yes"/>
      <point x="120" y="127"/>
      <point x="121" y="112"/>
      <point x="121" y="99" type="curve" smooth="yes"/>
      <point x="121" y="80"/>
      <point x="138" y="58"/>
      <point x="174" y="58" type="curve" smooth="yes"/>
      <point x="237" y="58"/>
      <point x="282" y="87"/>
      <point x="322" y="141" type="curve" smooth="yes"/>
      <point x="336" y="160"/>
      <point x="366" y="164"/>
      <point x="385" y="149" type="curve" smooth="yes"/>
      <point x="404" y="135"/>
      <point x="410" y="106"/>
      <point x="396" y="87" type="curve" smooth="yes"/>
      <point x="336" y="5"/>
      <point x="265" y="-30"/>
      <point x="174" y="-30" type="curve" smooth="yes"/>
      <point x="60" y="-30"/>
      <point x="23" y="44"/>
      <point x="23" y="99" type="curve" smooth="yes"/>
      <point x="23" y="140"/>
      <point x="38" y="173"/>
      <point x="70" y="203" type="curve" smooth="yes"/>
      <point x="108" y="240"/>
      <point x="168" y="265"/>
      <point x="261" y="265" type="curve" smooth="yes"/>
      <point x="291" y="265"/>
      <point x="324" y="263"/>
      <point x="359" y="262" type="curve" smooth="yes"/>
      <point x="383" y="261"/>
      <point x="403" y="240"/>
      <point x="402" y="217" type="curve" smooth="yes"/>
      <point x="401" y="193"/>
      <point x="380" y="173"/>
    </contour>
  </outline>
</glyph>
<glyph name="b" format="1">
  <advance width="520"/>
  <unicode hex="0062"/>
  <outline>
    <contour>
      <point x="57" y="11" type="curve" smooth="yes"/>
      <point x="57" y="547" type="line" smooth="yes"/>
      <point x="57" y="571"/>
      <point x="82" y="591"/>
      <point x="106" y="591" type="curve" smooth="yes"/>
      <point x="130" y="591"/>
      <point x="155" y="571"/>
      <point x="155" y="547" type="curve" smooth="yes"/>
      <point x="155" y="11" type="line" smooth="yes"/>
      <point x="155" y="-13"/>
      <point x="130" y="-33"/>
      <point x="106" y="-33" type="curve" smooth="yes"/>
      <point x="82" y="-33"/>
      <point x="57" y="-13"/>
    </contour>
    <contour>
      <point x="127" y="90" type="curve" smooth="yes"/>
      <point x="171" y="66"/>
      <point x="217" y="54"/>
      <point x="271" y="54" type="curve" smooth="yes"/>
      <point x="347" y="54"/>
      <point x="395" y="111"/>
      <point x="395" y="189" type="curve" smooth="yes"/>
      <point x="395" y="264"/>
      <point x="351" y="325"/>
      <point x="285" y="325" type="curve" smooth="yes"/>
      <point x="232" y="325"/>
      <point x="183" y="282"/>
      <point x="146" y="223" type="curve" smooth="yes"/>
      <point x="134" y="203"/>
      <point x="104" y="198"/>
      <point x="84" y="211" type="curve" smooth="yes"/>
      <point x="64" y="223"/>
      <point x="55" y="252"/>
      <point x="68" y="273" type="curve" smooth="yes"/>
      <point x="125" y="364"/>
      <point x="208" y="413"/>
      <point x="285" y="413" type="curve" smooth="yes"/>
      <point x="395" y="413"/>
      <point x="493" y="330"/>
      <point x="493" y="189" type="curve" smooth="yes"/>
      <point x="493" y="49"/>
      <point x="397" y="-34"/>
      <point x="271" y="-34" type="curve" smooth="yes"/>
      <point x="201" y="-34"/>
      <point x="141" y="-18"/>
      <point x="85" y="12" type="curve" smooth="yes"/>
      <point x="64" y="23"/>
      <point x="56" y="51"/>
      <point x="67" y="72" type="curve" smooth="yes"/>
      <point x="79" y="93"/>
      <point x="106" y="101"/>
    </contour>
  </outline>
</glyph>
<glyph name="f" format="1">
  <advance width="314"/>
  <unicode hex="0066"/>
  <outline>
    <contour>
      <point x="276" y="529" type="curve" smooth="yes"/>
      <point x="204" y="525"/>
      <point x="180" y="495"/>
      <point x="180" y="445" type="curve" smooth="yes"/>
      <point x="180" y="10" type="line" smooth="yes"/>
      <point x="180" y="-14"/>
      <point x="155" y="-34"/>
      <point x="131" y="-34" type="curve" smooth="yes"/>
      <point x="107" y="-34"/>
      <point x="82" y="-14"/>
      <point x="82" y="10" type="curve" smooth="yes"/>
      <point x="82" y="445" type="line" smooth="yes"/>
      <point x="82" y="543"/>
      <point x="124" y="609"/>
      <point x="272" y="617" type="curve" smooth="yes"/>
      <point x="295" y="618"/>
      <point x="317" y="599"/>
      <point x="318" y="575" type="curve" smooth="yes"/>
      <point x="319" y="552"/>
      <point x="300" y="530"/>
    </contour>
    <contour>
      <point x="38" y="413" type="curve" smooth="yes"/>
      <point x="276" y="413" type="line" smooth="yes"/>
      <point x="300" y="413"/>
      <point x="320" y="393"/>
      <point x="320" y="369" type="curve" smooth="yes"/>
      <point x="320" y="345"/>
      <point x="300" y="325"/>
      <point x="276" y="325" type="curve" smooth="yes"/>
      <point x="38" y="325" type="line" smooth="yes"/>
      <point x="14" y="325"/>
      <point x="-6" y="345"/>
      <point x="-6" y="369" type="curve" smooth="yes"/>
      <point x="-6" y="393"/>
      <point x="14" y="413"/>
    </contour>
  </outline>
</glyph>
<glyph name="g" format="1">
  <advance width="518"/>
  <unicode hex="0067"/>
  <outline>
    <contour>
      <point x="369" y="-185"/>
      <point x="462" y="-82"/>
      <point x="462" y="81" type="curve" smooth="yes"/>
      <point x="462" y="374" type="line" smooth="yes"/>
      <point x="462" y="396"/>
      <point x="437" y="415"/>
      <point x="413" y="415" type="curve" smooth="yes"/>
      <point x="389" y="415"/>
      <point x="364" y="396"/>
      <point x="364" y="374" type="curve" smooth="yes"/>
      <point x="364" y="81" type="line" smooth="yes"/>
      <point x="364" y="-28"/>
      <point x="307" y="-101"/>
      <point x="170" y="-101" type="curve" smooth="yes"/>
      <point x="146" y="-101"/>
      <point x="126" y="-121"/>
      <point x="126" y="-143" type="curve" smooth="yes"/>
      <point x="126" y="-165"/>
      <point x="146" y="-185"/>
      <point x="170" y="-185" type="curve" smooth="yes"/>
    </contour>
    <contour>
      <point x="309" y="6"/>
      <point x="394" y="46"/>
      <point x="451" y="130" type="curve" smooth="yes"/>
      <point x="464" y="149"/>
      <point x="456" y="176"/>
      <point x="436" y="189" type="curve" smooth="yes"/>
      <point x="416" y="200"/>
      <point x="386" y="196"/>
      <point x="373" y="177" type="curve" smooth="yes"/>
      <point x="336" y="122"/>
      <point x="283" y="90"/>
      <point x="227" y="90" type="curve" smooth="yes"/>
      <point x="173" y="90"/>
      <point x="127" y="127"/>
      <point x="127" y="196" type="curve"/>
      <point x="127" y="276"/>
      <point x="191" y="332"/>
      <point x="263" y="332" type="curve" smooth="yes"/>
      <point x="314" y="332"/>
      <point x="346" y="321"/>
      <point x="394" y="299" type="curve" smooth="yes"/>
      <point x="416" y="290"/>
      <point x="443" y="299"/>
      <point x="453" y="319" type="curve" smooth="yes"/>
      <point x="463" y="340"/>
      <point x="453" y="365"/>
      <point x="432" y="375" type="curve" smooth="yes"/>
      <point x="370" y="402"/>
      <point x="328" y="415"/>
      <point x="263" y="415" type="curve" smooth="yes"/>
      <point x="147" y="415"/>
      <point x="29" y="334"/>
      <point x="29" y="196" type="curve" smooth="yes"/>
      <point x="29" y="59"/>
      <point x="131" y="6"/>
      <point x="227" y="6" type="curve" smooth="yes"/>
    </contour>
    <contour>
      <point x="260" y="417" type="move" name="top"/>
    </contour>
  </outline>
</glyph>
<glyph name="h" format="1">
  <advance width="502"/>
  <unicode hex="0068"/>
  <outline>
    <contour>
      <point x="431" y="-14"/>
      <point x="456" y="4"/>
      <point x="456" y="28" type="curve" smooth="yes"/>
      <point x="456" y="225" type="line" smooth="yes"/>
      <point x="456" y="372"/>
      <point x="376" y="407"/>
      <point x="289" y="407" type="curve" smooth="yes"/>
      <point x="212" y="407"/>
      <point x="137" y="365"/>
      <point x="78" y="310" type="curve" smooth="yes"/>
      <point x="61" y="293"/>
      <point x="62" y="266"/>
      <point x="79" y="251" type="curve" smooth="yes"/>
      <point x="96" y="234"/>
      <point x="125" y="233"/>
      <point x="142" y="250" type="curve" smooth="yes"/>
      <point x="183" y="288"/>
      <point x="234" y="324"/>
      <point x="289" y="324" type="curve" smooth="yes"/>
      <point x="336" y="324"/>
      <point x="358" y="285"/>
      <point x="358" y="225" type="curve" smooth="yes"/>
      <point x="358" y="28" type="line" smooth="yes"/>
      <point x="358" y="4"/>
      <point x="383" y="-14"/>
      <point x="407" y="-14" type="curve" smooth="yes"/>
    </contour>
    <contour>
      <point x="130" y="-14"/>
      <point x="155" y="4"/>
      <point x="155" y="28" type="curve" smooth="yes"/>
      <point x="155" y="533" type="line" smooth="yes"/>
      <point x="155" y="555"/>
      <point x="130" y="574"/>
      <point x="106" y="574" type="curve" smooth="yes"/>
      <point x="82" y="574"/>
      <point x="57" y="555"/>
      <point x="57" y="533" type="curve" smooth="yes"/>
      <point x="57" y="28" type="line" smooth="yes"/>
      <point x="57" y="4"/>
      <point x="82" y="-14"/>
      <point x="106" y="-14" type="curve" smooth="yes"/>
    </contour>
  </outline>
</glyph>
<glyph name="j" format="1">
  <advance width="224"/>
  <unicode hex="006A"/>
  <outline>
    <contour>
      <point x="102" y="-131"/>
      <point x="161" y="-74"/>
      <point x="161" y="49" type="curve" smooth="yes"/>
      <point x="161" y="368" type="line" smooth="yes"/>
      <point x="161" y="390"/>
      <point x="136" y="410"/>
      <point x="112" y="410" type="curve" smooth="yes"/>
      <point x="88" y="410"/>
      <point x="63" y="390"/>
      <point x="63" y="368" type="curve" smooth="yes"/>
      <point x="63" y="49" type="line" smooth="yes"/>
      <point x="63" y="-24"/>
      <point x="38" y="-65"/>
      <point x="-20" y="-88" type="curve" smooth="yes"/>
      <point x="-42" y="-95"/>
      <point x="-54" y="-121"/>
      <point x="-45" y="-141" type="curve" smooth="yes"/>
      <point x="-36" y="-161"/>
      <point x="-10" y="-173"/>
      <point x="12" y="-164" type="curve" smooth="yes"/>
    </contour>
    <contour>
      <point x="143" y="483"/>
      <point x="180" y="503"/>
      <point x="180" y="548" type="curve" smooth="yes"/>
      <point x="180" y="595"/>
      <point x="143" y="616"/>
      <point x="112" y="616" type="curve" smooth="yes"/>
      <point x="79" y="616"/>
      <point x="44" y="595"/>
      <point x="44" y="548" type="curve" smooth="yes"/>
      <point x="44" y="505"/>
      <point x="77" y="483"/>
      <point x="113" y="483" type="curve" smooth="yes"/>
    </contour>
  </outline>
</glyph>
<glyph name="k" format="1">
  <advance width="472"/>
  <unicode hex="006B"/>
  <outline>
    <contour>
      <point x="57" y="10" type="curve" smooth="yes"/>
      <point x="57" y="547" type="line" smooth="yes"/>
      <point x="57" y="571"/>
      <point x="82" y="591"/>
      <point x="106" y="591" type="curve" smooth="yes"/>
      <point x="130" y="591"/>
      <point x="155" y="571"/>
      <point x="155" y="547" type="curve" smooth="yes"/>
      <point x="155" y="10" type="line" smooth="yes"/>
      <point x="155" y="-14"/>
      <point x="130" y="-34"/>
      <point x="106" y="-34" type="curve" smooth="yes"/>
      <point x="82" y="-34"/>
      <point x="57" y="-14"/>
    </contour>
    <contour>
      <point x="273" y="275" type="curve" smooth="yes"/>
      <point x="442" y="37" type="line" smooth="yes"/>
      <point x="456" y="17"/>
      <point x="450" y="-12"/>
      <point x="430" y="-26" type="curve" smooth="yes"/>
      <point x="411" y="-40"/>
      <point x="381" y="-36"/>
      <point x="368" y="-17" type="curve" smooth="yes"/>
      <point x="199" y="221" type="line" smooth="yes"/>
      <point x="185" y="241"/>
      <point x="191" y="270"/>
      <point x="211" y="284" type="curve" smooth="yes"/>
      <point x="230" y="298"/>
      <point x="260" y="294"/>
    </contour>
    <contour>
      <point x="418" y="334" type="curve" smooth="yes"/>
      <point x="135" y="112" type="line" smooth="yes"/>
      <point x="117" y="97"/>
      <point x="88" y="101"/>
      <point x="73" y="120" type="curve" smooth="yes"/>
      <point x="59" y="139"/>
      <point x="62" y="167"/>
      <point x="81" y="182" type="curve" smooth="yes"/>
      <point x="364" y="404" type="line" smooth="yes"/>
      <point x="382" y="419"/>
      <point x="411" y="415"/>
      <point x="426" y="396" type="curve" smooth="yes"/>
      <point x="440" y="377"/>
      <point x="437" y="349"/>
    </contour>
  </outline>
</glyph>
<glyph name="l" format="1">
  <advance width="224"/>
  <unicode hex="006C"/>
  <outline>
    <contour>
      <point x="136" y="-14"/>
      <point x="161" y="4"/>
      <point x="161" y="28" type="curve" smooth="yes"/>
      <point x="161" y="533" type="line" smooth="yes"/>
      <point x="161" y="555"/>
      <point x="136" y="574"/>
      <point x="112" y="574" type="curve" smooth="yes"/>
      <point x="88" y="574"/>
      <point x="63" y="555"/>
      <point x="63" y="533" type="curve" smooth="yes"/>
      <point x="63" y="28" type="line" smooth="yes"/>
      <point x="63" y="4"/>
      <point x="88" y="-14"/>
      <point x="112" y="-14" type="curve" smooth="yes"/>
    </contour>
    <contour>
      <point x="111" y="572" type="move" name="top"/>
    </contour>
    <contour>
      <point x="110" y="-15" type="move" name="bottom"/>
    </contour>
  </outline>
</glyph>
<glyph name="m" format="1">
  <advance width="770"/>
  <unicode hex="006D"/>
  <outline>
    <contour>
      <point x="699" y="8"/>
      <point x="724" y="28"/>
      <point x="724" y="50" type="curve" smooth="yes"/>
      <point x="724" y="258" type="line" smooth="yes"/>
      <point x="724" y="403"/>
      <point x="644" y="430"/>
      <point x="560" y="430" type="curve" smooth="yes"/>
      <point x="489" y="430"/>
      <point x="414" y="388"/>
      <point x="358" y="328" type="curve" smooth="yes"/>
      <point x="342" y="313"/>
      <point x="344" y="285"/>
      <point x="361" y="269" type="curve" smooth="yes"/>
      <point x="379" y="254"/>
      <point x="409" y="255"/>
      <point x="424" y="272" type="curve" smooth="yes"/>
      <point x="462" y="311"/>
      <point x="511" y="348"/>
      <point x="560" y="348" type="curve" smooth="yes"/>
      <point x="604" y="348"/>
      <point x="626" y="316"/>
      <point x="626" y="258" type="curve" smooth="yes"/>
      <point x="626" y="50" type="line" smooth="yes"/>
      <point x="626" y="28"/>
      <point x="651" y="8"/>
      <point x="675" y="8" type="curve" smooth="yes"/>
    </contour>
    <contour>
      <point x="130" y="8"/>
      <point x="155" y="28"/>
      <point x="155" y="50" type="curve" smooth="yes"/>
      <point x="155" y="389" type="line" smooth="yes"/>
      <point x="155" y="411"/>
      <point x="130" y="430"/>
      <point x="106" y="430" type="curve" smooth="yes"/>
      <point x="82" y="430"/>
      <point x="57" y="411"/>
      <point x="57" y="389" type="curve" smooth="yes"/>
      <point x="57" y="50" type="line" smooth="yes"/>
      <point x="57" y="28"/>
      <point x="82" y="8"/>
      <point x="106" y="8" type="curve" smooth="yes"/>
    </contour>
    <contour>
      <point x="415" y="8"/>
      <point x="440" y="28"/>
      <point x="440" y="50" type="curve" smooth="yes"/>
      <point x="440" y="258" type="line" smooth="yes"/>
      <point x="440" y="403"/>
      <point x="361" y="430"/>
      <point x="277" y="430" type="curve" smooth="yes"/>
      <point x="206" y="430"/>
      <point x="129" y="387"/>
      <point x="74" y="328" type="curve" smooth="yes"/>
      <point x="58" y="312"/>
      <point x="61" y="285"/>
      <point x="79" y="269" type="curve" smooth="yes"/>
      <point x="97" y="254"/>
      <point x="126" y="255"/>
      <point x="142" y="272" type="curve" smooth="yes"/>
      <point x="179" y="312"/>
      <point x="228" y="348"/>
      <point x="277" y="348" type="curve" smooth="yes"/>
      <point x="321" y="348"/>
      <point x="342" y="316"/>
      <point x="342" y="258" type="curve" smooth="yes"/>
      <point x="342" y="50" type="line" smooth="yes"/>
      <point x="342" y="28"/>
      <point x="367" y="8"/>
      <point x="391" y="8" type="curve" smooth="yes"/>
    </contour>
  </outline>
</glyph>
<glyph name="o" format="1">
  <advance width="515"/>
  <unicode hex="006F"/>
  <outline>
    <contour>
      <point x="399" y="-14"/>
      <point x="491" y="75"/>
      <point x="491" y="196" type="curve" smooth="yes"/>
      <point x="491" y="320"/>
      <point x="398" y="415"/>
      <point x="259" y="415" type="curve" smooth="yes"/>
      <point x="119" y="415"/>
      <point x="28" y="319"/>
      <point x="28" y="197" type="curve" smooth="yes"/>
      <point x="28" y="76"/>
      <point x="121" y="-14"/>
      <point x="259" y="-14" type="curve" smooth="yes"/>
    </contour>
    <contour>
      <point x="175" y="68"/>
      <point x="126" y="128"/>
      <point x="126" y="197" type="curve"/>
      <point x="126" y="268"/>
      <point x="173" y="332"/>
      <point x="259" y="332" type="curve" smooth="yes"/>
      <point x="346" y="332"/>
      <point x="393" y="267"/>
      <point x="393" y="196" type="curve" smooth="yes"/>
      <point x="393" y="127"/>
      <point x="343" y="68"/>
      <point x="259" y="68" type="curve" smooth="yes"/>
    </contour>
    <contour>
      <point x="258" y="416" type="move" name="top"/>
    </contour>
    <contour>
      <point x="261" y="-12" type="move" name="bottom"/>
    </contour>
  </outline>
</glyph>
<glyph name="p" format="1">
  <advance width="518"/>
  <unicode hex="0070"/>
  <outline>
    <contour>
      <point x="396" y="-5"/>
      <point x="491" y="82"/>
      <point x="491" y="205" type="curve" smooth="yes"/>
      <point x="491" y="348"/>
      <point x="387" y="415"/>
      <point x="281" y="415" type="curve" smooth="yes"/>
      <point x="200" y="415"/>
      <point x="127" y="370"/>
      <point x="69" y="293" type="curve" smooth="yes"/>
      <point x="56" y="275"/>
      <point x="62" y="248"/>
      <point x="82" y="234" type="curve" smooth="yes"/>
      <point x="101" y="222"/>
      <point x="131" y="225"/>
      <point x="145" y="244" type="curve" smooth="yes"/>
      <point x="181" y="293"/>
      <point x="226" y="332"/>
      <point x="281" y="332" type="curve" smooth="yes"/>
      <point x="345" y="332"/>
      <point x="393" y="282"/>
      <point x="393" y="205" type="curve" smooth="yes"/>
      <point x="393" y="136"/>
      <point x="346" y="77"/>
      <point x="268" y="77" type="curve" smooth="yes"/>
      <point x="221" y="77"/>
      <point x="174" y="100"/>
      <point x="134" y="131" type="curve" smooth="yes"/>
      <point x="116" y="146"/>
      <point x="87" y="142"/>
      <point x="72" y="126" type="curve" smooth="yes"/>
      <point x="57" y="107"/>
      <point x="59" y="80"/>
      <point x="78" y="66" type="curve" smooth="yes"/>
      <point x="134" y="24"/>
      <point x="203" y="-5"/>
      <point x="268" y="-5" type="curve" smooth="yes"/>
    </contour>
    <contour>
      <point x="130" y="-193"/>
      <point x="155" y="-175"/>
      <point x="155" y="-153" type="curve" smooth="yes"/>
      <point x="155" y="374" type="line" smooth="yes"/>
      <point x="155" y="396"/>
      <point x="130" y="415"/>
      <point x="106" y="415" type="curve" smooth="yes"/>
      <point x="82" y="415"/>
      <point x="57" y="396"/>
      <point x="57" y="374" type="curve" smooth="yes"/>
      <point x="57" y="-153" type="line" smooth="yes"/>
      <point x="57" y="-175"/>
      <point x="82" y="-193"/>
      <point x="106" y="-193" type="curve" smooth="yes"/>
    </contour>
  </outline>
</glyph>
<glyph name="q" format="1">
  <advance width="520"/>
  <unicode hex="0071"/>
  <outline>
    <contour>
      <point x="464" y="378" type="curve" smooth="yes"/>
      <point x="464" y="-181" type="line" smooth="yes"/>
      <point x="464" y="-205"/>
      <point x="439" y="-225"/>
      <point x="415" y="-225" type="curve" smooth="yes"/>
      <point x="391" y="-225"/>
      <point x="366" y="-205"/>
      <point x="366" y="-181" type="curve" smooth="yes"/>
      <point x="366" y="378" type="line" smooth="yes"/>
      <point x="366" y="402"/>
      <point x="391" y="422"/>
      <point x="415" y="422" type="curve" smooth="yes"/>
      <point x="439" y="422"/>
      <point x="464" y="402"/>
    </contour>
    <contour>
      <point x="391" y="298" type="curve" smooth="yes"/>
      <point x="355" y="321"/>
      <point x="314" y="334"/>
      <point x="264" y="334" type="curve" smooth="yes"/>
      <point x="187" y="334"/>
      <point x="127" y="273"/>
      <point x="127" y="183" type="curve"/>
      <point x="127" y="113"/>
      <point x="174" y="63"/>
      <point x="233" y="63" type="curve" smooth="yes"/>
      <point x="287" y="63"/>
      <point x="337" y="97"/>
      <point x="375" y="157" type="curve" smooth="yes"/>
      <point x="387" y="178"/>
      <point x="417" y="183"/>
      <point x="437" y="170" type="curve" smooth="yes"/>
      <point x="457" y="158"/>
      <point x="466" y="129"/>
      <point x="453" y="109" type="curve" smooth="yes"/>
      <point x="395" y="15"/>
      <point x="313" y="-25"/>
      <point x="233" y="-25" type="curve" smooth="yes"/>
      <point x="132" y="-25"/>
      <point x="29" y="47"/>
      <point x="29" y="183" type="curve" smooth="yes"/>
      <point x="29" y="337"/>
      <point x="141" y="422"/>
      <point x="264" y="422" type="curve" smooth="yes"/>
      <point x="334" y="422"/>
      <point x="389" y="405"/>
      <point x="439" y="372" type="curve" smooth="yes"/>
      <point x="459" y="359"/>
      <point x="465" y="331"/>
      <point x="452" y="311" type="curve" smooth="yes"/>
      <point x="439" y="291"/>
      <point x="411" y="285"/>
    </contour>
  </outline>
</glyph>
<glyph name="t" format="1">
  <advance width="352"/>
  <unicode hex="0074"/>
  <outline>
    <contour>
      <point x="306" y="-13"/>
      <point x="327" y="4"/>
      <point x="327" y="28" type="curve" smooth="yes"/>
      <point x="327" y="50"/>
      <point x="308" y="69"/>
      <point x="284" y="69" type="curve" smooth="yes"/>
      <point x="216" y="70"/>
      <point x="180" y="95"/>
      <point x="180" y="144" type="curve" smooth="yes"/>
      <point x="180" y="491" type="line" smooth="yes"/>
      <point x="180" y="514"/>
      <point x="155" y="533"/>
      <point x="131" y="533" type="curve" smooth="yes"/>
      <point x="107" y="533"/>
      <point x="82" y="514"/>
      <point x="82" y="491" type="curve" smooth="yes"/>
      <point x="82" y="144" type="line" smooth="yes"/>
      <point x="82" y="47"/>
      <point x="138" y="-10"/>
      <point x="282" y="-13" type="curve" smooth="yes"/>
    </contour>
    <contour>
      <point x="297" y="325" type="line" smooth="yes"/>
      <point x="321" y="325"/>
      <point x="341" y="344"/>
      <point x="341" y="366" type="curve" smooth="yes"/>
      <point x="341" y="389"/>
      <point x="321" y="408"/>
      <point x="297" y="408" type="curve" smooth="yes"/>
      <point x="38" y="408" type="line" smooth="yes"/>
      <point x="14" y="408"/>
      <point x="-6" y="389"/>
      <point x="-6" y="366" type="curve" smooth="yes"/>
      <point x="-6" y="344"/>
      <point x="14" y="325"/>
      <point x="38" y="325" type="curve" smooth="yes"/>
    </contour>
    <contour>
      <point x="169" y="-13" type="move" name="bottom"/>
    </contour>
  </outline>
</glyph>
<glyph name="u" format="1">
  <advance width="502"/>
  <unicode hex="0075"/>
  <outline>
    <contour>
      <point x="291" y="-10"/>
      <point x="376" y="43"/>
      <point x="429" y="112" type="curve" smooth="yes"/>
      <point x="443" y="131"/>
      <point x="437" y="159"/>
      <point x="418" y="171" type="curve" smooth="yes"/>
      <point x="398" y="185"/>
      <point x="369" y="181"/>
      <point x="355" y="163" type="curve" smooth="yes"/>
      <point x="320" y="117"/>
      <point x="267" y="72"/>
      <point x="213" y="72" type="curve" smooth="yes"/>
      <point x="165" y="72"/>
      <point x="144" y="111"/>
      <point x="144" y="172" type="curve" smooth="yes"/>
      <point x="144" y="370" type="line" smooth="yes"/>
      <point x="144" y="392"/>
      <point x="119" y="411"/>
      <point x="95" y="411" type="curve" smooth="yes"/>
      <point x="71" y="411"/>
      <point x="46" y="392"/>
      <point x="46" y="370" type="curve" smooth="yes"/>
      <point x="46" y="172" type="line"/>
      <point x="46" y="25"/>
      <point x="125" y="-10"/>
      <point x="213" y="-10" type="curve" smooth="yes"/>
    </contour>
    <contour>
      <point x="420" y="-10"/>
      <point x="445" y="8"/>
      <point x="445" y="32" type="curve" smooth="yes"/>
      <point x="445" y="370" type="line" smooth="yes"/>
      <point x="445" y="392"/>
      <point x="420" y="411"/>
      <point x="396" y="411" type="curve" smooth="yes"/>
      <point x="372" y="411"/>
      <point x="347" y="392"/>
      <point x="347" y="370" type="curve" smooth="yes"/>
      <point x="347" y="32" type="line" smooth="yes"/>
      <point x="347" y="8"/>
      <point x="372" y="-10"/>
      <point x="396" y="-10" type="curve" smooth="yes"/>
    </contour>
    <contour>
      <point x="402" y="44" type="move" name="ogonek"/>
    </contour>
    <contour>
      <point x="243" y="406" type="move" name="top"/>
    </contour>
  </outline>
</glyph>
<glyph name="w" format="1">
  <advance width="714"/>
  <unicode hex="0077"/>
  <outline>
    <contour>
      <point x="516" y="-14" type="line" smooth="yes"/>
      <point x="534" y="-14"/>
      <point x="553" y="-3"/>
      <point x="559" y="9" type="curve" smooth="yes"/>
      <point x="601" y="97"/>
      <point x="660" y="235"/>
      <point x="695" y="356" type="curve" smooth="yes"/>
      <point x="701" y="378"/>
      <point x="682" y="402"/>
      <point x="659" y="408" type="curve" smooth="yes"/>
      <point x="637" y="414"/>
      <point x="608" y="401"/>
      <point x="601" y="380" type="curve" smooth="yes"/>
      <point x="568" y="263"/>
      <point x="513" y="130"/>
      <point x="473" y="45" type="curve"/>
      <point x="516" y="68" type="line"/>
      <point x="514" y="68" type="line"/>
      <point x="555" y="48" type="line"/>
      <point x="508" y="131"/>
      <point x="454" y="244"/>
      <point x="406" y="374" type="curve" smooth="yes"/>
      <point x="398" y="394"/>
      <point x="369" y="405"/>
      <point x="346" y="398" type="curve" smooth="yes"/>
      <point x="324" y="390"/>
      <point x="308" y="365"/>
      <point x="316" y="344" type="curve" smooth="yes"/>
      <point x="366" y="210"/>
      <point x="424" y="95"/>
      <point x="473" y="6" type="curve" smooth="yes"/>
      <point x="479" y="-4"/>
      <point x="498" y="-14"/>
      <point x="514" y="-14" type="curve" smooth="yes"/>
    </contour>
    <contour>
      <point x="201" y="-13" type="line" smooth="yes"/>
      <point x="218" y="-13"/>
      <point x="237" y="-3"/>
      <point x="243" y="8" type="curve" smooth="yes"/>
      <point x="289" y="97"/>
      <point x="363" y="236"/>
      <point x="399" y="346" type="curve" smooth="yes"/>
      <point x="406" y="367"/>
      <point x="389" y="391"/>
      <point x="366" y="398" type="curve" smooth="yes"/>
      <point x="343" y="405"/>
      <point x="314" y="393"/>
      <point x="307" y="372" type="curve" smooth="yes"/>
      <point x="273" y="266"/>
      <point x="203" y="131"/>
      <point x="159" y="48" type="curve"/>
      <point x="201" y="69" type="line"/>
      <point x="199" y="69" type="line"/>
      <point x="242" y="47" type="line"/>
      <point x="199" y="131"/>
      <point x="152" y="253"/>
      <point x="113" y="381" type="curve" smooth="yes"/>
      <point x="107" y="403"/>
      <point x="78" y="415"/>
      <point x="55" y="409" type="curve" smooth="yes"/>
      <point x="32" y="403"/>
      <point x="14" y="379"/>
      <point x="21" y="357" type="curve" smooth="yes"/>
      <point x="60" y="222"/>
      <point x="113" y="97"/>
      <point x="156" y="9" type="curve" smooth="yes"/>
      <point x="163" y="-2"/>
      <point x="182" y="-13"/>
      <point x="199" y="-13" type="curve" smooth="yes"/>
    </contour>
    <contour>
      <point x="356" y="400" type="move" name="top"/>
    </contour>
  </outline>
</glyph>
<glyph name="x" format="1">
  <advance width="449"/>
  <unicode hex="0078"/>
  <outline>
    <contour>
      <point x="22" y="44" type="curve" smooth="yes"/>
      <point x="90" y="121"/>
      <point x="255" y="300"/>
      <point x="336" y="402" type="curve" smooth="yes"/>
      <point x="351" y="421"/>
      <point x="381" y="423"/>
      <point x="399" y="408" type="curve" smooth="yes"/>
      <point x="418" y="394"/>
      <point x="422" y="364"/>
      <point x="408" y="346" type="curve" smooth="yes"/>
      <point x="325" y="242"/>
      <point x="158" y="63"/>
      <point x="90" y="-16" type="curve" smooth="yes"/>
      <point x="74" y="-34"/>
      <point x="45" y="-35"/>
      <point x="27" y="-19" type="curve" smooth="yes"/>
      <point x="9" y="-4"/>
      <point x="6" y="26"/>
    </contour>
    <contour>
      <point x="105" y="403" type="curve" smooth="yes"/>
      <point x="187" y="306"/>
      <point x="333" y="152"/>
      <point x="427" y="44" type="curve" smooth="yes"/>
      <point x="443" y="26"/>
      <point x="440" y="-4"/>
      <point x="422" y="-19" type="curve" smooth="yes"/>
      <point x="404" y="-35"/>
      <point x="374" y="-34"/>
      <point x="359" y="-16" type="curve" smooth="yes"/>
      <point x="265" y="94"/>
      <point x="117" y="248"/>
      <point x="35" y="345" type="curve" smooth="yes"/>
      <point x="20" y="363"/>
      <point x="23" y="392"/>
      <point x="42" y="408" type="curve" smooth="yes"/>
      <point x="60" y="423"/>
      <point x="89" y="421"/>
    </contour>
  </outline>
</glyph>
<glyph name="y" format="1">
  <advance width="453"/>
  <unicode hex="0079"/>
  <outline>
    <contour>
      <point x="150" y="-133"/>
      <point x="217" y="-89"/>
      <point x="281" y="14" type="curve" smooth="yes"/>
      <point x="338" y="105"/>
      <point x="405" y="246"/>
      <point x="441" y="360" type="curve" smooth="yes"/>
      <point x="448" y="382"/>
      <point x="430" y="408"/>
      <point x="407" y="413" type="curve" smooth="yes"/>
      <point x="385" y="420"/>
      <point x="356" y="408"/>
      <point x="349" y="387" type="curve" smooth="yes"/>
      <point x="315" y="278"/>
      <point x="256" y="145"/>
      <point x="201" y="60" type="curve" smooth="yes"/>
      <point x="147" y="-27"/>
      <point x="94" y="-67"/>
      <point x="34" y="-100" type="curve" smooth="yes"/>
      <point x="13" y="-112"/>
      <point x="6" y="-137"/>
      <point x="18" y="-157" type="curve" smooth="yes"/>
      <point x="30" y="-177"/>
      <point x="57" y="-184"/>
      <point x="78" y="-172" type="curve" smooth="yes"/>
    </contour>
    <contour>
      <point x="282" y="14"/>
      <point x="290" y="41"/>
      <point x="277" y="61" type="curve" smooth="yes"/>
      <point x="224" y="136"/>
      <point x="158" y="242"/>
      <point x="103" y="390" type="curve" smooth="yes"/>
      <point x="95" y="410"/>
      <point x="66" y="421"/>
      <point x="43" y="413" type="curve" smooth="yes"/>
      <point x="21" y="407"/>
      <point x="5" y="380"/>
      <point x="13" y="359" type="curve" smooth="yes"/>
      <point x="72" y="204"/>
      <point x="144" y="94"/>
      <point x="199" y="13" type="curve" smooth="yes"/>
      <point x="212" y="-5"/>
      <point x="242" y="-10"/>
      <point x="262" y="2" type="curve" smooth="yes"/>
    </contour>
    <contour>
      <point x="229" y="385" type="move" name="top"/>
    </contour>
  </outline>
</glyph>
<glyph name="z" format="1">
  <advance width="446"/>
  <unicode hex="007A"/>
  <outline>
    <contour>
      <point x="363" y="330" type="curve" smooth="yes"/>
      <point x="80" y="330" type="line" smooth="yes"/>
      <point x="56" y="330"/>
      <point x="36" y="350"/>
      <point x="36" y="374" type="curve" smooth="yes"/>
      <point x="36" y="398"/>
      <point x="56" y="418"/>
      <point x="80" y="418" type="curve" smooth="yes"/>
      <point x="363" y="418" type="line" smooth="yes"/>
      <point x="387" y="418"/>
      <point x="407" y="398"/>
      <point x="407" y="374" type="curve" smooth="yes"/>
      <point x="407" y="350"/>
      <point x="387" y="330"/>
    </contour>
    <contour>
      <point x="65" y="58" type="curve" smooth="yes"/>
      <point x="381" y="58" type="line" smooth="yes"/>
      <point x="405" y="58"/>
      <point x="425" y="38"/>
      <point x="425" y="14" type="curve" smooth="yes"/>
      <point x="425" y="-10"/>
      <point x="405" y="-30"/>
      <point x="381" y="-30" type="curve" smooth="yes"/>
      <point x="65" y="-30" type="line" smooth="yes"/>
      <point x="41" y="-30"/>
      <point x="21" y="-10"/>
      <point x="21" y="14" type="curve" smooth="yes"/>
      <point x="21" y="38"/>
      <point x="41" y="58"/>
    </contour>
    <contour>
      <point x="404" y="345" type="curve" smooth="yes"/>
      <point x="106" y="-6" type="line" smooth="yes"/>
      <point x="90" y="-24"/>
      <point x="61" y="-26"/>
      <point x="43" y="-11" type="curve" smooth="yes"/>
      <point x="24" y="5"/>
      <point x="21" y="34"/>
      <point x="36" y="52" type="curve" smooth="yes"/>
      <point x="334" y="403" type="line" smooth="yes"/>
      <point x="350" y="421"/>
      <point x="379" y="423"/>
      <point x="397" y="408" type="curve" smooth="yes"/>
      <point x="416" y="392"/>
      <point x="419" y="363"/>
    </contour>
  </outline>
</glyph>
<glyph name="bar" format="1">
  <advance width="295"/>
  <unicode hex="007C"/>
  <outline>
    <contour>
      <point x="172" y="-113"/>
      <point x="197" y="-94"/>
      <point x="197" y="-71" type="curve" smooth="yes"/>
      <point x="197" y="602" type="line" smooth="yes"/>
      <point x="197" y="625"/>
      <point x="172" y="644"/>
      <point x="148" y="644" type="curve" smooth="yes"/>
      <point x="124" y="644"/>
      <point x="99" y="625"/>
      <point x="99" y="602" type="curve" smooth="yes"/>
      <point x="99" y="-71" type="line" smooth="yes"/>
      <point x="99" y="-94"/>
      <point x="124" y="-113"/>
      <point x="148" y="-113" type="curve" smooth="yes"/>
    </contour>
  </outline>
</glyph>
<glyph name="braceright" format="1">
  <advance width="413"/>
  <unicode hex="007D"/>
  <outline>
    <contour>
      <point x="118" y="-112" type="line" smooth="yes"/>
      <point x="261" y="-112"/>
      <point x="333" y="-35"/>
      <point x="333" y="35" type="curve" smooth="yes"/>
      <point x="333" y="100"/>
      <point x="263" y="134"/>
      <point x="263" y="192" type="curve" smooth="yes"/>
      <point x="263" y="213"/>
      <point x="297" y="218"/>
      <point x="328" y="222" type="curve" smooth="yes"/>
      <point x="351" y="225"/>
      <point x="370" y="244"/>
      <point x="370" y="262" type="curve" smooth="yes"/>
      <point x="370" y="268" type="line" smooth="yes"/>
      <point x="370" y="287"/>
      <point x="351" y="306"/>
      <point x="328" y="309" type="curve" smooth="yes"/>
      <point x="297" y="314"/>
      <point x="263" y="318"/>
      <point x="263" y="339" type="curve" smooth="yes"/>
      <point x="263" y="396"/>
      <point x="333" y="430"/>
      <point x="333" y="495" type="curve" smooth="yes"/>
      <point x="333" y="567"/>
      <point x="261" y="643"/>
      <point x="118" y="643" type="curve" smooth="yes"/>
      <point x="97" y="643" type="line" smooth="yes"/>
      <point x="73" y="643"/>
      <point x="53" y="624"/>
      <point x="53" y="601" type="curve" smooth="yes"/>
      <point x="53" y="579"/>
      <point x="73" y="560"/>
      <point x="97" y="560" type="curve" smooth="yes"/>
      <point x="118" y="560" type="line" smooth="yes"/>
      <point x="181" y="560"/>
      <point x="235" y="535"/>
      <point x="235" y="495" type="curve" smooth="yes"/>
      <point x="235" y="430"/>
      <point x="165" y="396"/>
      <point x="165" y="339" type="curve" smooth="yes"/>
      <point x="165" y="288"/>
      <point x="201" y="244"/>
      <point x="314" y="228" type="curve"/>
      <point x="272" y="268" type="line"/>
      <point x="272" y="262" type="line"/>
      <point x="314" y="303" type="line"/>
      <point x="201" y="287"/>
      <point x="165" y="243"/>
      <point x="165" y="192" type="curve" smooth="yes"/>
      <point x="165" y="134"/>
      <point x="235" y="100"/>
      <point x="235" y="35" type="curve" smooth="yes"/>
      <point x="235" y="-3"/>
      <point x="181" y="-30"/>
      <point x="118" y="-30" type="curve" smooth="yes"/>
      <point x="97" y="-30" type="line" smooth="yes"/>
      <point x="73" y="-30"/>
      <point x="53" y="-48"/>
      <point x="53" y="-70" type="curve" smooth="yes"/>
      <point x="53" y="-93"/>
      <point x="73" y="-112"/>
      <point x="97" y="-112" type="curve" smooth="yes"/>
    </contour>
  </outline>
</glyph>
<glyph name="asciitilde" format="1">
  <advance width="623"/>
  <unicode hex="007E"/>
  <outline>
    <contour>
      <point x="472" y="162"/>
      <point x="519" y="194"/>
      <point x="574" y="303" type="curve" smooth="yes"/>
      <point x="585" y="323"/>
      <point x="572" y="349"/>
      <point x="551" y="359" type="curve" smooth="yes"/>
      <point x="529" y="369"/>
      <point x="500" y="361"/>
      <point x="490" y="341" type="curve" smooth="yes"/>
      <point x="463" y="288"/>
      <point x="448" y="245"/>
      <point x="410" y="245" type="curve" smooth="yes"/>
      <point x="385" y="245"/>
      <point x="369" y="265"/>
      <point x="348" y="289" type="curve" smooth="yes"/>
      <point x="307" y="333"/>
      <point x="273" y="359"/>
      <point x="223" y="359" type="curve" smooth="yes"/>
      <point x="166" y="359"/>
      <point x="116" y="326"/>
      <point x="67" y="229" type="curve" smooth="yes"/>
      <point x="56" y="210"/>
      <point x="69" y="184"/>
      <point x="90" y="173" type="curve" smooth="yes"/>
      <point x="111" y="164"/>
      <point x="141" y="171"/>
      <point x="151" y="192" type="curve" smooth="yes"/>
      <point x="174" y="236"/>
      <point x="190" y="277"/>
      <point x="223" y="277" type="curve" smooth="yes"/>
      <point x="249" y="277"/>
      <point x="261" y="253"/>
      <point x="280" y="232" type="curve" smooth="yes"/>
      <point x="325" y="185"/>
      <point x="363" y="162"/>
      <point x="410" y="162" type="curve" smooth="yes"/>
    </contour>
  </outline>
</glyph>
<glyph name="exclamdown" format="1">
  <advance width="323"/>
  <unicode hex="00A1"/>
  <outline>
    <contour>
      <point x="192" y="-24"/>
      <point x="217" y="-4"/>
      <point x="216" y="18" type="curve" smooth="yes"/>
      <point x="209" y="293" type="line" smooth="yes"/>
      <point x="208" y="316"/>
      <point x="183" y="334"/>
      <point x="159" y="333" type="curve" smooth="yes"/>
      <point x="135" y="332"/>
      <point x="110" y="314"/>
      <point x="111" y="291" type="curve" smooth="yes"/>
      <point x="118" y="16" type="line" smooth="yes"/>
      <point x="119" y="-6"/>
      <point x="144" y="-26"/>
      <point x="168" y="-25" type="curve" smooth="yes"/>
    </contour>
    <contour>
      <point x="196" y="437"/>
      <point x="231" y="462"/>
      <point x="231" y="507" type="curve" smooth="yes"/>
      <point x="231" y="564"/>
      <point x="198" y="577"/>
      <point x="161" y="577" type="curve" smooth="yes"/>
      <point x="131" y="577"/>
      <point x="90" y="562"/>
      <point x="90" y="507" type="curve" smooth="yes"/>
      <point x="90" y="460"/>
      <point x="121" y="437"/>
      <point x="160" y="437" type="curve" smooth="yes"/>
    </contour>
  </outline>
</glyph>
<glyph name="cent" format="1">
  <advance width="435"/>
  <unicode hex="00A2"/>
  <outline>
    <contour>
      <point x="311" y="64"/>
      <point x="351" y="71"/>
      <point x="385" y="84" type="curve" smooth="yes"/>
      <point x="407" y="92"/>
      <point x="419" y="116"/>
      <point x="410" y="137" type="curve" smooth="yes"/>
      <point x="402" y="159"/>
      <point x="376" y="169"/>
      <point x="353" y="161" type="curve" smooth="yes"/>
      <point x="329" y="153"/>
      <point x="299" y="146"/>
      <point x="262" y="146" type="curve" smooth="yes"/>
      <point x="171" y="146"/>
      <point x="117" y="193"/>
      <point x="117" y="258" type="curve"/>
      <point x="117" y="330"/>
      <point x="169" y="385"/>
      <point x="263" y="385" type="curve" smooth="yes"/>
      <point x="289" y="385"/>
      <point x="319" y="380"/>
      <point x="343" y="373" type="curve" smooth="yes"/>
      <point x="365" y="366"/>
      <point x="391" y="379"/>
      <point x="398" y="400" type="curve" smooth="yes"/>
      <point x="405" y="421"/>
      <point x="392" y="445"/>
      <point x="369" y="452" type="curve" smooth="yes"/>
      <point x="337" y="461"/>
      <point x="297" y="468"/>
      <point x="263" y="468" type="curve" smooth="yes"/>
      <point x="109" y="468"/>
      <point x="19" y="379"/>
      <point x="19" y="258" type="curve" smooth="yes"/>
      <point x="19" y="150"/>
      <point x="103" y="64"/>
      <point x="262" y="64" type="curve" smooth="yes"/>
    </contour>
    <contour>
      <point x="265" y="-13"/>
      <point x="290" y="5"/>
      <point x="290" y="29" type="curve" smooth="yes"/>
      <point x="290" y="506" type="line" smooth="yes"/>
      <point x="290" y="529"/>
      <point x="265" y="548"/>
      <point x="241" y="548" type="curve" smooth="yes"/>
      <point x="217" y="548"/>
      <point x="192" y="529"/>
      <point x="192" y="506" type="curve" smooth="yes"/>
      <point x="192" y="29" type="line" smooth="yes"/>
      <point x="192" y="5"/>
      <point x="217" y="-13"/>
      <point x="241" y="-13" type="curve" smooth="yes"/>
    </contour>
  </outline>
</glyph>
<glyph name="yen" format="1">
  <advance width="568"/>
  <unicode hex="00A5"/>
  <outline>
    <contour>
      <point x="341" y="265" type="curve" smooth="yes"/>
      <point x="341" y="11" type="line" smooth="yes"/>
      <point x="341" y="-13"/>
      <point x="316" y="-33"/>
      <point x="292" y="-33" type="curve" smooth="yes"/>
      <point x="268" y="-33"/>
      <point x="243" y="-13"/>
      <point x="243" y="11" type="curve" smooth="yes"/>
      <point x="243" y="265" type="line" smooth="yes"/>
      <point x="243" y="289"/>
      <point x="268" y="309"/>
      <point x="292" y="309" type="curve" smooth="yes"/>
      <point x="316" y="309"/>
      <point x="341" y="289"/>
    </contour>
    <contour>
      <point x="126" y="546" type="curve" smooth="yes"/>
      <point x="175" y="475"/>
      <point x="281" y="352"/>
      <point x="320" y="314" type="curve" smooth="yes"/>
      <point x="337" y="298"/>
      <point x="337" y="268"/>
      <point x="321" y="251" type="curve" smooth="yes"/>
      <point x="304" y="234"/>
      <point x="275" y="233"/>
      <point x="258" y="250" type="curve" smooth="yes"/>
      <point x="217" y="290"/>
      <point x="103" y="419"/>
      <point x="50" y="494" type="curve" smooth="yes"/>
      <point x="37" y="513"/>
      <point x="43" y="542"/>
      <point x="63" y="556" type="curve" smooth="yes"/>
      <point x="82" y="570"/>
      <point x="112" y="566"/>
    </contour>
    <contour>
      <point x="260" y="303" type="curve" smooth="yes"/>
      <point x="312" y="354"/>
      <point x="406" y="476"/>
      <point x="456" y="546" type="curve" smooth="yes"/>
      <point x="469" y="566"/>
      <point x="499" y="570"/>
      <point x="518" y="556" type="curve" smooth="yes"/>
      <point x="538" y="542"/>
      <point x="544" y="513"/>
      <point x="530" y="494" type="curve" smooth="yes"/>
      <point x="478" y="420"/>
      <point x="378" y="294"/>
      <point x="324" y="239" type="curve" smooth="yes"/>
      <point x="307" y="222"/>
      <point x="278" y="223"/>
      <point x="261" y="240" type="curve" smooth="yes"/>
      <point x="244" y="257"/>
      <point x="243" y="286"/>
    </contour>
    <contour>
      <point x="109" y="311" type="curve" smooth="yes"/>
      <point x="474" y="311" type="line" smooth="yes"/>
      <point x="498" y="311"/>
      <point x="518" y="291"/>
      <point x="518" y="267" type="curve" smooth="yes"/>
      <point x="518" y="243"/>
      <point x="498" y="223"/>
      <point x="474" y="223" type="curve" smooth="yes"/>
      <point x="109" y="223" type="line" smooth="yes"/>
      <point x="85" y="223"/>
      <point x="65" y="243"/>
      <point x="65" y="267" type="curve" smooth="yes"/>
      <point x="65" y="291"/>
      <point x="85" y="311"/>
    </contour>
    <contour>
      <point x="109" y="162" type="curve" smooth="yes"/>
      <point x="474" y="162" type="line" smooth="yes"/>
      <point x="498" y="162"/>
      <point x="518" y="142"/>
      <point x="518" y="118" type="curve" smooth="yes"/>
      <point x="518" y="94"/>
      <point x="498" y="74"/>
      <point x="474" y="74" type="curve" smooth="yes"/>
      <point x="109" y="74" type="line" smooth="yes"/>
      <point x="85" y="74"/>
      <point x="65" y="94"/>
      <point x="65" y="118" type="curve" smooth="yes"/>
      <point x="65" y="142"/>
      <point x="85" y="162"/>
    </contour>
  </outline>
</glyph>
<glyph name="brokenbar" format="1">
  <advance width="295"/>
  <unicode hex="00A6"/>
  <outline>
    <contour>
      <point x="197" y="145" type="curve" smooth="yes"/>
      <point x="197" y="-93" type="line" smooth="yes"/>
      <point x="197" y="-117"/>
      <point x="172" y="-137"/>
      <point x="148" y="-137" type="curve" smooth="yes"/>
      <point x="124" y="-137"/>
      <point x="99" y="-117"/>
      <point x="99" y="-93" type="curve" smooth="yes"/>
      <point x="99" y="145" type="line" smooth="yes"/>
      <point x="99" y="169"/>
      <point x="124" y="189"/>
      <point x="148" y="189" type="curve" smooth="yes"/>
      <point x="172" y="189"/>
      <point x="197" y="169"/>
    </contour>
    <contour>
      <point x="197" y="550" type="curve" smooth="yes"/>
      <point x="197" y="312" type="line" smooth="yes"/>
      <point x="197" y="288"/>
      <point x="172" y="268"/>
      <point x="148" y="268" type="curve" smooth="yes"/>
      <point x="124" y="268"/>
      <point x="99" y="288"/>
      <point x="99" y="312" type="curve" smooth="yes"/>
      <point x="99" y="550" type="line" smooth="yes"/>
      <point x="99" y="574"/>
      <point x="124" y="594"/>
      <point x="148" y="594" type="curve" smooth="yes"/>
      <point x="172" y="594"/>
      <point x="197" y="574"/>
    </contour>
  </outline>
</glyph>
<glyph name="section" format="1">
  <advance width="531"/>
  <unicode hex="00A7"/>
  <outline>
    <contour>
      <point x="390" y="462" type="curve" smooth="yes"/>
      <point x="344" y="477"/>
      <point x="312" y="485"/>
      <point x="245" y="485" type="curve" smooth="yes"/>
      <point x="200" y="485"/>
      <point x="151" y="469"/>
      <point x="151" y="439" type="curve" smooth="yes"/>
      <point x="151" y="408"/>
      <point x="187" y="382"/>
      <point x="274" y="370" type="curve"/>
      <point x="448" y="334"/>
      <point x="487" y="270"/>
      <point x="487" y="201" type="curve" smooth="yes"/>
      <point x="487" y="129"/>
      <point x="438" y="56"/>
      <point x="266" y="56" type="curve" smooth="yes"/>
      <point x="242" y="56"/>
      <point x="222" y="76"/>
      <point x="222" y="100" type="curve" smooth="yes"/>
      <point x="222" y="124"/>
      <point x="242" y="144"/>
      <point x="266" y="144" type="curve" smooth="yes"/>
      <point x="334" y="144"/>
      <point x="389" y="161"/>
      <point x="389" y="201" type="curve" smooth="yes"/>
      <point x="389" y="242"/>
      <point x="342" y="266"/>
      <point x="260" y="282" type="curve"/>
      <point x="67" y="312"/>
      <point x="53" y="384"/>
      <point x="53" y="439" type="curve"/>
      <point x="53" y="501"/>
      <point x="112" y="573"/>
      <point x="245" y="573" type="curve" smooth="yes"/>
      <point x="324" y="573"/>
      <point x="362" y="563"/>
      <point x="416" y="546" type="curve" smooth="yes"/>
      <point x="439" y="539"/>
      <point x="452" y="513"/>
      <point x="445" y="491" type="curve" smooth="yes"/>
      <point x="438" y="468"/>
      <point x="412" y="455"/>
    </contour>
    <contour>
      <point x="235" y="283" type="curve" smooth="yes"/>
      <point x="183" y="283"/>
      <point x="141" y="264"/>
      <point x="141" y="222" type="curve" smooth="yes"/>
      <point x="141" y="187"/>
      <point x="174" y="159"/>
      <point x="264" y="143" type="curve" smooth="yes"/>
      <point x="443" y="113"/>
      <point x="477" y="61"/>
      <point x="477" y="-9" type="curve" smooth="yes"/>
      <point x="477" y="-81"/>
      <point x="424" y="-159"/>
      <point x="256" y="-159" type="curve" smooth="yes"/>
      <point x="187" y="-159"/>
      <point x="120" y="-147"/>
      <point x="60" y="-119" type="curve" smooth="yes"/>
      <point x="38" y="-109"/>
      <point x="28" y="-82"/>
      <point x="38" y="-61" type="curve" smooth="yes"/>
      <point x="48" y="-39"/>
      <point x="75" y="-29"/>
      <point x="96" y="-39" type="curve" smooth="yes"/>
      <point x="146" y="-61"/>
      <point x="199" y="-71"/>
      <point x="256" y="-71" type="curve" smooth="yes"/>
      <point x="326" y="-71"/>
      <point x="379" y="-49"/>
      <point x="379" y="-9" type="curve" smooth="yes"/>
      <point x="379" y="33"/>
      <point x="327" y="43"/>
      <point x="250" y="57" type="curve" smooth="yes"/>
      <point x="58" y="89"/>
      <point x="43" y="163"/>
      <point x="43" y="222" type="curve"/>
      <point x="43" y="308"/>
      <point x="107" y="371"/>
      <point x="235" y="371" type="curve" smooth="yes"/>
      <point x="259" y="371"/>
      <point x="279" y="351"/>
      <point x="279" y="327" type="curve" smooth="yes"/>
      <point x="279" y="303"/>
      <point x="259" y="283"/>
    </contour>
  </outline>
</glyph>
<glyph name="dieresis" format="1">
  <advance width="495"/>
  <unicode hex="00A8"/>
  <outline>
    <contour>
      <point x="148" y="612" type="curve" smooth="yes"/>
      <point x="174" y="612"/>
      <point x="213" y="598"/>
      <point x="213" y="541" type="curve" smooth="yes"/>
      <point x="213" y="484"/>
      <point x="176" y="472"/>
      <point x="148" y="472" type="curve" smooth="yes"/>
      <point x="115" y="472"/>
      <point x="81" y="489"/>
      <point x="81" y="541" type="curve"/>
      <point x="81" y="593"/>
      <point x="116" y="612"/>
    </contour>
    <contour>
      <point x="334" y="612" type="curve" smooth="yes"/>
      <point x="363" y="612"/>
      <point x="400" y="595"/>
      <point x="400" y="541" type="curve" smooth="yes"/>
      <point x="400" y="487"/>
      <point x="364" y="472"/>
      <point x="334" y="472" type="curve" smooth="yes"/>
      <point x="304" y="472"/>
      <point x="268" y="487"/>
      <point x="268" y="541" type="curve" smooth="yes"/>
      <point x="268" y="595"/>
      <point x="305" y="612"/>
    </contour>
  </outline>
</glyph>
<glyph name="copyright" format="1">
  <advance width="666"/>
  <unicode hex="00A9"/>
  <outline>
    <contour>
      <point x="335" y="573" type="curve" smooth="yes"/>
      <point x="505" y="573"/>
      <point x="641" y="445"/>
      <point x="641" y="265" type="curve" smooth="yes"/>
      <point x="641" y="93"/>
      <point x="528" y="-42"/>
      <point x="335" y="-42" type="curve" smooth="yes"/>
      <point x="152" y="-42"/>
      <point x="25" y="94"/>
      <point x="25" y="262" type="curve"/>
      <point x="25" y="445"/>
      <point x="149" y="573"/>
    </contour>
    <contour>
      <point x="396" y="346" type="curve" smooth="yes"/>
      <point x="383" y="352"/>
      <point x="363" y="358"/>
      <point x="342" y="358" type="curve" smooth="yes"/>
      <point x="292" y="358"/>
      <point x="249" y="320"/>
      <point x="249" y="264" type="curve" smooth="yes"/>
      <point x="249" y="211"/>
      <point x="286" y="173"/>
      <point x="345" y="173" type="curve" smooth="yes"/>
      <point x="366" y="173"/>
      <point x="384" y="178"/>
      <point x="399" y="185" type="curve" smooth="yes"/>
      <point x="420" y="196"/>
      <point x="446" y="187"/>
      <point x="456" y="166" type="curve" smooth="yes"/>
      <point x="467" y="145"/>
      <point x="458" y="119"/>
      <point x="437" y="109" type="curve" smooth="yes"/>
      <point x="412" y="96"/>
      <point x="380" y="87"/>
      <point x="345" y="87" type="curve" smooth="yes"/>
      <point x="230" y="87"/>
      <point x="163" y="163"/>
      <point x="163" y="264" type="curve" smooth="yes"/>
      <point x="163" y="372"/>
      <point x="248" y="444"/>
      <point x="342" y="444" type="curve" smooth="yes"/>
      <point x="379" y="444"/>
      <point x="411" y="434"/>
      <point x="434" y="422" type="curve" smooth="yes"/>
      <point x="455" y="412"/>
      <point x="464" y="386"/>
      <point x="453" y="365" type="curve" smooth="yes"/>
      <point x="443" y="344"/>
      <point x="417" y="335"/>
    </contour>
    <contour>
      <point x="335" y="487" type="curve" smooth="yes"/>
      <point x="201" y="487"/>
      <point x="111" y="395"/>
      <point x="111" y="262" type="curve"/>
      <point x="111" y="140"/>
      <point x="204" y="44"/>
      <point x="335" y="44" type="curve" smooth="yes"/>
      <point x="474" y="44"/>
      <point x="555" y="141"/>
      <point x="555" y="265" type="curve" smooth="yes"/>
      <point x="555" y="395"/>
      <point x="457" y="487"/>
    </contour>
  </outline>
</glyph>
<glyph name="guillemetleft" format="1">
  <advance width="440"/>
  <unicode hex="00AB"/>
  <outline>
    <contour>
      <point x="405" y="28"/>
      <point x="411" y="55"/>
      <point x="397" y="72" type="curve" smooth="yes"/>
      <point x="280" y="222" type="line" smooth="yes"/>
      <point x="266" y="239"/>
      <point x="236" y="243"/>
      <point x="217" y="228" type="curve" smooth="yes"/>
      <point x="198" y="216"/>
      <point x="192" y="189"/>
      <point x="206" y="170" type="curve" smooth="yes"/>
      <point x="323" y="22" type="line" smooth="yes"/>
      <point x="337" y="3"/>
      <point x="367" y="1"/>
      <point x="386" y="14" type="curve" smooth="yes"/>
    </contour>
    <contour>
      <point x="226" y="28"/>
      <point x="232" y="55"/>
      <point x="218" y="72" type="curve" smooth="yes"/>
      <point x="102" y="222" type="line" smooth="yes"/>
      <point x="88" y="239"/>
      <point x="58" y="243"/>
      <point x="39" y="228" type="curve" smooth="yes"/>
      <point x="20" y="216"/>
      <point x="14" y="189"/>
      <point x="28" y="170" type="curve" smooth="yes"/>
      <point x="144" y="22" type="line" smooth="yes"/>
      <point x="158" y="3"/>
      <point x="188" y="1"/>
      <point x="207" y="14" type="curve" smooth="yes"/>
    </contour>
    <contour>
      <point x="58" y="154"/>
      <point x="88" y="158"/>
      <point x="102" y="175" type="curve" smooth="yes"/>
      <point x="218" y="324" type="line" smooth="yes"/>
      <point x="232" y="342"/>
      <point x="226" y="369"/>
      <point x="207" y="382" type="curve" smooth="yes"/>
      <point x="188" y="396"/>
      <point x="158" y="392"/>
      <point x="144" y="375" type="curve" smooth="yes"/>
      <point x="28" y="226" type="line" smooth="yes"/>
      <point x="14" y="208"/>
      <point x="20" y="181"/>
      <point x="39" y="167" type="curve" smooth="yes"/>
    </contour>
    <contour>
      <point x="236" y="154"/>
      <point x="266" y="158"/>
      <point x="280" y="175" type="curve" smooth="yes"/>
      <point x="397" y="324" type="line" smooth="yes"/>
      <point x="411" y="342"/>
      <point x="405" y="369"/>
      <point x="386" y="382" type="curve" smooth="yes"/>
      <point x="367" y="396"/>
      <point x="337" y="392"/>
      <point x="323" y="375" type="curve" smooth="yes"/>
      <point x="206" y="226" type="line" smooth="yes"/>
      <point x="192" y="208"/>
      <point x="198" y="181"/>
      <point x="217" y="167" type="curve" smooth="yes"/>
    </contour>
  </outline>
</glyph>
<glyph name="logicalnot" format="1">
  <advance width="485"/>
  <unicode hex="00AC"/>
  <outline>
    <contour>
      <point x="381" y="214" type="line" smooth="yes"/>
      <point x="405" y="214"/>
      <point x="425" y="232"/>
      <point x="425" y="255" type="curve" smooth="yes"/>
      <point x="425" y="278"/>
      <point x="405" y="296"/>
      <point x="381" y="296" type="curve" smooth="yes"/>
      <point x="104" y="296" type="line" smooth="yes"/>
      <point x="80" y="296"/>
      <point x="60" y="278"/>
      <point x="60" y="255" type="curve" smooth="yes"/>
      <point x="60" y="232"/>
      <point x="80" y="214"/>
      <point x="104" y="214" type="curve" smooth="yes"/>
    </contour>
    <contour>
      <point x="405" y="107"/>
      <point x="430" y="127"/>
      <point x="430" y="149" type="curve" smooth="yes"/>
      <point x="430" y="249" type="line" smooth="yes"/>
      <point x="430" y="271"/>
      <point x="405" y="290"/>
      <point x="381" y="290" type="curve" smooth="yes"/>
      <point x="357" y="290"/>
      <point x="332" y="271"/>
      <point x="332" y="249" type="curve" smooth="yes"/>
      <point x="332" y="149" type="line" smooth="yes"/>
      <point x="332" y="127"/>
      <point x="357" y="107"/>
      <point x="381" y="107" type="curve" smooth="yes"/>
    </contour>
  </outline>
</glyph>
<glyph name="registered" format="1">
  <advance width="568"/>
  <unicode hex="00AE"/>
  <outline>
    <contour>
      <point x="281" y="566" type="curve" smooth="yes"/>
      <point x="186" y="566"/>
      <point x="122" y="500"/>
      <point x="122" y="406" type="curve" smooth="yes"/>
      <point x="122" y="316"/>
      <point x="187" y="239"/>
      <point x="288" y="239" type="curve" smooth="yes"/>
      <point x="382" y="239"/>
      <point x="452" y="309"/>
      <point x="452" y="403" type="curve" smooth="yes"/>
      <point x="452" y="497"/>
      <point x="381" y="566"/>
    </contour>
    <contour>
      <point x="237" y="419" type="curve" smooth="yes"/>
      <point x="286" y="419" type="line" smooth="yes"/>
      <point x="300" y="419"/>
      <point x="309" y="426"/>
      <point x="309" y="438" type="curve" smooth="yes"/>
      <point x="309" y="451"/>
      <point x="296" y="453"/>
      <point x="286" y="453" type="curve" smooth="yes"/>
      <point x="226" y="453" type="line"/>
      <point x="269" y="496" type="line"/>
      <point x="269" y="312" type="line" smooth="yes"/>
      <point x="269" y="289"/>
      <point x="249" y="269"/>
      <point x="226" y="269" type="curve" smooth="yes"/>
      <point x="203" y="269"/>
      <point x="183" y="289"/>
      <point x="183" y="312" type="curve" smooth="yes"/>
      <point x="183" y="496" type="line" smooth="yes"/>
      <point x="183" y="520"/>
      <point x="202" y="539"/>
      <point x="226" y="539" type="curve" smooth="yes"/>
      <point x="286" y="539" type="line" smooth="yes"/>
      <point x="356" y="539"/>
      <point x="395" y="497"/>
      <point x="395" y="438" type="curve" smooth="yes"/>
      <point x="395" y="382"/>
      <point x="362" y="333"/>
      <point x="286" y="333" type="curve" smooth="yes"/>
      <point x="237" y="333" type="line" smooth="yes"/>
      <point x="214" y="333"/>
      <point x="194" y="353"/>
      <point x="194" y="376" type="curve" smooth="yes"/>
      <point x="194" y="399"/>
      <point x="214" y="419"/>
    </contour>
    <contour>
      <point x="346" y="397" type="curve" smooth="yes"/>
      <point x="396" y="340" type="line" smooth="yes"/>
      <point x="412" y="323"/>
      <point x="410" y="295"/>
      <point x="392" y="280" type="curve" smooth="yes"/>
      <point x="375" y="264"/>
      <point x="347" y="266"/>
      <point x="332" y="284" type="curve" smooth="yes"/>
      <point x="282" y="341" type="line" smooth="yes"/>
      <point x="266" y="358"/>
      <point x="268" y="386"/>
      <point x="286" y="401" type="curve" smooth="yes"/>
      <point x="303" y="417"/>
      <point x="331" y="415"/>
    </contour>
    <contour>
      <point x="281" y="652" type="curve" smooth="yes"/>
      <point x="435" y="652"/>
      <point x="538" y="545"/>
      <point x="538" y="403" type="curve" smooth="yes"/>
      <point x="538" y="259"/>
      <point x="432" y="153"/>
      <point x="288" y="153" type="curve" smooth="yes"/>
      <point x="135" y="153"/>
      <point x="36" y="270"/>
      <point x="36" y="406" type="curve" smooth="yes"/>
      <point x="36" y="552"/>
      <point x="136" y="652"/>
    </contour>
  </outline>
</glyph>
<glyph name="degree" format="1">
  <advance width="442"/>
  <unicode hex="00B0"/>
  <outline>
    <contour>
      <point x="334" y="195"/>
      <point x="417" y="270"/>
      <point x="417" y="369" type="curve" smooth="yes"/>
      <point x="417" y="473"/>
      <point x="333" y="549"/>
      <point x="220" y="549" type="curve" smooth="yes"/>
      <point x="106" y="549"/>
      <point x="25" y="470"/>
      <point x="25" y="369" type="curve"/>
      <point x="25" y="271"/>
      <point x="107" y="195"/>
      <point x="221" y="195" type="curve" smooth="yes"/>
    </contour>
    <contour>
      <point x="161" y="278"/>
      <point x="123" y="320"/>
      <point x="123" y="369" type="curve" smooth="yes"/>
      <point x="123" y="419"/>
      <point x="158" y="466"/>
      <point x="220" y="466" type="curve" smooth="yes"/>
      <point x="281" y="466"/>
      <point x="319" y="422"/>
      <point x="319" y="369" type="curve" smooth="yes"/>
      <point x="319" y="319"/>
      <point x="280" y="278"/>
      <point x="221" y="278" type="curve" smooth="yes"/>
    </contour>
  </outline>
</glyph>
<glyph name="plusminus" format="1">
  <advance width="537"/>
  <unicode hex="00B1"/>
  <outline>
    <contour>
      <point x="91" y="375" type="curve" smooth="yes"/>
      <point x="445" y="375" type="line" smooth="yes"/>
      <point x="469" y="375"/>
      <point x="489" y="355"/>
      <point x="489" y="331" type="curve" smooth="yes"/>
      <point x="489" y="307"/>
      <point x="469" y="287"/>
      <point x="445" y="287" type="curve" smooth="yes"/>
      <point x="91" y="287" type="line" smooth="yes"/>
      <point x="67" y="287"/>
      <point x="47" y="307"/>
      <point x="47" y="331" type="curve" smooth="yes"/>
      <point x="47" y="355"/>
      <point x="67" y="375"/>
    </contour>
    <contour>
      <point x="219" y="206" type="curve" smooth="yes"/>
      <point x="219" y="456" type="line" smooth="yes"/>
      <point x="219" y="480"/>
      <point x="244" y="500"/>
      <point x="268" y="500" type="curve" smooth="yes"/>
      <point x="292" y="500"/>
      <point x="317" y="480"/>
      <point x="317" y="456" type="curve" smooth="yes"/>
      <point x="317" y="206" type="line" smooth="yes"/>
      <point x="317" y="182"/>
      <point x="292" y="162"/>
      <point x="268" y="162" type="curve" smooth="yes"/>
      <point x="244" y="162"/>
      <point x="219" y="182"/>
    </contour>
    <contour>
      <point x="91" y="117" type="curve" smooth="yes"/>
      <point x="445" y="117" type="line" smooth="yes"/>
      <point x="469" y="117"/>
      <point x="489" y="97"/>
      <point x="489" y="73" type="curve" smooth="yes"/>
      <point x="489" y="49"/>
      <point x="469" y="29"/>
      <point x="445" y="29" type="curve" smooth="yes"/>
      <point x="91" y="29" type="line" smooth="yes"/>
      <point x="67" y="29"/>
      <point x="47" y="49"/>
      <point x="47" y="73" type="curve" smooth="yes"/>
      <point x="47" y="97"/>
      <point x="67" y="117"/>
    </contour>
  </outline>
</glyph>
<glyph name="uni00B5" format="1">
  <advance width="502"/>
  <unicode hex="00B5"/>
  <outline>
    <contour>
      <point x="119" y="-160"/>
      <point x="144" y="-142"/>
      <point x="144" y="-118" type="curve" smooth="yes"/>
      <point x="144" y="220" type="line" smooth="yes"/>
      <point x="144" y="242"/>
      <point x="119" y="261"/>
      <point x="95" y="261" type="curve" smooth="yes"/>
      <point x="71" y="261"/>
      <point x="46" y="242"/>
      <point x="46" y="220" type="curve" smooth="yes"/>
      <point x="46" y="-118" type="line" smooth="yes"/>
      <point x="46" y="-142"/>
      <point x="71" y="-160"/>
      <point x="95" y="-160" type="curve" smooth="yes"/>
    </contour>
    <component base="u"/>
  </outline>
</glyph>
<glyph name="paragraph" format="1">
  <advance width="564"/>
  <unicode hex="00B6"/>
  <outline>
    <contour>
      <point x="396" y="11" type="curve" smooth="yes"/>
      <point x="396" y="520" type="line"/>
      <point x="445" y="476" type="line"/>
      <point x="247" y="476" type="line" smooth="yes"/>
      <point x="170" y="476"/>
      <point x="120" y="427"/>
      <point x="120" y="358" type="curve" smooth="yes"/>
      <point x="120" y="294"/>
      <point x="161" y="240"/>
      <point x="247" y="240" type="curve" smooth="yes"/>
      <point x="306" y="240" type="line" smooth="yes"/>
      <point x="330" y="240"/>
      <point x="350" y="220"/>
      <point x="350" y="196" type="curve" smooth="yes"/>
      <point x="350" y="172"/>
      <point x="330" y="152"/>
      <point x="306" y="152" type="curve" smooth="yes"/>
      <point x="247" y="152" type="line" smooth="yes"/>
      <point x="97" y="152"/>
      <point x="22" y="244"/>
      <point x="22" y="358" type="curve"/>
      <point x="22" y="479"/>
      <point x="112" y="564"/>
      <point x="247" y="564" type="curve" smooth="yes"/>
      <point x="445" y="564" type="line" smooth="yes"/>
      <point x="472" y="564"/>
      <point x="494" y="544"/>
      <point x="494" y="520" type="curve" smooth="yes"/>
      <point x="494" y="11" type="line" smooth="yes"/>
      <point x="494" y="-13"/>
      <point x="469" y="-33"/>
      <point x="445" y="-33" type="curve" smooth="yes"/>
      <point x="421" y="-33"/>
      <point x="396" y="-13"/>
    </contour>
    <contour>
      <point x="257" y="11" type="curve" smooth="yes"/>
      <point x="257" y="518" type="line" smooth="yes"/>
      <point x="257" y="542"/>
      <point x="282" y="562"/>
      <point x="306" y="562" type="curve" smooth="yes"/>
      <point x="330" y="562"/>
      <point x="355" y="542"/>
      <point x="355" y="518" type="curve" smooth="yes"/>
      <point x="355" y="11" type="line" smooth="yes"/>
      <point x="355" y="-13"/>
      <point x="330" y="-33"/>
      <point x="306" y="-33" type="curve" smooth="yes"/>
      <point x="282" y="-33"/>
      <point x="257" y="-13"/>
    </contour>
  </outline>
</glyph>
<glyph name="periodcentered" format="1">
  <advance width="216"/>
  <unicode hex="00B7"/>
  <outline>
    <contour>
      <point x="145" y="154"/>
      <point x="180" y="166"/>
      <point x="180" y="223" type="curve" smooth="yes"/>
      <point x="180" y="268"/>
      <point x="144" y="293"/>
      <point x="109" y="293" type="curve" smooth="yes"/>
      <point x="70" y="293"/>
      <point x="39" y="270"/>
      <point x="39" y="223" type="curve"/>
      <point x="39" y="168"/>
      <point x="78" y="154"/>
      <point x="110" y="154" type="curve" smooth="yes"/>
    </contour>
  </outline>
</glyph>
<glyph name="cedilla" format="1">
  <advance width="495"/>
  <unicode hex="00B8"/>
  <outline>
    <contour>
      <point x="329" y="-114" type="curve" smooth="yes"/>
      <point x="301" y="-140"/>
      <point x="249" y="-193"/>
      <point x="225" y="-217" type="curve" smooth="yes"/>
      <point x="209" y="-234"/>
      <point x="180" y="-234"/>
      <point x="163" y="-218" type="curve" smooth="yes"/>
      <point x="145" y="-201"/>
      <point x="144" y="-172"/>
      <point x="161" y="-155" type="curve" smooth="yes"/>
      <point x="185" y="-129"/>
      <point x="239" y="-76"/>
      <point x="269" y="-48" type="curve" smooth="yes"/>
      <point x="286" y="-32"/>
      <point x="315" y="-34"/>
      <point x="331" y="-51" type="curve" smooth="yes"/>
      <point x="347" y="-68"/>
      <point x="347" y="-98"/>
    </contour>
  </outline>
</glyph>
<glyph name="ordmasculine" format="1">
  <advance width="440"/>
  <unicode hex="00BA"/>
  <outline>
    <contour>
      <point x="318" y="237"/>
      <point x="382" y="303"/>
      <point x="382" y="389" type="curve" smooth="yes"/>
      <point x="382" y="473"/>
      <point x="317" y="544"/>
      <point x="220" y="544" type="curve" smooth="yes"/>
      <point x="119" y="544"/>
      <point x="57" y="473"/>
      <point x="57" y="389" type="curve"/>
      <point x="57" y="303"/>
      <point x="122" y="237"/>
      <point x="220" y="237" type="curve" smooth="yes"/>
    </contour>
    <contour>
      <point x="354" y="124" type="line" smooth="yes"/>
      <point x="377" y="124"/>
      <point x="397" y="142"/>
      <point x="397" y="164" type="curve" smooth="yes"/>
      <point x="397" y="186"/>
      <point x="377" y="204"/>
      <point x="354" y="204" type="curve" smooth="yes"/>
      <point x="93" y="204" type="line" smooth="yes"/>
      <point x="70" y="204"/>
      <point x="50" y="186"/>
      <point x="50" y="164" type="curve" smooth="yes"/>
      <point x="50" y="142"/>
      <point x="70" y="124"/>
      <point x="93" y="124" type="curve" smooth="yes"/>
    </contour>
    <contour>
      <point x="174" y="318"/>
      <point x="143" y="348"/>
      <point x="143" y="389" type="curve" smooth="yes"/>
      <point x="143" y="428"/>
      <point x="171" y="463"/>
      <point x="220" y="463" type="curve" smooth="yes"/>
      <point x="267" y="463"/>
      <point x="296" y="428"/>
      <point x="296" y="389" type="curve" smooth="yes"/>
      <point x="296" y="348"/>
      <point x="266" y="318"/>
      <point x="220" y="318" type="curve" smooth="yes"/>
    </contour>
  </outline>
</glyph>
<glyph name="guillemotright" format="1">
  <advance width="440"/>
  <unicode hex="00BB"/>
  <outline>
    <contour>
      <point x="43" y="58" type="curve" smooth="yes"/>
      <point x="160" y="216" type="line" smooth="yes"/>
      <point x="174" y="235"/>
      <point x="204" y="239"/>
      <point x="223" y="224" type="curve" smooth="yes"/>
      <point x="242" y="210"/>
      <point x="248" y="181"/>
      <point x="234" y="162" type="curve" smooth="yes"/>
      <point x="117" y="4" type="line" smooth="yes"/>
      <point x="103" y="-15"/>
      <point x="73" y="-19"/>
      <point x="54" y="-4" type="curve" smooth="yes"/>
      <point x="35" y="10"/>
      <point x="29" y="39"/>
    </contour>
    <contour>
      <point x="160" y="167" type="curve" smooth="yes"/>
      <point x="43" y="325" type="line" smooth="yes"/>
      <point x="29" y="344"/>
      <point x="35" y="373"/>
      <point x="54" y="387" type="curve" smooth="yes"/>
      <point x="73" y="402"/>
      <point x="103" y="398"/>
      <point x="117" y="379" type="curve" smooth="yes"/>
      <point x="234" y="221" type="line" smooth="yes"/>
      <point x="248" y="202"/>
      <point x="242" y="173"/>
      <point x="223" y="159" type="curve" smooth="yes"/>
      <point x="204" y="144"/>
      <point x="174" y="148"/>
    </contour>
    <contour>
      <point x="222" y="58" type="curve" smooth="yes"/>
      <point x="338" y="216" type="line" smooth="yes"/>
      <point x="352" y="235"/>
      <point x="382" y="239"/>
      <point x="401" y="224" type="curve" smooth="yes"/>
      <point x="420" y="210"/>
      <point x="426" y="181"/>
      <point x="412" y="162" type="curve" smooth="yes"/>
      <point x="296" y="4" type="line" smooth="yes"/>
      <point x="282" y="-15"/>
      <point x="252" y="-19"/>
      <point x="233" y="-4" type="curve" smooth="yes"/>
      <point x="214" y="10"/>
      <point x="208" y="39"/>
    </contour>
    <contour>
      <point x="338" y="167" type="curve" smooth="yes"/>
      <point x="222" y="325" type="line" smooth="yes"/>
      <point x="208" y="344"/>
      <point x="214" y="373"/>
      <point x="233" y="387" type="curve" smooth="yes"/>
      <point x="252" y="402"/>
      <point x="282" y="398"/>
      <point x="296" y="379" type="curve" smooth="yes"/>
      <point x="412" y="221" type="line" smooth="yes"/>
      <point x="426" y="202"/>
      <point x="420" y="173"/>
      <point x="401" y="159" type="curve" smooth="yes"/>
      <point x="382" y="144"/>
      <point x="352" y="148"/>
    </contour>
  </outline>
</glyph>
<glyph name="onehalf" format="1">
  <advance width="799"/>
  <unicode hex="00BD"/>
  <outline>
    <contour>
      <point x="544" y="498" type="curve" smooth="yes"/>
      <point x="246" y="-11" type="line" smooth="yes"/>
      <point x="234" y="-31"/>
      <point x="207" y="-38"/>
      <point x="187" y="-26" type="curve" smooth="yes"/>
      <point x="167" y="-14"/>
      <point x="160" y="13"/>
      <point x="172" y="33" type="curve" smooth="yes"/>
      <point x="470" y="542" type="line" smooth="yes"/>
      <point x="482" y="562"/>
      <point x="509" y="569"/>
      <point x="529" y="557" type="curve" smooth="yes"/>
      <point x="549" y="545"/>
      <point x="556" y="518"/>
    </contour>
    <contour>
      <point x="245" y="527" type="curve" smooth="yes"/>
      <point x="245" y="256" type="line" smooth="yes"/>
      <point x="245" y="233"/>
      <point x="225" y="213"/>
      <point x="202" y="213" type="curve" smooth="yes"/>
      <point x="179" y="213"/>
      <point x="159" y="233"/>
      <point x="159" y="256" type="curve" smooth="yes"/>
      <point x="159" y="527" type="line" smooth="yes"/>
      <point x="159" y="550"/>
      <point x="179" y="570"/>
      <point x="202" y="570" type="curve" smooth="yes"/>
      <point x="225" y="570"/>
      <point x="245" y="550"/>
    </contour>
    <contour>
      <point x="222" y="492" type="curve" smooth="yes"/>
      <point x="136" y="446" type="line" smooth="yes"/>
      <point x="116" y="435"/>
      <point x="89" y="443"/>
      <point x="78" y="464" type="curve" smooth="yes"/>
      <point x="67" y="484"/>
      <point x="75" y="511"/>
      <point x="96" y="522" type="curve" smooth="yes"/>
      <point x="182" y="568" type="line" smooth="yes"/>
      <point x="202" y="579"/>
      <point x="229" y="571"/>
      <point x="240" y="550" type="curve" smooth="yes"/>
      <point x="251" y="530"/>
      <point x="243" y="503"/>
    </contour>
    <contour>
      <point x="456" y="47" type="curve" smooth="yes"/>
      <point x="549" y="134" type="line" smooth="yes"/>
      <point x="593" y="176"/>
      <point x="615" y="191"/>
      <point x="615" y="217" type="curve" smooth="yes"/>
      <point x="615" y="232"/>
      <point x="596" y="236"/>
      <point x="579" y="236" type="curve" smooth="yes"/>
      <point x="558" y="236"/>
      <point x="540" y="230"/>
      <point x="522" y="218" type="curve" smooth="yes"/>
      <point x="502" y="205"/>
      <point x="475" y="211"/>
      <point x="462" y="230" type="curve" smooth="yes"/>
      <point x="449" y="250"/>
      <point x="455" y="277"/>
      <point x="474" y="290" type="curve" smooth="yes"/>
      <point x="508" y="312"/>
      <point x="540" y="322"/>
      <point x="579" y="322" type="curve" smooth="yes"/>
      <point x="670" y="322"/>
      <point x="701" y="266"/>
      <point x="701" y="217" type="curve" smooth="yes"/>
      <point x="701" y="175"/>
      <point x="685" y="146"/>
      <point x="607" y="72" type="curve" smooth="yes"/>
      <point x="514" y="-15" type="line" smooth="yes"/>
      <point x="497" y="-31"/>
      <point x="469" y="-30"/>
      <point x="454" y="-13" type="curve" smooth="yes"/>
      <point x="438" y="4"/>
      <point x="439" y="32"/>
    </contour>
    <contour>
      <point x="678" y="-32" type="curve" smooth="yes"/>
      <point x="479" y="-32" type="line" smooth="yes"/>
      <point x="456" y="-32"/>
      <point x="436" y="-12"/>
      <point x="436" y="11" type="curve" smooth="yes"/>
      <point x="436" y="34"/>
      <point x="456" y="54"/>
      <point x="479" y="54" type="curve" smooth="yes"/>
      <point x="678" y="54" type="line" smooth="yes"/>
      <point x="701" y="54"/>
      <point x="721" y="34"/>
      <point x="721" y="11" type="curve" smooth="yes"/>
      <point x="721" y="-12"/>
      <point x="701" y="-32"/>
    </contour>
  </outline>
</glyph>
<glyph name="threequarters" format="1">
  <advance width="847"/>
  <unicode hex="00BE"/>
  <outline>
    <contour>
      <point x="642" y="498" type="curve" smooth="yes"/>
      <point x="345" y="-11" type="line" smooth="yes"/>
      <point x="333" y="-31"/>
      <point x="306" y="-38"/>
      <point x="286" y="-26" type="curve" smooth="yes"/>
      <point x="266" y="-14"/>
      <point x="259" y="13"/>
      <point x="271" y="33" type="curve" smooth="yes"/>
      <point x="568" y="542" type="line" smooth="yes"/>
      <point x="580" y="562"/>
      <point x="607" y="569"/>
      <point x="627" y="557" type="curve" smooth="yes"/>
      <point x="647" y="545"/>
      <point x="654" y="518"/>
    </contour>
    <contour>
      <point x="714" y="285" type="curve" smooth="yes"/>
      <point x="714" y="12" type="line" smooth="yes"/>
      <point x="714" y="-11"/>
      <point x="694" y="-31"/>
      <point x="671" y="-31" type="curve" smooth="yes"/>
      <point x="648" y="-31"/>
      <point x="628" y="-11"/>
      <point x="628" y="12" type="curve" smooth="yes"/>
      <point x="628" y="285" type="line" smooth="yes"/>
      <point x="628" y="308"/>
      <point x="648" y="328"/>
      <point x="671" y="328" type="curve" smooth="yes"/>
      <point x="694" y="328"/>
      <point x="714" y="308"/>
    </contour>
    <contour>
      <point x="700" y="252" type="curve" smooth="yes"/>
      <point x="539" y="63" type="line" smooth="yes"/>
      <point x="524" y="45"/>
      <point x="496" y="43"/>
      <point x="478" y="58" type="curve" smooth="yes"/>
      <point x="460" y="73"/>
      <point x="458" y="101"/>
      <point x="473" y="119" type="curve" smooth="yes"/>
      <point x="634" y="308" type="line" smooth="yes"/>
      <point x="649" y="326"/>
      <point x="677" y="328"/>
      <point x="695" y="313" type="curve" smooth="yes"/>
      <point x="713" y="298"/>
      <point x="715" y="270"/>
    </contour>
    <contour>
      <point x="511" y="134" type="curve" smooth="yes"/>
      <point x="737" y="134" type="line" smooth="yes"/>
      <point x="760" y="134"/>
      <point x="780" y="114"/>
      <point x="780" y="91" type="curve" smooth="yes"/>
      <point x="780" y="68"/>
      <point x="760" y="48"/>
      <point x="737" y="48" type="curve" smooth="yes"/>
      <point x="511" y="48" type="line" smooth="yes"/>
      <point x="488" y="48"/>
      <point x="468" y="68"/>
      <point x="468" y="91" type="curve" smooth="yes"/>
      <point x="468" y="114"/>
      <point x="488" y="134"/>
    </contour>
    <contour>
      <point x="133" y="563" type="curve" smooth="yes"/>
      <point x="313" y="563" type="line" smooth="yes"/>
      <point x="336" y="563"/>
      <point x="356" y="543"/>
      <point x="356" y="520" type="curve" smooth="yes"/>
      <point x="356" y="497"/>
      <point x="336" y="477"/>
      <point x="313" y="477" type="curve" smooth="yes"/>
      <point x="133" y="477" type="line" smooth="yes"/>
      <point x="110" y="477"/>
      <point x="90" y="497"/>
      <point x="90" y="520" type="curve" smooth="yes"/>
      <point x="90" y="543"/>
      <point x="110" y="563"/>
    </contour>
    <contour>
      <point x="137" y="303" type="curve" smooth="yes"/>
      <point x="159" y="295"/>
      <point x="186" y="289"/>
      <point x="218" y="289" type="curve" smooth="yes"/>
      <point x="248" y="289"/>
      <point x="280" y="297"/>
      <point x="280" y="322" type="curve" smooth="yes"/>
      <point x="280" y="347"/>
      <point x="250" y="352"/>
      <point x="225" y="352" type="curve" smooth="yes"/>
      <point x="202" y="352"/>
      <point x="183" y="349"/>
      <point x="173" y="346" type="curve" smooth="yes"/>
      <point x="150" y="339"/>
      <point x="126" y="352"/>
      <point x="119" y="374" type="curve" smooth="yes"/>
      <point x="112" y="397"/>
      <point x="125" y="421"/>
      <point x="147" y="428" type="curve" smooth="yes"/>
      <point x="163" y="433"/>
      <point x="190" y="438"/>
      <point x="225" y="438" type="curve" smooth="yes"/>
      <point x="322" y="438"/>
      <point x="366" y="385"/>
      <point x="366" y="322" type="curve" smooth="yes"/>
      <point x="366" y="261"/>
      <point x="328" y="203"/>
      <point x="218" y="203" type="curve" smooth="yes"/>
      <point x="174" y="203"/>
      <point x="137" y="211"/>
      <point x="107" y="223" type="curve" smooth="yes"/>
      <point x="85" y="231"/>
      <point x="74" y="257"/>
      <point x="82" y="278" type="curve" smooth="yes"/>
      <point x="90" y="300"/>
      <point x="116" y="311"/>
    </contour>
    <contour>
      <point x="336" y="484" type="curve" smooth="yes"/>
      <point x="190" y="357" type="line" smooth="yes"/>
      <point x="173" y="341"/>
      <point x="145" y="343"/>
      <point x="130" y="361" type="curve" smooth="yes"/>
      <point x="114" y="378"/>
      <point x="116" y="406"/>
      <point x="134" y="421" type="curve" smooth="yes"/>
      <point x="280" y="548" type="line" smooth="yes"/>
      <point x="297" y="564"/>
      <point x="325" y="562"/>
      <point x="340" y="544" type="curve" smooth="yes"/>
      <point x="356" y="527"/>
      <point x="354" y="499"/>
    </contour>
  </outline>
</glyph>
<glyph name="questiondown" format="1">
  <advance width="370"/>
  <unicode hex="00BF"/>
  <outline>
    <contour>
      <point x="219" y="441" type="curve" smooth="yes"/>
      <point x="182" y="441"/>
      <point x="148" y="467"/>
      <point x="148" y="515" type="curve" smooth="yes"/>
      <point x="148" y="575"/>
      <point x="181" y="589"/>
      <point x="218" y="589" type="curve" smooth="yes"/>
      <point x="248" y="589"/>
      <point x="289" y="573"/>
      <point x="289" y="515" type="curve" smooth="yes"/>
      <point x="289" y="465"/>
      <point x="258" y="441"/>
    </contour>
    <contour>
      <point x="341" y="20" type="curve" smooth="yes"/>
      <point x="298" y="-7"/>
      <point x="255" y="-22"/>
      <point x="186" y="-22" type="curve" smooth="yes"/>
      <point x="67" y="-22"/>
      <point x="8" y="50"/>
      <point x="8" y="129" type="curve" smooth="yes"/>
      <point x="8" y="198"/>
      <point x="60" y="250"/>
      <point x="129" y="284" type="curve" smooth="yes"/>
      <point x="165" y="303"/>
      <point x="173" y="318"/>
      <point x="175" y="352" type="curve" smooth="yes"/>
      <point x="176" y="375"/>
      <point x="203" y="394"/>
      <point x="226" y="393" type="curve" smooth="yes"/>
      <point x="250" y="392"/>
      <point x="274" y="370"/>
      <point x="273" y="346" type="curve" smooth="yes"/>
      <point x="269" y="274"/>
      <point x="245" y="247"/>
      <point x="169" y="206" type="curve" smooth="yes"/>
      <point x="134" y="188"/>
      <point x="106" y="164"/>
      <point x="106" y="129" type="curve" smooth="yes"/>
      <point x="106" y="94"/>
      <point x="137" y="66"/>
      <point x="186" y="66" type="curve" smooth="yes"/>
      <point x="235" y="66"/>
      <point x="264" y="77"/>
      <point x="295" y="96" type="curve" smooth="yes"/>
      <point x="315" y="108"/>
      <point x="343" y="101"/>
      <point x="355" y="81" type="curve" smooth="yes"/>
      <point x="368" y="61"/>
      <point x="362" y="33"/>
    </contour>
  </outline>
</glyph>
<glyph name="Aacute" format="1">
  <advance width="589"/>
  <unicode hex="00C1"/>
  <outline>
    <contour>
      <point x="328" y="505" type="curve" smooth="yes"/>
      <point x="258" y="346"/>
      <point x="159" y="121"/>
      <point x="112" y="-11" type="curve" smooth="yes"/>
      <point x="104" y="-33"/>
      <point x="75" y="-44"/>
      <point x="52" y="-36" type="curve" smooth="yes"/>
      <point x="30" y="-29"/>
      <point x="14" y="-2"/>
      <point x="22" y="21" type="curve" smooth="yes"/>
      <point x="69" y="155"/>
      <point x="170" y="382"/>
      <point x="242" y="543" type="curve" smooth="yes"/>
      <point x="252" y="565"/>
      <point x="281" y="574"/>
      <point x="303" y="564" type="curve" smooth="yes"/>
      <point x="325" y="555"/>
      <point x="338" y="527"/>
    </contour>
    <contour>
      <point x="334" y="544" type="curve" smooth="yes"/>
      <point x="410" y="381"/>
      <point x="514" y="153"/>
      <point x="564" y="22" type="curve" smooth="yes"/>
      <point x="573" y="0"/>
      <point x="558" y="-28"/>
      <point x="536" y="-36" type="curve" smooth="yes"/>
      <point x="514" y="-45"/>
      <point x="484" y="-34"/>
      <point x="476" y="-12" type="curve" smooth="yes"/>
      <point x="426" y="117"/>
      <point x="324" y="343"/>
      <point x="248" y="504" type="curve" smooth="yes"/>
      <point x="238" y="526"/>
      <point x="251" y="554"/>
      <point x="272" y="564" type="curve" smooth="yes"/>
      <point x="294" y="574"/>
      <point x="323" y="565"/>
    </contour>
    <contour>
      <point x="139" y="202" type="curve" smooth="yes"/>
      <point x="445" y="202" type="line" smooth="yes"/>
      <point x="469" y="202"/>
      <point x="489" y="182"/>
      <point x="489" y="158" type="curve" smooth="yes"/>
      <point x="489" y="134"/>
      <point x="469" y="114"/>
      <point x="445" y="114" type="curve" smooth="yes"/>
      <point x="139" y="114" type="line" smooth="yes"/>
      <point x="115" y="114"/>
      <point x="95" y="134"/>
      <point x="95" y="158" type="curve" smooth="yes"/>
      <point x="95" y="182"/>
      <point x="115" y="202"/>
    </contour>
    <contour>
      <point x="432" y="705" type="curve" smooth="yes"/>
      <point x="385" y="677"/>
      <point x="335" y="646"/>
      <point x="306" y="624" type="curve" smooth="yes"/>
      <point x="287" y="610"/>
      <point x="259" y="615"/>
      <point x="245" y="634" type="curve" smooth="yes"/>
      <point x="230" y="653"/>
      <point x="235" y="682"/>
      <point x="254" y="696" type="curve" smooth="yes"/>
      <point x="285" y="718"/>
      <point x="337" y="751"/>
      <point x="386" y="781" type="curve" smooth="yes"/>
      <point x="406" y="793"/>
      <point x="434" y="786"/>
      <point x="447" y="766" type="curve" smooth="yes"/>
      <point x="459" y="745"/>
      <point x="452" y="717"/>
    </contour>
  </outline>
</glyph>
<glyph name="Adieresis" format="1">
  <advance width="589"/>
  <unicode hex="00C4"/>
  <outline>
    <contour>
      <point x="251" y="555"/>
      <point x="238" y="527"/>
      <point x="248" y="505" type="curve" smooth="yes"/>
      <point x="324" y="344"/>
      <point x="426" y="118"/>
      <point x="476" y="-11" type="curve" smooth="yes"/>
      <point x="484" y="-33"/>
      <point x="514" y="-44"/>
      <point x="536" y="-35" type="curve" smooth="yes"/>
      <point x="558" y="-27"/>
      <point x="573" y="1"/>
      <point x="564" y="23" type="curve" smooth="yes"/>
      <point x="514" y="154"/>
      <point x="410" y="382"/>
      <point x="334" y="545" type="curve" smooth="yes"/>
      <point x="323" y="566"/>
      <point x="294" y="575"/>
      <point x="272" y="565" type="curve" smooth="yes"/>
    </contour>
    <contour>
      <point x="281" y="575"/>
      <point x="251" y="566"/>
      <point x="242" y="544" type="curve" smooth="yes"/>
      <point x="170" y="382"/>
      <point x="69" y="156"/>
      <point x="22" y="22" type="curve" smooth="yes"/>
      <point x="14" y="-1"/>
      <point x="30" y="-28"/>
      <point x="52" y="-35" type="curve" smooth="yes"/>
      <point x="75" y="-43"/>
      <point x="104" y="-32"/>
      <point x="112" y="-10" type="curve" smooth="yes"/>
      <point x="159" y="122"/>
      <point x="258" y="346"/>
      <point x="328" y="506" type="curve" smooth="yes"/>
      <point x="338" y="528"/>
      <point x="324" y="556"/>
      <point x="303" y="565" type="curve" smooth="yes"/>
    </contour>
    <contour>
      <point x="139" y="203" type="line" smooth="yes"/>
      <point x="115" y="203"/>
      <point x="95" y="183"/>
      <point x="95" y="159" type="curve" smooth="yes"/>
      <point x="95" y="135"/>
      <point x="115" y="115"/>
      <point x="139" y="115" type="curve" smooth="yes"/>
      <point x="445" y="115" type="line" smooth="yes"/>
      <point x="469" y="115"/>
      <point x="489" y="135"/>
      <point x="489" y="159" type="curve" smooth="yes"/>
      <point x="489" y="183"/>
      <point x="469" y="203"/>
      <point x="445" y="203" type="curve" smooth="yes"/>
    </contour>
    <contour>
      <point x="159" y="747"/>
      <point x="120" y="727"/>
      <point x="120" y="675" type="curve" smooth="yes"/>
      <point x="120" y="623"/>
      <point x="158" y="604"/>
      <point x="187" y="604" type="curve" smooth="yes"/>
      <point x="216" y="604"/>
      <point x="253" y="621"/>
      <point x="253" y="675" type="curve" smooth="yes"/>
      <point x="253" y="729"/>
      <point x="215" y="747"/>
      <point x="187" y="747" type="curve" smooth="yes"/>
    </contour>
    <contour>
      <point x="362" y="747"/>
      <point x="323" y="727"/>
      <point x="323" y="675" type="curve" smooth="yes"/>
      <point x="323" y="623"/>
      <point x="361" y="604"/>
      <point x="390" y="604" type="curve" smooth="yes"/>
      <point x="419" y="604"/>
      <point x="456" y="621"/>
      <point x="456" y="675" type="curve" smooth="yes"/>
      <point x="456" y="729"/>
      <point x="418" y="747"/>
      <point x="390" y="747" type="curve" smooth="yes"/>
    </contour>
  </outline>
</glyph>
<glyph name="AE" format="1">
  <advance width="773"/>
  <unicode hex="00C6"/>
  <outline>
    <contour>
      <point x="31" y="-19"/>
      <point x="61" y="-14"/>
      <point x="74" y="4" type="curve" smooth="yes"/>
      <point x="160" y="129"/>
      <point x="293" y="318"/>
      <point x="401" y="485" type="curve" smooth="yes"/>
      <point x="414" y="504"/>
      <point x="405" y="531"/>
      <point x="385" y="543" type="curve" smooth="yes"/>
      <point x="365" y="554"/>
      <point x="335" y="549"/>
      <point x="323" y="530" type="curve" smooth="yes"/>
      <point x="215" y="363"/>
      <point x="82" y="176"/>
      <point x="-4" y="52" type="curve" smooth="yes"/>
      <point x="-17" y="34"/>
      <point x="-9" y="5"/>
      <point x="11" y="-6" type="curve" smooth="yes"/>
    </contour>
    <contour>
      <point x="402" y="130" type="line" smooth="yes"/>
      <point x="426" y="130"/>
      <point x="446" y="149"/>
      <point x="446" y="171" type="curve" smooth="yes"/>
      <point x="446" y="194"/>
      <point x="426" y="213"/>
      <point x="402" y="213" type="curve" smooth="yes"/>
      <point x="140" y="213" type="line" smooth="yes"/>
      <point x="116" y="213"/>
      <point x="96" y="194"/>
      <point x="96" y="171" type="curve" smooth="yes"/>
      <point x="96" y="149"/>
      <point x="116" y="130"/>
      <point x="140" y="130" type="curve" smooth="yes"/>
    </contour>
    <contour>
      <point x="421" y="466" type="line" smooth="yes"/>
      <point x="445" y="466"/>
      <point x="465" y="485"/>
      <point x="465" y="507" type="curve" smooth="yes"/>
      <point x="465" y="530"/>
      <point x="445" y="549"/>
      <point x="421" y="549" type="curve" smooth="yes"/>
      <point x="367" y="549" type="line" smooth="yes"/>
      <point x="343" y="549"/>
      <point x="323" y="530"/>
      <point x="323" y="507" type="curve" smooth="yes"/>
      <point x="323" y="485"/>
      <point x="343" y="466"/>
      <point x="367" y="466" type="curve" smooth="yes"/>
    </contour>
    <component base="E" xOffset="284"/>
  </outline>
</glyph>
<glyph name="Ccedilla" format="1">
  <advance width="574"/>
  <unicode hex="00C7"/>
  <outline>
    <contour>
      <point x="463" y="466" type="curve" smooth="yes"/>
      <point x="433" y="482"/>
      <point x="388" y="492"/>
      <point x="341" y="492" type="curve" smooth="yes"/>
      <point x="224" y="492"/>
      <point x="129" y="398"/>
      <point x="129" y="268" type="curve" smooth="yes"/>
      <point x="129" y="148"/>
      <point x="206" y="51"/>
      <point x="347" y="51" type="curve" smooth="yes"/>
      <point x="394" y="51"/>
      <point x="435" y="61"/>
      <point x="469" y="78" type="curve" smooth="yes"/>
      <point x="490" y="89"/>
      <point x="517" y="80"/>
      <point x="528" y="59" type="curve" smooth="yes"/>
      <point x="539" y="38"/>
      <point x="530" y="11"/>
      <point x="509" y="0" type="curve" smooth="yes"/>
      <point x="465" y="-23"/>
      <point x="410" y="-37"/>
      <point x="347" y="-37" type="curve" smooth="yes"/>
      <point x="150" y="-37"/>
      <point x="31" y="94"/>
      <point x="31" y="268" type="curve"/>
      <point x="31" y="458"/>
      <point x="178" y="580"/>
      <point x="341" y="580" type="curve" smooth="yes"/>
      <point x="404" y="580"/>
      <point x="465" y="566"/>
      <point x="505" y="544" type="curve" smooth="yes"/>
      <point x="526" y="532"/>
      <point x="534" y="505"/>
      <point x="523" y="484" type="curve" smooth="yes"/>
      <point x="511" y="463"/>
      <point x="484" y="455"/>
    </contour>
    <contour>
      <point x="370" y="-170" type="curve" smooth="yes"/>
      <point x="342" y="-196"/>
      <point x="290" y="-249"/>
      <point x="266" y="-273" type="curve" smooth="yes"/>
      <point x="250" y="-290"/>
      <point x="221" y="-290"/>
      <point x="204" y="-274" type="curve" smooth="yes"/>
      <point x="186" y="-257"/>
      <point x="185" y="-228"/>
      <point x="202" y="-211" type="curve" smooth="yes"/>
      <point x="226" y="-185"/>
      <point x="280" y="-132"/>
      <point x="310" y="-104" type="curve" smooth="yes"/>
      <point x="327" y="-88"/>
      <point x="356" y="-90"/>
      <point x="372" y="-107" type="curve" smooth="yes"/>
      <point x="388" y="-124"/>
      <point x="388" y="-154"/>
    </contour>
  </outline>
</glyph>
<glyph name="Edieresis" format="1">
  <advance width="491"/>
  <unicode hex="00CB"/>
  <outline>
    <contour>
      <point x="157" y="767" type="curve" smooth="yes"/>
      <point x="183" y="767"/>
      <point x="223" y="746"/>
      <point x="223" y="696" type="curve" smooth="yes"/>
      <point x="223" y="638"/>
      <point x="183" y="624"/>
      <point x="157" y="624" type="curve" smooth="yes"/>
      <point x="126" y="624"/>
      <point x="89" y="642"/>
      <point x="89" y="696" type="curve"/>
      <point x="89" y="743"/>
      <point x="125" y="767"/>
    </contour>
    <contour>
      <point x="360" y="767" type="curve" smooth="yes"/>
      <point x="386" y="767"/>
      <point x="425" y="749"/>
      <point x="425" y="696" type="curve" smooth="yes"/>
      <point x="425" y="635"/>
      <point x="386" y="624"/>
      <point x="360" y="624" type="curve" smooth="yes"/>
      <point x="329" y="624"/>
      <point x="293" y="640"/>
      <point x="293" y="696" type="curve" smooth="yes"/>
      <point x="293" y="744"/>
      <point x="328" y="767"/>
    </contour>
    <contour>
      <point x="168" y="515" type="curve" smooth="yes"/>
      <point x="168" y="6" type="line" smooth="yes"/>
      <point x="168" y="-18"/>
      <point x="143" y="-38"/>
      <point x="119" y="-38" type="curve" smooth="yes"/>
      <point x="95" y="-38"/>
      <point x="70" y="-18"/>
      <point x="70" y="6" type="curve" smooth="yes"/>
      <point x="70" y="515" type="line" smooth="yes"/>
      <point x="70" y="539"/>
      <point x="95" y="559"/>
      <point x="119" y="559" type="curve" smooth="yes"/>
      <point x="143" y="559"/>
      <point x="168" y="539"/>
    </contour>
    <contour>
      <point x="128" y="50" type="curve" smooth="yes"/>
      <point x="412" y="50" type="line" smooth="yes"/>
      <point x="436" y="50"/>
      <point x="456" y="30"/>
      <point x="456" y="6" type="curve" smooth="yes"/>
      <point x="456" y="-18"/>
      <point x="436" y="-38"/>
      <point x="412" y="-38" type="curve" smooth="yes"/>
      <point x="128" y="-38" type="line" smooth="yes"/>
      <point x="104" y="-38"/>
      <point x="84" y="-18"/>
      <point x="84" y="6" type="curve" smooth="yes"/>
      <point x="84" y="30"/>
      <point x="104" y="50"/>
    </contour>
    <contour>
      <point x="128" y="559" type="curve" smooth="yes"/>
      <point x="410" y="559" type="line" smooth="yes"/>
      <point x="434" y="559"/>
      <point x="454" y="539"/>
      <point x="454" y="515" type="curve" smooth="yes"/>
      <point x="454" y="491"/>
      <point x="434" y="471"/>
      <point x="410" y="471" type="curve" smooth="yes"/>
      <point x="128" y="471" type="line" smooth="yes"/>
      <point x="104" y="471"/>
      <point x="84" y="491"/>
      <point x="84" y="515" type="curve" smooth="yes"/>
      <point x="84" y="539"/>
      <point x="104" y="559"/>
    </contour>
    <contour>
      <point x="128" y="324" type="curve" smooth="yes"/>
      <point x="365" y="324" type="line" smooth="yes"/>
      <point x="389" y="324"/>
      <point x="409" y="304"/>
      <point x="409" y="280" type="curve" smooth="yes"/>
      <point x="409" y="256"/>
      <point x="389" y="236"/>
      <point x="365" y="236" type="curve" smooth="yes"/>
      <point x="128" y="236" type="line" smooth="yes"/>
      <point x="104" y="236"/>
      <point x="84" y="256"/>
      <point x="84" y="280" type="curve" smooth="yes"/>
      <point x="84" y="304"/>
      <point x="104" y="324"/>
    </contour>
  </outline>
</glyph>
<glyph name="Igrave" format="1">
  <advance width="249"/>
  <unicode hex="00CC"/>
  <outline>
    <contour>
      <point x="173" y="515" type="curve" smooth="yes"/>
      <point x="173" y="5" type="line" smooth="yes"/>
      <point x="173" y="-19"/>
      <point x="148" y="-39"/>
      <point x="124" y="-39" type="curve" smooth="yes"/>
      <point x="100" y="-39"/>
      <point x="75" y="-19"/>
      <point x="75" y="5" type="curve" smooth="yes"/>
      <point x="75" y="515" type="line" smooth="yes"/>
      <point x="75" y="539"/>
      <point x="100" y="559"/>
      <point x="124" y="559" type="curve" smooth="yes"/>
      <point x="148" y="559"/>
      <point x="173" y="539"/>
    </contour>
    <contour>
      <point x="29" y="783" type="curve" smooth="yes"/>
      <point x="69" y="761"/>
      <point x="127" y="717"/>
      <point x="157" y="694" type="curve" smooth="yes"/>
      <point x="176" y="680"/>
      <point x="179" y="651"/>
      <point x="165" y="632" type="curve" smooth="yes"/>
      <point x="151" y="613"/>
      <point x="122" y="609"/>
      <point x="103" y="624" type="curve" smooth="yes"/>
      <point x="75" y="645"/>
      <point x="23" y="685"/>
      <point x="-13" y="705" type="curve" smooth="yes"/>
      <point x="-34" y="717"/>
      <point x="-42" y="744"/>
      <point x="-31" y="765" type="curve" smooth="yes"/>
      <point x="-19" y="786"/>
      <point x="9" y="794"/>
    </contour>
  </outline>
</glyph>
<glyph name="Iacute" format="1">
  <advance width="249"/>
  <unicode hex="00CD"/>
  <outline>
    <contour>
      <point x="173" y="515" type="curve" smooth="yes"/>
      <point x="173" y="5" type="line" smooth="yes"/>
      <point x="173" y="-19"/>
      <point x="148" y="-39"/>
      <point x="124" y="-39" type="curve" smooth="yes"/>
      <point x="100" y="-39"/>
      <point x="75" y="-19"/>
      <point x="75" y="5" type="curve" smooth="yes"/>
      <point x="75" y="515" type="line" smooth="yes"/>
      <point x="75" y="539"/>
      <point x="100" y="559"/>
      <point x="124" y="559" type="curve" smooth="yes"/>
      <point x="148" y="559"/>
      <point x="173" y="539"/>
    </contour>
    <contour>
      <point x="268" y="705" type="curve" smooth="yes"/>
      <point x="221" y="677"/>
      <point x="171" y="646"/>
      <point x="142" y="624" type="curve" smooth="yes"/>
      <point x="123" y="610"/>
      <point x="95" y="615"/>
      <point x="81" y="634" type="curve" smooth="yes"/>
      <point x="66" y="653"/>
      <point x="71" y="682"/>
      <point x="90" y="696" type="curve" smooth="yes"/>
      <point x="121" y="718"/>
      <point x="173" y="751"/>
      <point x="222" y="781" type="curve" smooth="yes"/>
      <point x="242" y="793"/>
      <point x="270" y="786"/>
      <point x="283" y="766" type="curve" smooth="yes"/>
      <point x="295" y="745"/>
      <point x="288" y="717"/>
    </contour>
  </outline>
</glyph>
<glyph name="Idieresis" format="1">
  <advance width="249"/>
  <unicode hex="00CF"/>
  <outline>
    <contour>
      <point x="27" y="767" type="curve" smooth="yes"/>
      <point x="53" y="767"/>
      <point x="93" y="746"/>
      <point x="93" y="696" type="curve" smooth="yes"/>
      <point x="93" y="638"/>
      <point x="53" y="624"/>
      <point x="27" y="624" type="curve" smooth="yes"/>
      <point x="-4" y="624"/>
      <point x="-41" y="642"/>
      <point x="-41" y="696" type="curve" smooth="yes"/>
      <point x="-41" y="743"/>
      <point x="-5" y="767"/>
    </contour>
    <contour>
      <point x="229" y="767" type="curve" smooth="yes"/>
      <point x="258" y="767"/>
      <point x="295" y="746"/>
      <point x="295" y="696" type="curve" smooth="yes"/>
      <point x="295" y="638"/>
      <point x="257" y="624"/>
      <point x="229" y="624" type="curve" smooth="yes"/>
      <point x="201" y="624"/>
      <point x="163" y="638"/>
      <point x="163" y="696" type="curve" smooth="yes"/>
      <point x="163" y="746"/>
      <point x="200" y="767"/>
    </contour>
    <contour>
      <point x="173" y="515" type="curve" smooth="yes"/>
      <point x="173" y="6" type="line" smooth="yes"/>
      <point x="173" y="-18"/>
      <point x="148" y="-38"/>
      <point x="124" y="-38" type="curve" smooth="yes"/>
      <point x="100" y="-38"/>
      <point x="75" y="-18"/>
      <point x="75" y="6" type="curve" smooth="yes"/>
      <point x="75" y="515" type="line" smooth="yes"/>
      <point x="75" y="539"/>
      <point x="100" y="559"/>
      <point x="124" y="559" type="curve" smooth="yes"/>
      <point x="148" y="559"/>
      <point x="173" y="539"/>
    </contour>
  </outline>
</glyph>
<glyph name="Eth" format="1">
  <advance width="638"/>
  <unicode hex="00D0"/>
  <outline>
    <contour>
      <point x="316" y="230" type="line" smooth="yes"/>
      <point x="340" y="230"/>
      <point x="360" y="250"/>
      <point x="360" y="272" type="curve" smooth="yes"/>
      <point x="360" y="294"/>
      <point x="340" y="314"/>
      <point x="316" y="314" type="curve" smooth="yes"/>
      <point x="57" y="314" type="line" smooth="yes"/>
      <point x="33" y="314"/>
      <point x="13" y="294"/>
      <point x="13" y="272" type="curve" smooth="yes"/>
      <point x="13" y="250"/>
      <point x="33" y="230"/>
      <point x="57" y="230" type="curve" smooth="yes"/>
    </contour>
    <component base="D" xOffset="17"/>
  </outline>
</glyph>
<glyph name="Ntilde" format="1">
  <advance width="647"/>
  <unicode hex="00D1"/>
  <outline>
    <contour>
      <point x="168" y="515" type="curve" smooth="yes"/>
      <point x="168" y="6" type="line" smooth="yes"/>
      <point x="168" y="-18"/>
      <point x="143" y="-38"/>
      <point x="119" y="-38" type="curve" smooth="yes"/>
      <point x="95" y="-38"/>
      <point x="70" y="-18"/>
      <point x="70" y="6" type="curve" smooth="yes"/>
      <point x="70" y="515" type="line" smooth="yes"/>
      <point x="70" y="539"/>
      <point x="95" y="559"/>
      <point x="119" y="559" type="curve" smooth="yes"/>
      <point x="143" y="559"/>
      <point x="168" y="539"/>
    </contour>
    <contour>
      <point x="577" y="515" type="curve" smooth="yes"/>
      <point x="577" y="6" type="line" smooth="yes"/>
      <point x="577" y="-18"/>
      <point x="552" y="-38"/>
      <point x="528" y="-38" type="curve" smooth="yes"/>
      <point x="504" y="-38"/>
      <point x="479" y="-18"/>
      <point x="479" y="6" type="curve" smooth="yes"/>
      <point x="479" y="515" type="line" smooth="yes"/>
      <point x="479" y="539"/>
      <point x="504" y="559"/>
      <point x="528" y="559" type="curve" smooth="yes"/>
      <point x="552" y="559"/>
      <point x="577" y="539"/>
    </contour>
    <contour>
      <point x="161" y="542" type="curve" smooth="yes"/>
      <point x="240" y="437"/>
      <point x="446" y="183"/>
      <point x="558" y="33" type="curve" smooth="yes"/>
      <point x="572" y="14"/>
      <point x="566" y="-15"/>
      <point x="547" y="-29" type="curve" smooth="yes"/>
      <point x="528" y="-43"/>
      <point x="499" y="-40"/>
      <point x="484" y="-21" type="curve" smooth="yes"/>
      <point x="372" y="129"/>
      <point x="168" y="383"/>
      <point x="89" y="488" type="curve" smooth="yes"/>
      <point x="74" y="507"/>
      <point x="80" y="536"/>
      <point x="99" y="550" type="curve" smooth="yes"/>
      <point x="118" y="564"/>
      <point x="147" y="561"/>
    </contour>
    <contour>
      <point x="146" y="690" type="curve" smooth="yes"/>
      <point x="182" y="736"/>
      <point x="219" y="756"/>
      <point x="254" y="756" type="curve" smooth="yes"/>
      <point x="285" y="756"/>
      <point x="313" y="741"/>
      <point x="343" y="718" type="curve" smooth="yes"/>
      <point x="354" y="711"/>
      <point x="363" y="700"/>
      <point x="376" y="700" type="curve" smooth="yes"/>
      <point x="394" y="700"/>
      <point x="404" y="719"/>
      <point x="418" y="738" type="curve" smooth="yes"/>
      <point x="433" y="757"/>
      <point x="462" y="760"/>
      <point x="481" y="746" type="curve" smooth="yes"/>
      <point x="500" y="732"/>
      <point x="506" y="703"/>
      <point x="492" y="684" type="curve" smooth="yes"/>
      <point x="452" y="631"/>
      <point x="418" y="612"/>
      <point x="376" y="612" type="curve" smooth="yes"/>
      <point x="347" y="612"/>
      <point x="320" y="625"/>
      <point x="289" y="648" type="curve" smooth="yes"/>
      <point x="277" y="657"/>
      <point x="267" y="668"/>
      <point x="254" y="668" type="curve" smooth="yes"/>
      <point x="239" y="668"/>
      <point x="230" y="650"/>
      <point x="218" y="634" type="curve" smooth="yes"/>
      <point x="203" y="615"/>
      <point x="174" y="613"/>
      <point x="155" y="627" type="curve" smooth="yes"/>
      <point x="136" y="642"/>
      <point x="131" y="671"/>
    </contour>
  </outline>
</glyph>
